{
.appVersion = "1187";
DisplayStrings = (
abcdefghijklmnopqrstuvwxyz,
a,
f
);
copyright = "Copyright (c) 2011, Dan Sayers (i@iotic.com), with Reserved Font Name 'Averia' and 'Averia Libre'.";
customParameters = (
{
name = license;
value = "This Font Software is licensed under the SIL Open Font License, Version 1.1. This license is copied below, and is also available with a FAQ at: http://scripts.sil.org/OFL";
},
{
name = licenseURL;
value = "http://scripts.sil.org/OFL";
},
{
name = vendorID;
value = PfEd;
},
{
name = panose;
value = (
2,
0,
6,
3,
0,
0,
0,
0,
0,
4
);
},
{
name = fsType;
value = (
);
},
{
name = "Disable Last Change";
value = 1;
},
{
name = "Use Line Breaks";
value = 1;
},
{
name = "Use Typo Metrics";
value = 1;
},
{
name = Axes;
value = (
{
Name = Weight;
Tag = wght;
}
);
}
);
date = "2011-11-13 19:02:34 +0000";
designer = "Dan Sayers";
designerURL = iotic.com;
disablesNiceNames = 1;
familyName = "Averia Serif Libre";
fontMaster = (
{
ascender = 1622;
capHeight = 700;
customParameters = (
{
name = typoAscender;
value = 1622;
},
{
name = typoDescender;
value = -426;
},
{
name = typoLineGap;
value = 184;
},
{
name = winAscent;
value = 1823;
},
{
name = winDescent;
value = 465;
},
{
name = hheaAscender;
value = 1823;
},
{
name = hheaDescender;
value = -465;
},
{
name = strikeoutPosition;
value = 530;
},
{
name = strikeoutSize;
value = 102;
},
{
name = "Axis Location";
value = (
{
Axis = Weight;
Location = 300;
}
);
}
);
descender = -426;
id = "92A672BF-229C-4BEC-8D25-4DDBB2A38145";
weight = Light;
weightValue = 300;
widthValue = 5;
xHeight = 500;
},
{
ascender = 1622;
capHeight = 700;
customParameters = (
{
name = typoAscender;
value = 1622;
},
{
name = typoDescender;
value = -426;
},
{
name = typoLineGap;
value = 184;
},
{
name = winAscent;
value = 1833;
},
{
name = winDescent;
value = 466;
},
{
name = hheaAscender;
value = 1833;
},
{
name = hheaDescender;
value = -466;
},
{
name = strikeoutPosition;
value = 530;
},
{
name = strikeoutSize;

glyphs = (
{
color = 11;
glyphname = A;
layers = (
{
layerId = "5CBF0BAD-1756-4F16-9711-93DC239D102B";
paths = (
{
closed = 1;
nodes = (
"503 644 OFFCURVE",
"664 1083 OFFCURVE",
"675.5 1083 CURVE SMOOTH",
"678.833 1083 OFFCURVE",
"848 672 OFFCURVE",
"848 615 CURVE SMOOTH",
"848 591 OFFCURVE",
"810 582 OFFCURVE",
"711 582 CURVE SMOOTH",
"554 582 OFFCURVE",
"503 585 OFFCURVE",
"503 607 CURVE SMOOTH"
);
},
{
closed = 1;
nodes = (
"23 0 OFFCURVE",
"101 -14 OFFCURVE",
"250 -14 CURVE SMOOTH",
"385 -14 OFFCURVE",
"445 0 OFFCURVE",
"445 28 CURVE SMOOTH",
"445 93 OFFCURVE",
"388 154 OFFCURVE",
"388 234 CURVE SMOOTH",
"388 303 OFFCURVE",
"419 351 OFFCURVE",
"472 383 CURVE SMOOTH",
"537 423 OFFCURVE",
"634 438 OFFCURVE",
"745 438 CURVE SMOOTH",
"798 438 OFFCURVE",
"839 432 OFFCURVE",
"870 419 CURVE SMOOTH",
"935 391 OFFCURVE",
"955 329 OFFCURVE",
"955 218 CURVE SMOOTH",
"955 182 OFFCURVE",
"915 70 OFFCURVE",
"915 48 CURVE SMOOTH",
"915 12 OFFCURVE",
"957 -6 OFFCURVE",
"1041 -6 CURVE SMOOTH",
"1225.667 -6 OFFCURVE",
"1423 0 OFFCURVE",
"1423 31 CURVE SMOOTH",
"1423 89 OFFCURVE",
"1326 128 OFFCURVE",
"1286 222 CURVE SMOOTH",
"1241 328 OFFCURVE",
"970 1032 OFFCURVE",
"895 1232 CURVE SMOOTH",
"851 1348 OFFCURVE",
"782 1390 OFFCURVE",
"700 1390 CURVE SMOOTH",
"523 1390 OFFCURVE",
"544 1349 OFFCURVE",
"461 1021 CURVE SMOOTH",
"422 866 OFFCURVE",
"330 620 OFFCURVE",
"194 273 CURVE SMOOTH",
"167 204 OFFCURVE",
"23 110 OFFCURVE",
"23 71 CURVE SMOOTH"
);
}
);
width = 1474;
},
{
layerId = "92A672BF-229C-4BEC-8D25-4DDBB2A38145";
paths = (
{
closed = 1;
nodes = (
"455 622 OFFCURVE",
"646 1154 OFFCURVE",
"660.5 1154 CURVE SMOOTH",
"677 1154 OFFCURVE",
"859 641 OFFCURVE",
"859 591 CURVE SMOOTH",
"859 581.667 OFFCURVE",
"813.667 577 OFFCURVE",
"723 577 CURVE SMOOTH",
"511 577 OFFCURVE",
"455 576 OFFCURVE",
"455 595 CURVE SMOOTH"
);
},
{
closed = 1;
nodes = (
"20 27 OFFCURVE",
"109.667 13 OFFCURVE",
"289 13 CURVE SMOOTH",
"354.333 13 OFFCURVE",
"387 24.667 OFFCURVE",
"387 48 CURVE SMOOTH",
"387 60 OFFCURVE",
"304 130 OFFCURVE",
"304 173 CURVE SMOOTH",
"304 199.667 OFFCURVE",
"318.333 249.833 OFFCURVE",
"347 323.5 CURVE SMOOTH",
"391 436 OFFCURVE",
"561 491 OFFCURVE",
"702 486 CURVE SMOOTH",
"825 484 OFFCURVE",
"877 477 OFFCURVE",
"907 436 CURVE SMOOTH",
"932 401 OFFCURVE",
"1005 224 OFFCURVE",
"1005 173.5 CURVE SMOOTH",
"1005 129.465 OFFCURVE",
"939 72.687 OFFCURVE",
"939 41 CURVE SMOOTH",
"939 17 OFFCURVE",
"997.333 5 OFFCURVE",
"1114 5 CURVE SMOOTH",
"1314 5 OFFCURVE",
"1386 8 OFFCURVE",
"1386 44 CURVE SMOOTH",
"1386 81 OFFCURVE",
"1262 139 OFFCURVE",
"1240 186 CURVE SMOOTH",
"1204 260 OFFCURVE",
"980 867 OFFCURVE",
"925 1028 CURVE SMOOTH",
"870 1189 OFFCURVE",
"793 1391 OFFCURVE",
"703 1391 CURVE SMOOTH",
"576 1391 OFFCURVE",
"562 1218 OFFCURVE",
"495 1028 CURVE SMOOTH",
"474 968 OFFCURVE",
"182 244 OFFCURVE",
"174 223 CURVE SMOOTH",
"166 205 OFFCURVE",
"20 76 OFFCURVE",
"20 53 CURVE SMOOTH"
);
}
);
width = 1436;
}
);
note = uni0041;
unicode = 0041;
},
{
color = 11;
glyphname = B;
layers = (
{
layerId = "92A672BF-229C-4BEC-8D25-4DDBB2A38145";
paths = (
{
closed = 1;
nodes = (
"867 0 OFFCURVE",
"1186 54 OFFCURVE",
"1186 345 CURVE SMOOTH",
"1186 641 OFFCURVE",
"886 718 OFFCURVE",
"886 734 CURVE SMOOTH",
"886 748 OFFCURVE",
"1101 844 OFFCURVE",
"1101 1051 CURVE",
"1101 1310 OFFCURVE",
"857 1390 OFFCURVE",
"549 1388 CURVE SMOOTH",
"160 1385 OFFCURVE",
"95 1385 OFFCURVE",
"95 1346 CURVE SMOOTH",
"95 1301 OFFCURVE",
"213 1292 OFFCURVE",
"229 1233 CURVE SMOOTH",
"246 1170 OFFCURVE",
"251 1020 OFFCURVE",
"251 725 CURVE SMOOTH",
"251 415 OFFCURVE",
"244 245 OFFCURVE",
"233 172 CURVE SMOOTH",
"222 102 OFFCURVE",
"106 64 OFFCURVE",
"106 32 CURVE SMOOTH",
"106 9 OFFCURVE",
"321 0 OFFCURVE",
"435 0 CURVE SMOOTH"
);
},
{
closed = 1;
nodes = (
"473 86 OFFCURVE",
"452 105 OFFCURVE",
"452 248 CURVE SMOOTH",
"452 490 LINE SMOOTH",
"452 644 OFFCURVE",
"485 676 OFFCURVE",
"552 676 CURVE SMOOTH",
"842 676 OFFCURVE",
"983 593 OFFCURVE",
"984 364 CURVE SMOOTH",
"984 167 OFFCURVE",
"860 86 OFFCURVE",
"592 86 CURVE SMOOTH"
);
},
{
closed = 1;
nodes = (
"489 767 OFFCURVE",
"453 787 OFFCURVE",
"453 877 CURVE SMOOTH",
"454 1124 LINE SMOOTH",
"455 1270 OFFCURVE",
"479 1297 OFFCURVE",
"565 1297 CURVE",
"794 1297 OFFCURVE",
"913 1221 OFFCURVE",
"913 1051 CURVE SMOOTH",
"913 864 OFFCURVE",
"780 767 OFFCURVE",
"530 767 CURVE SMOOTH"
);
}
);
width = 1314;
},
{
layerId = "5CBF0BAD-1756-4F16-9711-93DC239D102B";
paths = (
{
closed = 1;
nodes = (
"1072 -9 OFFCURVE",
"1268 99 OFFCURVE",
"1268 414 CURVE SMOOTH",
"1268 660 OFFCURVE",
"994 718 OFFCURVE",
"994 740 CURVE SMOOTH",
"994 770 OFFCURVE",
"1187 815 OFFCURVE",
"1187 1053 CURVE SMOOTH",
"1187 1368 OFFCURVE",
"849 1395 OFFCURVE",
"450 1381 CURVE SMOOTH",
"129 1376 OFFCURVE",
"95 1360 OFFCURVE",
"95 1318.5 CURVE SMOOTH",
"95 1221 OFFCURVE",
"192 1254 OFFCURVE",
"219.5 1140 CURVE SMOOTH",
"228.5 1102.667 OFFCURVE",
"252 917 OFFCURVE",
"252 661 CURVE SMOOTH",
"252 362 OFFCURVE",
"193 211 OFFCURVE",
"160 159 CURVE SMOOTH",
"131 114 OFFCURVE",
"94 94 OFFCURVE",
"94 51 CURVE SMOOTH",
"94 0 OFFCURVE",
"409 -9 OFFCURVE",
"563 -9 CURVE SMOOTH"
);
},
{
closed = 1;
nodes = (
"569 133 OFFCURVE",
"526 143 OFFCURVE",
"526 195 CURVE SMOOTH",
"526 559 LINE SMOOTH",
"526 615 OFFCURVE",
"566 650 OFFCURVE",
"677 650 CURVE SMOOTH",
"874.333 650 OFFCURVE",
"969 539.667 OFFCURVE",
"969 405 CURVE SMOOTH",
"969 240 OFFCURVE",
"835 133 OFFCURVE",
"657 133 CURVE SMOOTH"
);
},
{
closed = 1;
nodes = (
"600 776 OFFCURVE",
"527 775 OFFCURVE",
"527 813 CURVE SMOOTH",
"524 1161 LINE SMOOTH",
"524 1217 OFFCURVE",
"538 1244 OFFCURVE",
"644 1244 CURVE SMOOTH",
"816 1244 OFFCURVE",
"902 1158.333 OFFCURVE",
"902 1037 CURVE SMOOTH",
"900 879 OFFCURVE",
"818 776 OFFCURVE",
"689 776 CURVE SMOOTH"
);
}
);
width = 1338;
}
);
unicode = 0042;
},
{
color = 11;
glyphname = C;
layers = (
{
layerId = "92A672BF-229C-4BEC-8D25-4DDBB2A38145";
paths = (
{
closed = 1;
nodes = (
"893 -15 OFFCURVE",
"1090 29 OFFCURVE",
"1167 77 CURVE SMOOTH",
"1194 94 OFFCURVE",
"1259 219 OFFCURVE",
"1259 269 CURVE SMOOTH",
"1259 294 OFFCURVE",
"1262 313 OFFCURVE",
"1222 314 CURVE SMOOTH",
"1168 315 OFFCURVE",
"1030 100 OFFCURVE",
"809 100 CURVE SMOOTH",
"475 100 OFFCURVE",
"333 357 OFFCURVE",
"333 731 CURVE SMOOTH",
"333 1048 OFFCURVE",
"486 1296 OFFCURVE",
"777 1296 CURVE SMOOTH",
"1057 1296 OFFCURVE",
"1131 1040 OFFCURVE",
"1181 1040 CURVE SMOOTH",
"1220 1040 OFFCURVE",
"1239 1078 OFFCURVE",
"1239 1153 CURVE SMOOTH",
"1239 1258 OFFCURVE",
"1227 1336 OFFCURVE",
"1191 1342 CURVE SMOOTH",
"1102 1357 OFFCURVE",
"842 1404 OFFCURVE",
"760 1404 CURVE SMOOTH",
"364 1404 OFFCURVE",
"106 1095 OFFCURVE",
"106 678 CURVE SMOOTH",
"106 279 OFFCURVE",
"349 -12 OFFCURVE",
"730 -15 CURVE SMOOTH"
);
}
);
width = 1361;
},
{
layerId = "5CBF0BAD-1756-4F16-9711-93DC239D102B";
paths = (
{
closed = 1;
nodes = (
"1251 1246.333 OFFCURVE",
"1228.667 1317 OFFCURVE",
"1184 1343 CURVE SMOOTH",
"1116 1383 OFFCURVE",
"976.667 1403 OFFCURVE",
"766 1403 CURVE SMOOTH",
"378 1403 OFFCURVE",
"83 1102 OFFCURVE",
"83 717 CURVE SMOOTH",
"83 254 OFFCURVE",
"334 -23 OFFCURVE",
"778 -23 CURVE SMOOTH",
"900.667 -23 OFFCURVE",
"1007.333 -2 OFFCURVE",
"1098 40 CURVE SMOOTH",
"1185 80 OFFCURVE",
"1269 181 OFFCURVE",
"1269 264 CURVE SMOOTH",
"1269 294.667 OFFCURVE",
"1252.667 310 OFFCURVE",
"1220 310 CURVE SMOOTH",
"1185 310 OFFCURVE",
"964 143 OFFCURVE",
"828 143 CURVE SMOOTH",
"548 143 OFFCURVE",
"390 389 OFFCURVE",
"390 684 CURVE SMOOTH",
"390 984 OFFCURVE",
"497 1247 OFFCURVE",
"753 1247 CURVE SMOOTH",
"935 1247 OFFCURVE",
"1138 1030 OFFCURVE",
"1192 1030 CURVE SMOOTH",
"1231.333 1030 OFFCURVE",
"1251 1063.667 OFFCURVE",
"1251 1131 CURVE SMOOTH"
);
}
);
width = 1363;
}
);
unicode = 0043;
},
{
color = 11;
glyphname = D;
layers = (
{
layerId = "92A672BF-229C-4BEC-8D25-4DDBB2A38145";
paths = (
{
closed = 1;
nodes = (
"1100 -5 OFFCURVE",
"1388 274 OFFCURVE",
"1388 702.5 CURVE SMOOTH",
"1388 1122 OFFCURVE",
"1134 1395 OFFCURVE",
"722 1395 CURVE SMOOTH",
"173 1382 OFFCURVE",
"111 1379 OFFCURVE",
"111 1335 CURVE SMOOTH",
"111 1302.873 OFFCURVE",
"194.942 1294.588 OFFCURVE",
"226.5 1269 CURVE SMOOTH",
"278 1227 OFFCURVE",
"273 914 OFFCURVE",
"273 656 CURVE SMOOTH",
"273 359.333 OFFCURVE",
"268.333 194.5 OFFCURVE",
"259 161.5 CURVE SMOOTH",
"241 97 OFFCURVE",
"119 83 OFFCURVE",
"119 31 CURVE SMOOTH",
"119 -2 OFFCURVE",
"209 9 OFFCURVE",
"665 -5 CURVE SMOOTH"
);
},
{
closed = 1;
nodes = (
"463.333 95 OFFCURVE",
"461 122.333 OFFCURVE",
"461 273 CURVE SMOOTH",
"464 968 LINE SMOOTH",
"464 1231 OFFCURVE",
"423 1302 OFFCURVE",
"597 1302 CURVE SMOOTH",
"991 1302 OFFCURVE",
"1154 1102 OFFCURVE",
"1154 642 CURVE SMOOTH",
"1154 299 OFFCURVE",
"968 96 OFFCURVE",
"618 95 CURVE SMOOTH"
);
}
);
width = 1513;
},
{
layerId = "5CBF0BAD-1756-4F16-9711-93DC239D102B";
paths = (
{
closed = 1;
nodes = (
"1008 0 OFFCURVE",
"1408 147 OFFCURVE",
"1408 704 CURVE SMOOTH",
"1408 1146 OFFCURVE",
"1129 1392 OFFCURVE",
"606 1392 CURVE SMOOTH",
"377 1392 OFFCURVE",
"93 1403 OFFCURVE",
"93 1322 CURVE SMOOTH",
"93 1255 OFFCURVE",
"196 1249 OFFCURVE",
"221 1189 CURVE SMOOTH",
"243 1139 OFFCURVE",
"242 1094 OFFCURVE",
"236 700 CURVE SMOOTH",
"233 501 OFFCURVE",
"231 258 OFFCURVE",
"222 221 CURVE SMOOTH",
"206 153 OFFCURVE",
"75 103 OFFCURVE",
"75 56 CURVE SMOOTH",
"75 6 OFFCURVE",
"122 -3 OFFCURVE",
"468 -2 CURVE SMOOTH"
);
},
{
closed = 1;
nodes = (
"512.333 135 OFFCURVE",
"499 161 OFFCURVE",
"499 273 CURVE SMOOTH",
"504 1093 LINE SMOOTH",
"504 1204 OFFCURVE",
"533 1250 OFFCURVE",
"649 1249 CURVE SMOOTH",
"961 1246 OFFCURVE",
"1077 994 OFFCURVE",
"1077 650 CURVE SMOOTH",
"1077 327 OFFCURVE",
"920 135 OFFCURVE",
"627 135 CURVE SMOOTH"
);
}
);
width = 1499;
}
);
unicode = 0044;
},
{
color = 11;
glyphname = E;
layers = (
{
layerId = "92A672BF-229C-4BEC-8D25-4DDBB2A38145";
paths = (
{
closed = 1;
nodes = (
"938 -2 OFFCURVE",
"1065 1 OFFCURVE",
"1096 21 CURVE SMOOTH",
"1145.333 53 OFFCURVE",
"1170 99 OFFCURVE",
"1170 218 CURVE SMOOTH",
"1170 240 OFFCURVE",
"1158 280 OFFCURVE",
"1145 280 CURVE SMOOTH",
"1117 280 OFFCURVE",
"999.54 168.733 OFFCURVE",
"951.5 150 CURVE SMOOTH",
"897 129 OFFCURVE",
"792 116 OFFCURVE",
"699 119 CURVE SMOOTH",
"504 124 OFFCURVE",
"471 186 OFFCURVE",
"471 398.5 CURVE SMOOTH",
"471 568 OFFCURVE",
"480 659 OFFCURVE",
"631 659 CURVE SMOOTH",
"716 659 OFFCURVE",
"818 561 OFFCURVE",
"849 561 CURVE SMOOTH",
"886 561 OFFCURVE",
"937 609 OFFCURVE",
"937 703 CURVE SMOOTH",
"937 780 OFFCURVE",
"921 869 OFFCURVE",
"869 869 CURVE SMOOTH",
"853.667 869 OFFCURVE",
"726 781 OFFCURVE",
"694 782 CURVE SMOOTH",
"560 786 OFFCURVE",
"487 824 OFFCURVE",
"487 940 CURVE SMOOTH",
"487 1144 OFFCURVE",
"540 1273 OFFCURVE",
"656 1273 CURVE SMOOTH",
"766 1273 OFFCURVE",
"899 1273 OFFCURVE",
"956 1235 CURVE SMOOTH",
"983 1217 OFFCURVE",
"1029 1143 OFFCURVE",
"1052 1142 CURVE SMOOTH",
"1102 1140 OFFCURVE",
"1117 1158.333 OFFCURVE",
"1117 1191 CURVE SMOOTH",
"1117 1375 OFFCURVE",
"1071 1395 OFFCURVE",
"640 1394 CURVE SMOOTH",
"339 1394 OFFCURVE",
"128 1405 OFFCURVE",
"128 1353 CURVE SMOOTH",
"128 1273 OFFCURVE",
"235 1286 OFFCURVE",
"247 1235.5 CURVE SMOOTH",
"264 1163 OFFCURVE",
"259 1030 OFFCURVE",
"255 710 CURVE SMOOTH",
"252 446 OFFCURVE",
"247 218.333 OFFCURVE",
"231 171 CURVE SMOOTH",
"215.241 123.723 OFFCURVE",
"122 74.278 OFFCURVE",
"122 39.5 CURVE SMOOTH",
"122 -12 OFFCURVE",
"317 -2 OFFCURVE",
"590 -2 CURVE SMOOTH"
);
}
);
width = 1272;
},
{
layerId = "5CBF0BAD-1756-4F16-9711-93DC239D102B";
paths = (
{
closed = 1;
nodes = (
"840 -1 OFFCURVE",
"1041 22 OFFCURVE",
"1131 78 CURVE SMOOTH",
"1185 112 OFFCURVE",
"1199 158 OFFCURVE",
"1199 219 CURVE SMOOTH",
"1199 273 OFFCURVE",
"1184.667 300 OFFCURVE",
"1156 300 CURVE SMOOTH",
"1095 300 OFFCURVE",
"1030 273 OFFCURVE",
"964 244 CURVE SMOOTH",
"879 205 OFFCURVE",
"793 161 OFFCURVE",
"714 161 CURVE SMOOTH",
"566 161 OFFCURVE",
"526 243 OFFCURVE",
"525 413.5 CURVE SMOOTH",
"524 561 OFFCURVE",
"552 626 OFFCURVE",
"697 626 CURVE SMOOTH",
"779 626 OFFCURVE",
"807 540 OFFCURVE",
"904 540 CURVE SMOOTH",
"976 540 OFFCURVE",
"964 603 OFFCURVE",
"964 741 CURVE SMOOTH",
"964 815.667 OFFCURVE",
"945 878 OFFCURVE",
"904 878 CURVE SMOOTH",
"884 878 OFFCURVE",
"753 801 OFFCURVE",
"697 804 CURVE SMOOTH",
"590 809 OFFCURVE",
"522 858 OFFCURVE",
"522 975 CURVE SMOOTH",
"522 1126 OFFCURVE",
"584 1232 OFFCURVE",
"689 1232 CURVE SMOOTH",
"762 1232 OFFCURVE",
"846 1180 OFFCURVE",
"932 1142 CURVE SMOOTH",
"979 1121 OFFCURVE",
"1027 1105 OFFCURVE",
"1072 1105 CURVE SMOOTH",
"1120 1105 OFFCURVE",
"1149 1123.667 OFFCURVE",
"1149 1213 CURVE SMOOTH",
"1149 1395 OFFCURVE",
"1079 1390 OFFCURVE",
"637 1389 CURVE SMOOTH",
"298 1389 OFFCURVE",
"92 1405 OFFCURVE",
"92 1347 CURVE SMOOTH",
"92 1274 OFFCURVE",
"203 1212 OFFCURVE",
"218 1151 CURVE SMOOTH",
"227.333 1113.667 OFFCURVE",
"232 955 OFFCURVE",
"232 675 CURVE SMOOTH",
"232 395 OFFCURVE",
"222 243 OFFCURVE",
"221.5 215.5 CURVE SMOOTH",
"220 164 OFFCURVE",
"86 107 OFFCURVE",
"88 42 CURVE SMOOTH",
"89 14 OFFCURVE",
"297 0 OFFCURVE",
"408 0 CURVE SMOOTH"
);
}
);
width = 1278;
}
);
note = uni0045;
unicode = 0045;
},
{
color = 11;
glyphname = F;
layers = (
{
layerId = "92A672BF-229C-4BEC-8D25-4DDBB2A38145";
paths = (
{
closed = 1;
nodes = (
"525 -6 OFFCURVE",
"595 16 OFFCURVE",
"595 50 CURVE SMOOTH",
"595 81 OFFCURVE",
"517 140 OFFCURVE",
"506 182 CURVE SMOOTH",
"492 234.667 OFFCURVE",
"478 349 OFFCURVE",
"480 449 CURVE SMOOTH",
"483 610 OFFCURVE",
"525 614 OFFCURVE",
"676 614 CURVE SMOOTH",
"725 614 OFFCURVE",
"837 553 OFFCURVE",
"856 553 CURVE SMOOTH",
"904 553 OFFCURVE",
"930 615.333 OFFCURVE",
"930 698 CURVE SMOOTH",
"930 801.333 OFFCURVE",
"911.333 853 OFFCURVE",
"874 853 CURVE SMOOTH",
"843 853 OFFCURVE",
"736 770 OFFCURVE",
"672 770 CURVE SMOOTH",
"512 770 OFFCURVE",
"480 807.167 OFFCURVE",
"480 998.5 CURVE SMOOTH",
"480 1189.833 OFFCURVE",
"509.333 1284 OFFCURVE",
"712 1284 CURVE SMOOTH",
"867.333 1284 OFFCURVE",
"939 1269 OFFCURVE",
"1007 1203 CURVE SMOOTH",
"1033 1178 OFFCURVE",
"1064 1116 OFFCURVE",
"1088 1116 CURVE SMOOTH",
"1113.333 1116 OFFCURVE",
"1126 1138 OFFCURVE",
"1126 1182 CURVE SMOOTH",
"1126 1362 OFFCURVE",
"1050 1399 OFFCURVE",
"939 1399 CURVE SMOOTH",
"208 1391 OFFCURVE",
"119 1391 OFFCURVE",
"119 1358 CURVE SMOOTH",
"119 1323 OFFCURVE",
"222 1283 OFFCURVE",
"239 1237 CURVE SMOOTH",
"254.333 1194.333 OFFCURVE",
"262 1090.333 OFFCURVE",
"262 925 CURVE SMOOTH",
"254 331 OFFCURVE",
"246 199 OFFCURVE",
"242.5 175 CURVE SMOOTH",
"237 140 OFFCURVE",
"128 94 OFFCURVE",
"130 63 CURVE SMOOTH",
"135 -2 OFFCURVE",
"254 -6 OFFCURVE",
"373 -6 CURVE SMOOTH"
);
}
);
width = 1194;
},
{
layerId = "5CBF0BAD-1756-4F16-9711-93DC239D102B";
paths = (
{
closed = 1;
nodes = (
"584 -12 OFFCURVE",
"630 -6 OFFCURVE",
"630 43 CURVE SMOOTH",
"630 94 OFFCURVE",
"589 133 OFFCURVE",
"568 204 CURVE SMOOTH",
"549 266 OFFCURVE",
"533 353 OFFCURVE",
"532 424 CURVE SMOOTH",
"532 541 OFFCURVE",
"574 581 OFFCURVE",
"702 581 CURVE SMOOTH",
"767.315 581 OFFCURVE",
"790 530 OFFCURVE",
"876 530 CURVE SMOOTH",
"926 530 OFFCURVE",
"936 622.667 OFFCURVE",
"936 686 CURVE SMOOTH",
"936 801.333 OFFCURVE",
"910 864 OFFCURVE",
"859 859 CURVE SMOOTH",
"803 854 OFFCURVE",
"713 782 OFFCURVE",
"672 782 CURVE SMOOTH",
"576 782 OFFCURVE",
"528 852.667 OFFCURVE",
"528 994 CURVE SMOOTH",
"528 1137 OFFCURVE",
"579 1232 OFFCURVE",
"700 1232 CURVE SMOOTH",
"768.667 1232 OFFCURVE",
"848.333 1209.333 OFFCURVE",
"939 1164 CURVE SMOOTH",
"1029.667 1118.667 OFFCURVE",
"1076.667 1096 OFFCURVE",
"1080 1096 CURVE SMOOTH",
"1118 1096 OFFCURVE",
"1137 1124 OFFCURVE",
"1137 1179 CURVE SMOOTH",
"1137 1365 OFFCURVE",
"1130 1392 OFFCURVE",
"595 1390 CURVE SMOOTH",
"363 1390 OFFCURVE",
"92 1419 OFFCURVE",
"92 1309 CURVE SMOOTH",
"92 1261 OFFCURVE",
"208 1179 OFFCURVE",
"222.5 1105 CURVE SMOOTH",
"229 1069 OFFCURVE",
"233 912 OFFCURVE",
"234 634 CURVE SMOOTH",
"234 517 OFFCURVE",
"233 378 OFFCURVE",
"233 218 CURVE SMOOTH",
"233 168 OFFCURVE",
"97 98.152 OFFCURVE",
"97 61 CURVE SMOOTH",
"97 -16 OFFCURVE",
"274 -11 OFFCURVE",
"457 -11 CURVE SMOOTH"
);
}
);
width = 1194;
}
);
note = uni0046;
unicode = 0046;
},
{
color = 11;
glyphname = G;
layers = (
{
layerId = "92A672BF-229C-4BEC-8D25-4DDBB2A38145";
paths = (
{
closed = 1;
nodes = (
"952 -23 OFFCURVE",
"1267 29 OFFCURVE",
"1267 190 CURVE SMOOTH",
"1267 277 OFFCURVE",
"1281 396 OFFCURVE",
"1291 455 CURVE SMOOTH",
"1295 477 OFFCURVE",
"1350 532 OFFCURVE",
"1350 576 CURVE SMOOTH",
"1350 608 OFFCURVE",
"1285 625 OFFCURVE",
"1155 625 CURVE SMOOTH",
"1025 625 OFFCURVE",
"960 612 OFFCURVE",
"960 585 CURVE SMOOTH",
"960 537 OFFCURVE",
"1084 489 OFFCURVE",
"1084 401 CURVE SMOOTH",
"1084 170 OFFCURVE",
"1012 102 OFFCURVE",
"841 102 CURVE SMOOTH",
"503 102 OFFCURVE",
"330 340 OFFCURVE",
"330 683 CURVE SMOOTH",
"330 1008 OFFCURVE",
"482 1298 OFFCURVE",
"769 1298 CURVE SMOOTH",
"946 1298 OFFCURVE",
"1044 1263 OFFCURVE",
"1136 1129 CURVE SMOOTH",
"1173 1076 OFFCURVE",
"1211 1049 OFFCURVE",
"1229 1049 CURVE SMOOTH",
"1273 1049 OFFCURVE",
"1276 1089 OFFCURVE",
"1276 1168 CURVE SMOOTH",
"1276 1271 OFFCURVE",
"1259 1347 OFFCURVE",
"1212 1349 CURVE SMOOTH",
"1108 1353 OFFCURVE",
"896 1401 OFFCURVE",
"800 1401 CURVE SMOOTH",
"400 1401 OFFCURVE",
"109 1117 OFFCURVE",
"109 711 CURVE SMOOTH",
"109 279 OFFCURVE",
"351 -20 OFFCURVE",
"768 -23 CURVE SMOOTH"
);
}
);
width = 1471;
},
{
layerId = "5CBF0BAD-1756-4F16-9711-93DC239D102B";
paths = (
{
closed = 1;
nodes = (
"1035 -17 OFFCURVE",
"1271 28 OFFCURVE",
"1298 222 CURVE SMOOTH",
"1305.397 281.175 OFFCURVE",
"1311.853 386.119 OFFCURVE",
"1324 459 CURVE SMOOTH",
"1330.983 500.898 OFFCURVE",
"1377 544.854 OFFCURVE",
"1377 586 CURVE SMOOTH",
"1377 658 OFFCURVE",
"1240 662 OFFCURVE",
"1103 662 CURVE SMOOTH",
"978.333 662 OFFCURVE",
"916 642.333 OFFCURVE",
"916 603 CURVE SMOOTH",
"916 565 OFFCURVE",
"1008 451 OFFCURVE",
"1008 358 CURVE SMOOTH",
"1008 219.333 OFFCURVE",
"939 149.667 OFFCURVE",
"801 149 CURVE SMOOTH",
"569 149 OFFCURVE",
"389 371.333 OFFCURVE",
"389 706 CURVE SMOOTH",
"389 992 OFFCURVE",
"520 1234 OFFCURVE",
"775 1237 CURVE SMOOTH",
"897.667 1237 OFFCURVE",
"944.333 1215 OFFCURVE",
"1083 1111 CURVE SMOOTH",
"1152.333 1059 OFFCURVE",
"1196.333 1033 OFFCURVE",
"1215 1033 CURVE SMOOTH",
"1255 1033 OFFCURVE",
"1275 1084 OFFCURVE",
"1275 1186 CURVE SMOOTH",
"1275 1334 OFFCURVE",
"1190.833 1384 OFFCURVE",
"1059.5 1384 CURVE SMOOTH",
"974.799 1384 OFFCURVE",
"824.089 1402 OFFCURVE",
"785 1402 CURVE SMOOTH",
"381 1402 OFFCURVE",
"82 1107 OFFCURVE",
"82 708 CURVE SMOOTH",
"82 275 OFFCURVE",
"327 -17 OFFCURVE",
"744 -17 CURVE SMOOTH"
);
}
);
width = 1457;
}
);
note = uni0047;
unicode = 0047;
},
{
color = 11;
glyphname = H;
layers = (
{
layerId = "92A672BF-229C-4BEC-8D25-4DDBB2A38145";
paths = (
{
closed = 1;
nodes = (
"502 -6 OFFCURVE",
"577 0 OFFCURVE",
"577 25 CURVE SMOOTH",
"577 43.843 OFFCURVE",
"503.408 114.417 OFFCURVE",
"491 146 CURVE SMOOTH",
"481 170 OFFCURVE",
"479 312 OFFCURVE",
"484 437 CURVE SMOOTH",
"488 532 OFFCURVE",
"496 616 OFFCURVE",
"510 631 CURVE SMOOTH",
"529 651 OFFCURVE",
"643.333 667 OFFCURVE",
"808 667 CURVE SMOOTH",
"972.667 667 OFFCURVE",
"1070 657.5 OFFCURVE",
"1100 638.5 CURVE SMOOTH",
"1130 619.5 OFFCURVE",
"1145 540.667 OFFCURVE",
"1145 402 CURVE SMOOTH",
"1145 263 OFFCURVE",
"1126 156 OFFCURVE",
"1109 131 CURVE SMOOTH",
"1097 114 OFFCURVE",
"1046 55 OFFCURVE",
"1046 38 CURVE SMOOTH",
"1046 10.667 OFFCURVE",
"1120.667 -3 OFFCURVE",
"1270 -3 CURVE SMOOTH",
"1419.333 -3 OFFCURVE",
"1494 11.333 OFFCURVE",
"1494 40 CURVE SMOOTH",
"1494 67 OFFCURVE",
"1408 97 OFFCURVE",
"1387 127 CURVE SMOOTH",
"1346 183 OFFCURVE",
"1356 253 OFFCURVE",
"1363 842 CURVE SMOOTH",
"1363 1072.667 OFFCURVE",
"1366.333 1198.333 OFFCURVE",
"1373 1219 CURVE SMOOTH",
"1389 1270 OFFCURVE",
"1500 1296 OFFCURVE",
"1500 1345 CURVE SMOOTH",
"1500 1371.667 OFFCURVE",
"1453.667 1385 OFFCURVE",
"1361 1385 CURVE SMOOTH",
"1141 1385 OFFCURVE",
"1031 1372.667 OFFCURVE",
"1031 1348 CURVE SMOOTH",
"1031 1329 OFFCURVE",
"1046 1316 OFFCURVE",
"1104 1258 CURVE SMOOTH",
"1141 1209 OFFCURVE",
"1138 1146 OFFCURVE",
"1135 1054 CURVE SMOOTH",
"1132 880 OFFCURVE",
"1126 823 OFFCURVE",
"1098.5 803 CURVE SMOOTH",
"1076.167 787 OFFCURVE",
"914 779 OFFCURVE",
"768 779 CURVE SMOOTH",
"661 779 OFFCURVE",
"544 793 OFFCURVE",
"519.5 806 CURVE SMOOTH",
"505 814 OFFCURVE",
"497 917 OFFCURVE",
"492 1021 CURVE SMOOTH",
"488 1106 OFFCURVE",
"486 1192 OFFCURVE",
"486 1227 CURVE SMOOTH",
"486 1279 OFFCURVE",
"578 1303 OFFCURVE",
"578 1351 CURVE SMOOTH",
"578 1375 OFFCURVE",
"521.333 1387 OFFCURVE",
"408 1387 CURVE SMOOTH",
"212.667 1387 OFFCURVE",
"115 1372 OFFCURVE",
"115 1346 CURVE SMOOTH",
"115 1316 OFFCURVE",
"239 1257 OFFCURVE",
"249.5 1193.5 CURVE SMOOTH",
"257 1147 OFFCURVE",
"263 974.333 OFFCURVE",
"263 675 CURVE SMOOTH",
"263 375.667 OFFCURVE",
"255 211 OFFCURVE",
"248 178.5 CURVE SMOOTH",
"238 131 OFFCURVE",
"112 91 OFFCURVE",
"112 45 CURVE SMOOTH",
"112 7 OFFCURVE",
"179 -5 OFFCURVE",
"340 -5 CURVE SMOOTH"
);
}
);
width = 1608;
},
{
layerId = "5CBF0BAD-1756-4F16-9711-93DC239D102B";
paths = (
{
closed = 1;
nodes = (
"546 0 OFFCURVE",
"661 5 OFFCURVE",
"661 59 CURVE SMOOTH",
"661 118 OFFCURVE",
"612 111 OFFCURVE",
"587.5 142 CURVE SMOOTH",
"531 214 OFFCURVE",
"512 261.333 OFFCURVE",
"512 440 CURVE SMOOTH",
"512 529.333 OFFCURVE",
"517.667 583.333 OFFCURVE",
"529 602 CURVE SMOOTH",
"545.667 628.667 OFFCURVE",
"710 642 OFFCURVE",
"794 642 CURVE SMOOTH",
"949 642 OFFCURVE",
"1030.167 632.167 OFFCURVE",
"1054.5 612.5 CURVE SMOOTH",
"1078.833 592.833 OFFCURVE",
"1091 542.333 OFFCURVE",
"1091 461 CURVE SMOOTH",
"1091 362 OFFCURVE",
"1079 180 OFFCURVE",
"1048 149 CURVE SMOOTH",
"1017 118 OFFCURVE",
"980 91 OFFCURVE",
"980 48 CURVE SMOOTH",
"980 -10 OFFCURVE",
"1050 -8 OFFCURVE",
"1283 -9 CURVE SMOOTH",
"1378 -9 OFFCURVE",
"1509 5.667 OFFCURVE",
"1509 35 CURVE SMOOTH",
"1509 119 OFFCURVE",
"1427 103 OFFCURVE",
"1395 163 CURVE SMOOTH",
"1367 213 OFFCURVE",
"1372 301 OFFCURVE",
"1376 776 CURVE SMOOTH",
"1376 998.667 OFFCURVE",
"1382 1125.667 OFFCURVE",
"1394 1157 CURVE SMOOTH",
"1408 1191 OFFCURVE",
"1507 1262 OFFCURVE",
"1507 1295 CURVE SMOOTH",
"1507 1389 OFFCURVE",
"1409 1380 OFFCURVE",
"1241 1380 CURVE SMOOTH",
"1110 1380 OFFCURVE",
"966 1383 OFFCURVE",
"966 1316 CURVE SMOOTH",
"966 1310.302 OFFCURVE",
"1052.482 1161.082 OFFCURVE",
"1060.5 1131.5 CURVE SMOOTH",
"1070.167 1095.833 OFFCURVE",
"1075 1038.167 OFFCURVE",
"1075 958.5 CURVE SMOOTH",
"1075 889 OFFCURVE",
"1076 850 OFFCURVE",
"1054 827 CURVE SMOOTH",
"1026 798 OFFCURVE",
"959 797 OFFCURVE",
"799.5 797 CURVE SMOOTH",
"658.5 797 OFFCURVE",
"580.667 802.667 OFFCURVE",
"566 814 CURVE SMOOTH",
"541.333 833.333 OFFCURVE",
"525 979 OFFCURVE",
"525 1031 CURVE SMOOTH",
"525 1102 OFFCURVE",
"540 1142.167 OFFCURVE",
"588 1241.5 CURVE SMOOTH",
"612 1291.167 OFFCURVE",
"624 1324 OFFCURVE",
"624 1340 CURVE SMOOTH",
"624 1374 OFFCURVE",
"488 1391 OFFCURVE",
"387 1391 CURVE SMOOTH",
"160 1391 OFFCURVE",
"81 1370 OFFCURVE",
"81 1341 CURVE SMOOTH",
"81 1245 OFFCURVE",
"193 1243 OFFCURVE",
"210.5 1172.5 CURVE SMOOTH",
"218 1143 OFFCURVE",
"224 985.5 OFFCURVE",
"224 698.5 CURVE SMOOTH",
"224 411.5 OFFCURVE",
"223 291 OFFCURVE",
"212 225 CURVE SMOOTH",
"204 180 OFFCURVE",
"99 119 OFFCURVE",
"99 81 CURVE SMOOTH",
"99 19 OFFCURVE",
"254 0 OFFCURVE",
"331 0 CURVE SMOOTH"
);
}
);
width = 1601;
}
);
note = uni0048;
unicode = 0048;
},
{
color = 11;
glyphname = I;
layers = (
{
layerId = "92A672BF-229C-4BEC-8D25-4DDBB2A38145";
paths = (
{
closed = 1;
nodes = (
"498 1 OFFCURVE",
"645 -15 OFFCURVE",
"645 38 CURVE SMOOTH",
"645 78 OFFCURVE",
"555 104 OFFCURVE",
"526 142 CURVE SMOOTH",
"506 168 OFFCURVE",
"484 293 OFFCURVE",
"494 700 CURVE SMOOTH",
"503 1052 OFFCURVE",
"498 1202 OFFCURVE",
"510 1238 CURVE SMOOTH",
"526 1286 OFFCURVE",
"633 1301 OFFCURVE",
"633 1337 CURVE SMOOTH",
"633 1379 OFFCURVE",
"581 1388 OFFCURVE",
"379 1387 CURVE SMOOTH",
"276 1386 OFFCURVE",
"112 1373.667 OFFCURVE",
"112 1347 CURVE SMOOTH",
"112 1330.333 OFFCURVE",
"192 1297 OFFCURVE",
"230 1257 CURVE SMOOTH",
"283 1202 OFFCURVE",
"295 977 OFFCURVE",
"283 703 CURVE SMOOTH",
"283 357 OFFCURVE",
"267 204 OFFCURVE",
"248 151 CURVE SMOOTH",
"230 100 OFFCURVE",
"117 79 OFFCURVE",
"117 34 CURVE SMOOTH",
"117 4 OFFCURVE",
"189 -1 OFFCURVE",
"379 1 CURVE SMOOTH"
);
}
);
width = 756;
},
{
layerId = "5CBF0BAD-1756-4F16-9711-93DC239D102B";
paths = (
{
closed = 1;
nodes = (
"569 0 OFFCURVE",
"680 11 OFFCURVE",
"680 64 CURVE SMOOTH",
"680 121 OFFCURVE",
"575 160 OFFCURVE",
"558 228 CURVE SMOOTH",
"550.667 258 OFFCURVE",
"547 427 OFFCURVE",
"547 700 CURVE SMOOTH",
"547 973 OFFCURVE",
"544 1162 OFFCURVE",
"615 1248 CURVE SMOOTH",
"643 1282 OFFCURVE",
"689 1316.667 OFFCURVE",
"689 1334 CURVE SMOOTH",
"689 1405 OFFCURVE",
"582 1394 OFFCURVE",
"421 1394 CURVE SMOOTH",
"225 1394 OFFCURVE",
"92 1377 OFFCURVE",
"92 1342 CURVE SMOOTH",
"92 1318 OFFCURVE",
"122.333 1284.667 OFFCURVE",
"183 1242 CURVE SMOOTH",
"284 1171 OFFCURVE",
"259 1002 OFFCURVE",
"259 704.5 CURVE SMOOTH",
"259 437.5 OFFCURVE",
"254 284.667 OFFCURVE",
"244 246 CURVE SMOOTH",
"234 207.333 OFFCURVE",
"133 151 OFFCURVE",
"133 96 CURVE SMOOTH",
"133 44 OFFCURVE",
"205 0 OFFCURVE",
"405 0 CURVE SMOOTH"
);
}
);
width = 791;
}
);
note = uni0049;
unicode = 0049;
},
{
color = 11;
glyphname = J;
layers = (
{
layerId = "92A672BF-229C-4BEC-8D25-4DDBB2A38145";
paths = (
{
closed = 1;
nodes = (
"485 -236 OFFCURVE",
"577 145 OFFCURVE",
"577 551 CURVE SMOOTH",
"582 1099 OFFCURVE",
"584 1211 OFFCURVE",
"591 1232 CURVE SMOOTH",
"602 1263 OFFCURVE",
"699 1300 OFFCURVE",
"699 1338 CURVE SMOOTH",
"699 1378 OFFCURVE",
"664 1393 OFFCURVE",
"601 1393 CURVE SMOOTH",
"343.667 1393 OFFCURVE",
"215 1378 OFFCURVE",
"215 1348 CURVE SMOOTH",
"215 1309 OFFCURVE",
"321 1273 OFFCURVE",
"341 1226 CURVE SMOOTH",
"364 1172 OFFCURVE",
"368 1062 OFFCURVE",
"374 654 CURVE SMOOTH",
"374 78 OFFCURVE",
"350 -76 OFFCURVE",
"119 -61 CURVE SMOOTH",
"39 -61 OFFCURVE",
"-10 -103.333 OFFCURVE",
"-10 -158 CURVE SMOOTH",
"-10 -210 OFFCURVE",
"44.667 -236 OFFCURVE",
"154 -236 CURVE SMOOTH"
);
}
);
width = 811;
},
{
layerId = "5CBF0BAD-1756-4F16-9711-93DC239D102B";
paths = (
{
closed = 1;
nodes = (
"612 -244 OFFCURVE",
"658 262 OFFCURVE",
"661 844 CURVE SMOOTH",
"661 968 OFFCURVE",
"670 1056 OFFCURVE",
"674 1110.5 CURVE SMOOTH",
"678 1171 OFFCURVE",
"765 1312 OFFCURVE",
"765 1347 CURVE SMOOTH",
"765 1377 OFFCURVE",
"715 1394 OFFCURVE",
"615 1394 CURVE SMOOTH",
"450 1394 OFFCURVE",
"205 1390 OFFCURVE",
"205 1333 CURVE SMOOTH",
"205 1302 OFFCURVE",
"334 1181 OFFCURVE",
"344 1157 CURVE SMOOTH",
"390 1048 OFFCURVE",
"372 976 OFFCURVE",
"352 404 CURVE SMOOTH",
"352 171 OFFCURVE",
"326 27 OFFCURVE",
"162 1 CURVE SMOOTH",
"61.333 -15 OFFCURVE",
"11 -58.667 OFFCURVE",
"11 -130 CURVE SMOOTH",
"11 -217 OFFCURVE",
"61 -244 OFFCURVE",
"192 -244 CURVE SMOOTH"
);
}
);
width = 859;
}
);
note = uni004A;
unicode = 004A;
},
{
color = 11;
glyphname = K;
layers = (
{
layerId = "92A672BF-229C-4BEC-8D25-4DDBB2A38145";
paths = (
{
closed = 1;
nodes = (
"482 559.667 OFFCURVE",
"511 635 OFFCURVE",
"569 635 CURVE SMOOTH",
"627 635 OFFCURVE",
"733 516.333 OFFCURVE",
"887 279 CURVE SMOOTH",
"897 263 OFFCURVE",
"1022 40 OFFCURVE",
"1019 43 CURVE SMOOTH",
"1056 6 OFFCURVE",
"1096 -1 OFFCURVE",
"1196 -1 CURVE SMOOTH",
"1315.333 -1 OFFCURVE",
"1375 13.667 OFFCURVE",
"1375 43 CURVE SMOOTH",
"1375 69 OFFCURVE",
"1292 88 OFFCURVE",
"1140 278 CURVE SMOOTH",
"901 577 OFFCURVE",
"785 743 OFFCURVE",
"785 777 CURVE SMOOTH",
"785 819 OFFCURVE",
"847 907 OFFCURVE",
"939 1001 CURVE SMOOTH",
"1088 1154 OFFCURVE",
"1294 1326 OFFCURVE",
"1294 1358 CURVE SMOOTH",
"1294 1387 OFFCURVE",
"1239 1396 OFFCURVE",
"1125 1396 CURVE SMOOTH",
"985 1396 OFFCURVE",
"956 1361 OFFCURVE",
"956 1341 CURVE SMOOTH",
"956 1314 OFFCURVE",
"956 1282 OFFCURVE",
"947 1245 CURVE SMOOTH",
"937 1203 OFFCURVE",
"917 1154 OFFCURVE",
"873 1098 CURVE SMOOTH",
"794 996 OFFCURVE",
"587 768 OFFCURVE",
"537 768 CURVE SMOOTH",
"505.667 768 OFFCURVE",
"490 798 OFFCURVE",
"490 858 CURVE SMOOTH",
"490 1032 OFFCURVE",
"491 1128 OFFCURVE",
"500 1175 CURVE SMOOTH",
"516 1262 OFFCURVE",
"574 1319 OFFCURVE",
"574 1349 CURVE SMOOTH",
"574 1380 OFFCURVE",
"532 1396 OFFCURVE",
"448 1396 CURVE SMOOTH",
"196 1396 OFFCURVE",
"122 1387 OFFCURVE",
"122 1344 CURVE SMOOTH",
"122 1306 OFFCURVE",
"241 1214 OFFCURVE",
"247.5 1181.5 CURVE SMOOTH",
"256.5 1134.5 OFFCURVE",
"261 972.333 OFFCURVE",
"261 695 CURVE SMOOTH",
"261 417.667 OFFCURVE",
"255.667 254.667 OFFCURVE",
"245 206 CURVE SMOOTH",
"234.333 157.333 OFFCURVE",
"122 88 OFFCURVE",
"122 37 CURVE SMOOTH",
"122 14 OFFCURVE",
"178.333 0 OFFCURVE",
"291 0 CURVE SMOOTH",
"483 0 OFFCURVE",
"579 17 OFFCURVE",
"579 43 CURVE SMOOTH",
"579 74 OFFCURVE",
"500 157 OFFCURVE",
"493 197.5 CURVE SMOOTH",
"487 234 OFFCURVE",
"482 304.333 OFFCURVE",
"482 409 CURVE SMOOTH"
);
}
);
width = 1442;
},
{
layerId = "5CBF0BAD-1756-4F16-9711-93DC239D102B";
paths = (
{
closed = 1;
nodes = (
"101 1283 OFFCURVE",
"201 1208 OFFCURVE",
"217.5 1139 CURVE SMOOTH",
"225.833 1103.667 OFFCURVE",
"230 956.333 OFFCURVE",
"230 697 CURVE SMOOTH",
"230 437.667 OFFCURVE",
"226.333 288.5 OFFCURVE",
"219 249.5 CURVE SMOOTH",
"214 223 OFFCURVE",
"105 102 OFFCURVE",
"105 61 CURVE SMOOTH",
"105 18 OFFCURVE",
"199 1 OFFCURVE",
"290 1 CURVE SMOOTH",
"465 1 OFFCURVE",
"630 0 OFFCURVE",
"629 74 CURVE SMOOTH",
"629 112 OFFCURVE",
"587 173 OFFCURVE",
"563 205 CURVE SMOOTH",
"531 248 OFFCURVE",
"513 344 OFFCURVE",
"513 400 CURVE SMOOTH",
"513 514 OFFCURVE",
"533 588 OFFCURVE",
"595 588 CURVE SMOOTH",
"688.333 588 OFFCURVE",
"819.667 395.333 OFFCURVE",
"901 222 CURVE SMOOTH",
"941.667 135.333 OFFCURVE",
"968.667 84 OFFCURVE",
"982 68 CURVE SMOOTH",
"1020 21.333 OFFCURVE",
"1064 -2 OFFCURVE",
"1114 -2 CURVE SMOOTH",
"1272 -2 OFFCURVE",
"1427 -6 OFFCURVE",
"1427 60 CURVE SMOOTH",
"1427 84 OFFCURVE",
"1374.667 113.667 OFFCURVE",
"1270 215 CURVE SMOOTH",
"1207.333 275 OFFCURVE",
"835 744 OFFCURVE",
"835 773 CURVE SMOOTH",
"835 809.667 OFFCURVE",
"860 854.667 OFFCURVE",
"910 908 CURVE SMOOTH",
"1038 1045 OFFCURVE",
"1369 1298 OFFCURVE",
"1369 1334 CURVE SMOOTH",
"1369 1384 OFFCURVE",
"1298 1405 OFFCURVE",
"1214 1411 CURVE SMOOTH",
"1103 1417 OFFCURVE",
"921 1411 OFFCURVE",
"921 1340 CURVE SMOOTH",
"921 1308 OFFCURVE",
"955 1256 OFFCURVE",
"955 1225 CURVE SMOOTH",
"955 1191.667 OFFCURVE",
"907.333 1124.333 OFFCURVE",
"812 1023 CURVE SMOOTH",
"656.667 857.667 OFFCURVE",
"563 775 OFFCURVE",
"531 775 CURVE SMOOTH",
"512 775 OFFCURVE",
"510 871 OFFCURVE",
"513 967 CURVE SMOOTH",
"515 1023 OFFCURVE",
"522 1132 OFFCURVE",
"526 1162 CURVE SMOOTH",
"533 1211 OFFCURVE",
"629 1298 OFFCURVE",
"629 1340 CURVE SMOOTH",
"629 1380 OFFCURVE",
"540 1400 OFFCURVE",
"463 1402 CURVE SMOOTH",
"189 1409 OFFCURVE",
"101 1375 OFFCURVE",
"101 1333 CURVE SMOOTH"
);
}
);
width = 1488;
}
);
note = uni004B;
unicode = 004B;
},
{
color = 11;
glyphname = L;
layers = (
{
layerId = "92A672BF-229C-4BEC-8D25-4DDBB2A38145";
paths = (
{
closed = 1;
nodes = (
"947 -2 OFFCURVE",
"1076 1 OFFCURVE",
"1106 27 CURVE SMOOTH",
"1144 59 OFFCURVE",
"1163 147 OFFCURVE",
"1163 291 CURVE SMOOTH",
"1163 332.333 OFFCURVE",
"1150.667 353 OFFCURVE",
"1126 353 CURVE SMOOTH",
"1106 353 OFFCURVE",
"963 165 OFFCURVE",
"931.5 148 CURVE SMOOTH",
"897 129 OFFCURVE",
"822 122 OFFCURVE",
"742 120 CURVE SMOOTH",
"633 117 OFFCURVE",
"516 130 OFFCURVE",
"496 165 CURVE SMOOTH",
"484 185.667 OFFCURVE",
"478 347.667 OFFCURVE",
"478 651 CURVE SMOOTH",
"478 954.333 OFFCURVE",
"476 1160 OFFCURVE",
"501 1214 CURVE SMOOTH",
"526 1268 OFFCURVE",
"632 1309 OFFCURVE",
"632 1346 CURVE SMOOTH",
"632 1378 OFFCURVE",
"593 1388 OFFCURVE",
"376 1393 CURVE SMOOTH",
"181 1397 OFFCURVE",
"112 1401 OFFCURVE",
"114 1354 CURVE SMOOTH",
"117 1308 OFFCURVE",
"221 1308 OFFCURVE",
"245 1256 CURVE SMOOTH",
"268 1205 OFFCURVE",
"260 1112 OFFCURVE",
"256 583 CURVE SMOOTH",
"256 361.667 OFFCURVE",
"249 230 OFFCURVE",
"238 189 CURVE SMOOTH",
"221 127 OFFCURVE",
"115 68 OFFCURVE",
"115 39 CURVE SMOOTH",
"115 14 OFFCURVE",
"275 -1 OFFCURVE",
"595 -1 CURVE SMOOTH"
);
}
);
width = 1213;
},
{
layerId = "5CBF0BAD-1756-4F16-9711-93DC239D102B";
paths = (
{
closed = 1;
nodes = (
"1007 -1 OFFCURVE",
"1084 -9 OFFCURVE",
"1124 28 CURVE SMOOTH",
"1142.667 45.333 OFFCURVE",
"1186 199 OFFCURVE",
"1186 299 CURVE SMOOTH",
"1186 355 OFFCURVE",
"1181 379 OFFCURVE",
"1143 379 CURVE SMOOTH",
"1067.462 379 OFFCURVE",
"951.584 219.063 OFFCURVE",
"863.5 176 CURVE SMOOTH",
"780.154 135.253 OFFCURVE",
"720 149 OFFCURVE",
"656 149 CURVE SMOOTH",
"620 149 OFFCURVE",
"538.167 188.333 OFFCURVE",
"530.5 217 CURVE SMOOTH",
"522.833 245.667 OFFCURVE",
"519 396.833 OFFCURVE",
"519 670.5 CURVE SMOOTH",
"519 944.167 OFFCURVE",
"526 1097 OFFCURVE",
"530.5 1129 CURVE SMOOTH",
"544 1222 OFFCURVE",
"665 1266 OFFCURVE",
"665 1329 CURVE SMOOTH",
"665 1384 OFFCURVE",
"623 1389 OFFCURVE",
"538 1389 CURVE SMOOTH",
"175 1389 OFFCURVE",
"78 1389 OFFCURVE",
"78 1348 CURVE SMOOTH",
"78 1262.553 OFFCURVE",
"196.939 1251.872 OFFCURVE",
"220 1175 CURVE SMOOTH",
"240 1110 OFFCURVE",
"248 894 OFFCURVE",
"246 688 CURVE SMOOTH",
"245 505 OFFCURVE",
"237 330 OFFCURVE",
"224 273 CURVE SMOOTH",
"219 249 OFFCURVE",
"99 91 OFFCURVE",
"98 58 CURVE SMOOTH",
"95 -21 OFFCURVE",
"232 -1 OFFCURVE",
"437 -1 CURVE SMOOTH"
);
}
);
width = 1230;
}
);
note = uni004C;
unicode = 004C;
},
{
color = 11;
glyphname = M;
layers = (
{
layerId = "92A672BF-229C-4BEC-8D25-4DDBB2A38145";
paths = (
{
closed = 1;
nodes = (
"368 6 OFFCURVE",
"476 23 OFFCURVE",
"476 47 CURVE SMOOTH",
"476 95 OFFCURVE",
"427.167 106.333 OFFCURVE",
"407.5 193 CURVE SMOOTH",
"387.833 279.667 OFFCURVE",
"378 354.333 OFFCURVE",
"378 417 CURVE SMOOTH",
"378 836 OFFCURVE",
"399 1065 OFFCURVE",
"422 1067 CURVE SMOOTH",
"442 1069 OFFCURVE",
"509.833 927.833 OFFCURVE",
"623.5 649.5 CURVE SMOOTH",
"766 301 OFFCURVE",
"842 81 OFFCURVE",
"903 81 CURVE SMOOTH",
"961 81 OFFCURVE",
"985 136 OFFCURVE",
"1222 693 CURVE SMOOTH",
"1334.667 947.667 OFFCURVE",
"1395.333 1075 OFFCURVE",
"1404 1075 CURVE SMOOTH",
"1434 1014 OFFCURVE",
"1444 899 OFFCURVE",
"1448 644 CURVE SMOOTH",
"1449 571 OFFCURVE",
"1449 487 OFFCURVE",
"1449 389 CURVE SMOOTH",
"1449 247.667 OFFCURVE",
"1400 158 OFFCURVE",
"1396 100 CURVE SMOOTH",
"1390 10 OFFCURVE",
"1456 16 OFFCURVE",
"1567 17 CURVE SMOOTH",
"1687 18 OFFCURVE",
"1784 0 OFFCURVE",
"1784 55 CURVE SMOOTH",
"1784 79 OFFCURVE",
"1670 180 OFFCURVE",
"1663 216 CURVE SMOOTH",
"1641 329.333 OFFCURVE",
"1630 408 OFFCURVE",
"1630 865 CURVE SMOOTH",
"1630 934 OFFCURVE",
"1639.667 1193.333 OFFCURVE",
"1659 1230 CURVE SMOOTH",
"1665 1240 OFFCURVE",
"1736 1263 OFFCURVE",
"1736 1326 CURVE SMOOTH",
"1736 1360 OFFCURVE",
"1695.667 1377 OFFCURVE",
"1615 1377 CURVE SMOOTH",
"1487 1377 OFFCURVE",
"1435 1365 OFFCURVE",
"1377 1270 CURVE SMOOTH",
"1354.333 1232.667 OFFCURVE",
"962 402 OFFCURVE",
"936 403 CURVE SMOOTH",
"891 405 OFFCURVE",
"567.5 1201.333 OFFCURVE",
"558.5 1218 CURVE SMOOTH",
"496 1335 OFFCURVE",
"445 1374 OFFCURVE",
"320 1374 CURVE SMOOTH",
"213.333 1374 OFFCURVE",
"160 1361 OFFCURVE",
"160 1335 CURVE SMOOTH",
"160 1319 OFFCURVE",
"248 1236 OFFCURVE",
"262 1207 CURVE SMOOTH",
"279.333 1170.333 OFFCURVE",
"288 979 OFFCURVE",
"288 879 CURVE SMOOTH",
"288 824 OFFCURVE",
"266 469 OFFCURVE",
"253 304 CURVE SMOOTH",
"242 220 OFFCURVE",
"118 147 OFFCURVE",
"118 69 CURVE SMOOTH",
"118 24 OFFCURVE",
"200 7 OFFCURVE",
"283 6 CURVE SMOOTH"
);
}
);
width = 1902;
},
{
layerId = "5CBF0BAD-1756-4F16-9711-93DC239D102B";
paths = (
{
closed = 1;
nodes = (
"389 21 OFFCURVE",
"497 29 OFFCURVE",
"497 74 CURVE SMOOTH",
"497 113 OFFCURVE",
"454 167 OFFCURVE",
"450 230 CURVE SMOOTH",
"441 358 OFFCURVE",
"428 523 OFFCURVE",
"428 674 CURVE SMOOTH",
"428 857.333 OFFCURVE",
"438.167 949 OFFCURVE",
"458.5 949 CURVE SMOOTH",
"478.833 949 OFFCURVE",
"536.333 829.667 OFFCURVE",
"631 591 CURVE SMOOTH",
"776 225 OFFCURVE",
"809 59 OFFCURVE",
"917.5 59 CURVE SMOOTH",
"1027 59 OFFCURVE",
"1120 337 OFFCURVE",
"1228 625 CURVE SMOOTH",
"1311.333 847.667 OFFCURVE",
"1361.667 959 OFFCURVE",
"1379 959 CURVE SMOOTH",
"1401 959 OFFCURVE",
"1406 729 OFFCURVE",
"1416 607 CURVE SMOOTH",
"1425 499 OFFCURVE",
"1416 357.5 OFFCURVE",
"1416 318.5 CURVE SMOOTH",
"1416 281 OFFCURVE",
"1371 174 OFFCURVE",
"1372 115 CURVE SMOOTH",
"1373 38 OFFCURVE",
"1548 30 OFFCURVE",
"1705 30 CURVE SMOOTH",
"1785 30 OFFCURVE",
"1825 49 OFFCURVE",
"1825 87 CURVE SMOOTH",
"1825 143 OFFCURVE",
"1729 169 OFFCURVE",
"1715.5 207.5 CURVE SMOOTH",
"1694 267 OFFCURVE",
"1703 512 OFFCURVE",
"1697 660 CURVE SMOOTH",
"1679 1016 OFFCURVE",
"1677 1097 OFFCURVE",
"1707 1174 CURVE SMOOTH",
"1725 1222 OFFCURVE",
"1793 1262 OFFCURVE",
"1793 1321 CURVE SMOOTH",
"1793 1347 OFFCURVE",
"1719 1368 OFFCURVE",
"1574.5 1368 CURVE SMOOTH",
"1379 1368 OFFCURVE",
"1285 1222 OFFCURVE",
"1148.5 890 CURVE SMOOTH",
"1049 649 OFFCURVE",
"997 537 OFFCURVE",
"956 537 CURVE SMOOTH",
"925 537 OFFCURVE",
"790 841.333 OFFCURVE",
"726 1008 CURVE SMOOTH",
"609 1312 OFFCURVE",
"505 1381 OFFCURVE",
"249 1381 CURVE SMOOTH",
"218.333 1381 OFFCURVE",
"140 1363 OFFCURVE",
"140 1326 CURVE SMOOTH",
"140 1289 OFFCURVE",
"228.36 1149.814 OFFCURVE",
"241.5 1092 CURVE SMOOTH",
"264 995 OFFCURVE",
"252 800 OFFCURVE",
"240 569 CURVE SMOOTH",
"234 352 OFFCURVE",
"223 271 OFFCURVE",
"219 241.5 CURVE SMOOTH",
"213 195 OFFCURVE",
"127 115 OFFCURVE",
"127 68 CURVE SMOOTH",
"127 36.667 OFFCURVE",
"189.333 21 OFFCURVE",
"314 21 CURVE SMOOTH"
);
}
);
width = 1928;
}
);
note = uni004D;
unicode = 004D;
},
{
color = 11;
glyphname = N;
layers = (
{
layerId = "92A672BF-229C-4BEC-8D25-4DDBB2A38145";
paths = (
{
closed = 1;
nodes = (
"447 0 OFFCURVE",
"492 19 OFFCURVE",
"492 56 CURVE SMOOTH",
"492 109 OFFCURVE",
"428 134 OFFCURVE",
"413 190 CURVE SMOOTH",
"391 271 OFFCURVE",
"383 500 OFFCURVE",
"383 700 CURVE SMOOTH",
"383 894 OFFCURVE",
"389.667 1101 OFFCURVE",
"403 1101 CURVE SMOOTH",
"427.667 1101 OFFCURVE",
"544.167 952.833 OFFCURVE",
"752.5 656.5 CURVE SMOOTH",
"960.833 360.167 OFFCURVE",
"1080.667 192.667 OFFCURVE",
"1112 154 CURVE SMOOTH",
"1184 64.667 OFFCURVE",
"1241 20 OFFCURVE",
"1283 20 CURVE SMOOTH",
"1377 20 OFFCURVE",
"1349 124 OFFCURVE",
"1349 367 CURVE SMOOTH",
"1352 700 LINE SMOOTH",
"1354 892 OFFCURVE",
"1355.333 1059 OFFCURVE",
"1368 1145 CURVE SMOOTH",
"1375 1192 OFFCURVE",
"1496 1287 OFFCURVE",
"1496 1342 CURVE SMOOTH",
"1496 1364 OFFCURVE",
"1432 1386 OFFCURVE",
"1303 1386 CURVE SMOOTH",
"1168 1386 OFFCURVE",
"1107 1369 OFFCURVE",
"1108 1346 CURVE SMOOTH",
"1110 1309 OFFCURVE",
"1173 1313 OFFCURVE",
"1218.5 1207 CURVE SMOOTH",
"1233 1174 OFFCURVE",
"1233 1078 OFFCURVE",
"1232 700 CURVE SMOOTH",
"1232 449 OFFCURVE",
"1221.333 366 OFFCURVE",
"1200 366 CURVE SMOOTH",
"1035.113 366 OFFCURVE",
"640.697 1139.418 OFFCURVE",
"486.5 1290.5 CURVE SMOOTH",
"420.5 1355.167 OFFCURVE",
"358.333 1382 OFFCURVE",
"201 1382 CURVE SMOOTH",
"152.333 1382 OFFCURVE",
"128 1372 OFFCURVE",
"128 1338 CURVE SMOOTH",
"128 1304 OFFCURVE",
"252 1204 OFFCURVE",
"261.5 1157 CURVE SMOOTH",
"271.833 1106.333 OFFCURVE",
"275 960 OFFCURVE",
"272 700 CURVE SMOOTH",
"270 501 OFFCURVE",
"272 295 OFFCURVE",
"251 195 CURVE SMOOTH",
"237 127 OFFCURVE",
"115 105 OFFCURVE",
"115 40 CURVE SMOOTH",
"115 12 OFFCURVE",
"189 5 OFFCURVE",
"284 3 CURVE SMOOTH"
);
}
);
width = 1592;
},
{
layerId = "5CBF0BAD-1756-4F16-9711-93DC239D102B";
paths = (
{
closed = 1;
nodes = (
"459 7 OFFCURVE",
"521 0 OFFCURVE",
"521 64 CURVE SMOOTH",
"521 106 OFFCURVE",
"464 148 OFFCURVE",
"455 226 CURVE SMOOTH",
"438 371 OFFCURVE",
"416 533.5 OFFCURVE",
"416 714.5 CURVE SMOOTH",
"416 895.5 OFFCURVE",
"422.667 986 OFFCURVE",
"436 986 CURVE SMOOTH",
"468.667 986 OFFCURVE",
"576 853 OFFCURVE",
"758 587 CURVE SMOOTH",
"940 321 OFFCURVE",
"1039 179 OFFCURVE",
"1054 160 CURVE SMOOTH",
"1127 70 OFFCURVE",
"1188 17 OFFCURVE",
"1262 17 CURVE SMOOTH",
"1327 17 OFFCURVE",
"1335.274 185.309 OFFCURVE",
"1340 320 CURVE SMOOTH",
"1356 872 LINE SMOOTH",
"1356 1010.667 OFFCURVE",
"1358 1071 OFFCURVE",
"1362 1104.5 CURVE SMOOTH",
"1371 1180 OFFCURVE",
"1487 1206 OFFCURVE",
"1487 1279 CURVE SMOOTH",
"1487 1360 OFFCURVE",
"1335 1359 OFFCURVE",
"1168 1359 CURVE SMOOTH",
"1107.333 1359 OFFCURVE",
"1077 1344 OFFCURVE",
"1077 1314 CURVE SMOOTH",
"1077 1302.667 OFFCURVE",
"1089.333 1282.333 OFFCURVE",
"1114 1253 CURVE SMOOTH",
"1157.333 1202.333 OFFCURVE",
"1179 1079.333 OFFCURVE",
"1179 884 CURVE SMOOTH",
"1179 634 OFFCURVE",
"1130 498 OFFCURVE",
"1124 498 CURVE SMOOTH",
"1121 498 OFFCURVE",
"610 1189 OFFCURVE",
"562 1239 CURVE SMOOTH",
"474 1330 OFFCURVE",
"382 1376 OFFCURVE",
"274 1376 CURVE SMOOTH",
"136 1376 OFFCURVE",
"90 1364 OFFCURVE",
"90 1300.5 CURVE SMOOTH",
"90 1240 OFFCURVE",
"202 1200 OFFCURVE",
"223.5 1128.5 CURVE SMOOTH",
"258 1010 OFFCURVE",
"239 794 OFFCURVE",
"234 574 CURVE SMOOTH",
"229 282 OFFCURVE",
"223 239 OFFCURVE",
"215 204 CURVE SMOOTH",
"205 157 OFFCURVE",
"101 121 OFFCURVE",
"101 83 CURVE SMOOTH",
"101 7 OFFCURVE",
"165 7 OFFCURVE",
"278 7 CURVE SMOOTH"
);
}
);
width = 1562;
}
);
note = uni004E;
unicode = 004E;
},
{
color = 11;
glyphname = O;
layers = (
{
layerId = "92A672BF-229C-4BEC-8D25-4DDBB2A38145";
paths = (
{
closed = 1;
nodes = (
"489 66 OFFCURVE",
"322 317 OFFCURVE",
"322 702 CURVE SMOOTH",
"322 1087 OFFCURVE",
"480 1320 OFFCURVE",
"742 1320 CURVE SMOOTH",
"1002 1320 OFFCURVE",
"1169 1070.333 OFFCURVE",
"1169 685 CURVE SMOOTH",
"1169 356 OFFCURVE",
"1046 66 OFFCURVE",
"763 66 CURVE SMOOTH"
);
},
{
closed = 1;
nodes = (
"1411 1124 OFFCURVE",
"1159 1412 OFFCURVE",
"788 1412 CURVE SMOOTH",
"365 1412 OFFCURVE",
"99 1126 OFFCURVE",
"99 699 CURVE SMOOTH",
"99 245 OFFCURVE",
"339 -28 OFFCURVE",
"764 -28 CURVE SMOOTH",
"1147 -28 OFFCURVE",
"1411 299 OFFCURVE",
"1411 690 CURVE SMOOTH"
);
}
);
width = 1533;
},
{
layerId = "5CBF0BAD-1756-4F16-9711-93DC239D102B";
paths = (
{
closed = 1;
nodes = (
"1103 308 OFFCURVE",
"986 108 OFFCURVE",
"746 108 CURVE SMOOTH",
"522 108 OFFCURVE",
"386 409 OFFCURVE",
"386 687 CURVE SMOOTH",
"386 1056 OFFCURVE",
"518 1267 OFFCURVE",
"746 1267 CURVE SMOOTH",
"979 1267 OFFCURVE",
"1103 982 OFFCURVE",
"1103 706 CURVE SMOOTH"
);
},
{
closed = 1;
nodes = (
"98 275 OFFCURVE",
"348 -34 OFFCURVE",
"739 -34 CURVE SMOOTH",
"1173 -33 OFFCURVE",
"1444 263 OFFCURVE",
"1444 713 CURVE SMOOTH",
"1444 1089 OFFCURVE",
"1174 1406 OFFCURVE",
"809 1406 CURVE SMOOTH",
"364 1409 OFFCURVE",
"98 1123 OFFCURVE",
"98 682 CURVE SMOOTH"
);
}
);
width = 1533;
}
);
note = uni004F;
unicode = 004F;
},
{
color = 11;
glyphname = P;
layers = (
{
layerId = "92A672BF-229C-4BEC-8D25-4DDBB2A38145";
paths = (
{
closed = 1;
nodes = (
"510 0 OFFCURVE",
"624 10 OFFCURVE",
"624 44 CURVE SMOOTH",
"624 75.308 OFFCURVE",
"504.511 123.29 OFFCURVE",
"486.5 167.5 CURVE SMOOTH",
"473 200 OFFCURVE",
"466 292 OFFCURVE",
"470 380 CURVE SMOOTH",
"474 458 OFFCURVE",
"450 526 OFFCURVE",
"480 541 CURVE SMOOTH",
"527 564 OFFCURVE",
"557 579 OFFCURVE",
"618 579 CURVE SMOOTH",
"913 579 OFFCURVE",
"1173 711 OFFCURVE",
"1173 1000 CURVE SMOOTH",
"1173 1279 OFFCURVE",
"985 1395 OFFCURVE",
"701 1402 CURVE SMOOTH",
"250 1413 OFFCURVE",
"123 1384 OFFCURVE",
"123 1337 CURVE SMOOTH",
"123 1277 OFFCURVE",
"237 1236 OFFCURVE",
"243 1204.5 CURVE SMOOTH",
"251 1160.833 OFFCURVE",
"259 985 OFFCURVE",
"255 680.5 CURVE SMOOTH",
"253 509 OFFCURVE",
"246 285 OFFCURVE",
"223 179 CURVE SMOOTH",
"207 107 OFFCURVE",
"115 95 OFFCURVE",
"115 46 CURVE SMOOTH",
"115 20.667 OFFCURVE",
"273 0 OFFCURVE",
"359 0 CURVE SMOOTH"
);
},
{
closed = 1;
nodes = (
"518 652 OFFCURVE",
"470 700 OFFCURVE",
"470 772 CURVE SMOOTH",
"470 1152 LINE SMOOTH",
"470 1273 OFFCURVE",
"505 1307 OFFCURVE",
"578 1307 CURVE SMOOTH",
"838 1307 OFFCURVE",
"952 1211 OFFCURVE",
"953 969 CURVE SMOOTH",
"953 755 OFFCURVE",
"827 652 OFFCURVE",
"582 652 CURVE SMOOTH"
);
}
);
width = 1267;
},
{
layerId = "5CBF0BAD-1756-4F16-9711-93DC239D102B";
paths = (
{
closed = 1;
nodes = (
"526 -5 OFFCURVE",
"694 0 OFFCURVE",
"694 59 CURVE SMOOTH",
"694 89.667 OFFCURVE",
"666.333 127.333 OFFCURVE",
"611 172 CURVE SMOOTH",
"569.667 205.333 OFFCURVE",
"549 251.667 OFFCURVE",
"549 311 CURVE SMOOTH",
"549 439.667 OFFCURVE",
"571.333 514 OFFCURVE",
"616 534 CURVE SMOOTH",
"627.333 539.333 OFFCURVE",
"677 546 OFFCURVE",
"765 554 CURVE SMOOTH",
"1063.667 580.667 OFFCURVE",
"1235 749 OFFCURVE",
"1235 973 CURVE SMOOTH",
"1235 1249 OFFCURVE",
"1047 1383 OFFCURVE",
"718 1398 CURVE SMOOTH",
"224 1420 OFFCURVE",
"122 1385 OFFCURVE",
"113 1328 CURVE SMOOTH",
"104 1271 OFFCURVE",
"228 1182 OFFCURVE",
"236 1147.5 CURVE SMOOTH",
"248 1097.833 OFFCURVE",
"267 946 OFFCURVE",
"254 701 CURVE SMOOTH",
"248 589 OFFCURVE",
"263.396 382.022 OFFCURVE",
"240 250 CURVE SMOOTH",
"222 148 OFFCURVE",
"113 165 OFFCURVE",
"113 50 CURVE SMOOTH",
"113 13.333 OFFCURVE",
"207.333 -5 OFFCURVE",
"396 -5 CURVE SMOOTH"
);
},
{
closed = 1;
nodes = (
"545 653 OFFCURVE",
"520 659 OFFCURVE",
"522 751 CURVE SMOOTH",
"533 1175 LINE SMOOTH",
"534 1231 OFFCURVE",
"575 1262 OFFCURVE",
"652 1262 CURVE SMOOTH",
"804 1262 OFFCURVE",
"914 1147.333 OFFCURVE",
"914 958 CURVE SMOOTH",
"915 765 OFFCURVE",
"827 653 OFFCURVE",
"682 653 CURVE SMOOTH"
);
}
);
width = 1304;
}
);
note = uni0050;
unicode = 0050;
},
{
color = 11;
glyphname = Q;
layers = (
{
layerId = "92A672BF-229C-4BEC-8D25-4DDBB2A38145";
paths = (
{
closed = 1;
nodes = (
"1469 -306 OFFCURVE",
"1546 -288 OFFCURVE",
"1546 -233 CURVE SMOOTH",
"1546 -189 OFFCURVE",
"1150 -71 OFFCURVE",
"1150 -34 CURVE SMOOTH",
"1150 -25 OFFCURVE",
"1173 21 OFFCURVE",
"1219 104 CURVE SMOOTH",
"1317 281 OFFCURVE",
"1366 482 OFFCURVE",
"1366 706 CURVE SMOOTH",
"1366 1121 OFFCURVE",
"1131 1419 OFFCURVE",
"735 1419 CURVE SMOOTH",
"330 1419 OFFCURVE",
"79 1144 OFFCURVE",
"79 713 CURVE SMOOTH",
"79 359 OFFCURVE",
"230 211 OFFCURVE",
"351 119 CURVE SMOOTH",
"491 13 OFFCURVE",
"1187 -306 OFFCURVE",
"1351 -306 CURVE SMOOTH"
);
},
{
closed = 1;
nodes = (
"465 83 OFFCURVE",
"292 374 OFFCURVE",
"292 741 CURVE SMOOTH",
"292 1091 OFFCURVE",
"465 1322 OFFCURVE",
"750 1322 CURVE SMOOTH",
"1013 1322 OFFCURVE",
"1192 1067 OFFCURVE",
"1192 678 CURVE SMOOTH",
"1192 362 OFFCURVE",
"1035 83 OFFCURVE",
"752 83 CURVE SMOOTH"
);
}
);
width = 1555;
},
{
layerId = "5CBF0BAD-1756-4F16-9711-93DC239D102B";
paths = (
{
closed = 1;
nodes = (
"1344 -307 OFFCURVE",
"1486 -271 OFFCURVE",
"1486 -199.5 CURVE SMOOTH",
"1486 -150.045 OFFCURVE",
"1261.815 -110.828 OFFCURVE",
"1172 -57.5 CURVE SMOOTH",
"1118.667 -25.833 OFFCURVE",
"1092 1.667 OFFCURVE",
"1092 25 CURVE SMOOTH",
"1092 72 OFFCURVE",
"1465 495 OFFCURVE",
"1465 695 CURVE SMOOTH",
"1465 1160 OFFCURVE",
"1210 1438 OFFCURVE",
"750 1438 CURVE SMOOTH",
"352 1438 OFFCURVE",
"65 1118 OFFCURVE",
"65 719 CURVE SMOOTH",
"65 364 OFFCURVE",
"201 205 OFFCURVE",
"301 130 CURVE SMOOTH",
"375 74 OFFCURVE",
"1155 -310 OFFCURVE",
"1217 -309 CURVE SMOOTH"
);
},
{
closed = 1;
nodes = (
"531 126 OFFCURVE",
"397 442 OFFCURVE",
"397 699 CURVE SMOOTH",
"397 1040 OFFCURVE",
"422 1291 OFFCURVE",
"750 1291 CURVE SMOOTH",
"1003 1291 OFFCURVE",
"1136 1011 OFFCURVE",
"1136 731 CURVE SMOOTH",
"1136 299 OFFCURVE",
"1025 126 OFFCURVE",
"755 126 CURVE SMOOTH"
);
}
);
width = 1589;
}
);
note = uni0051;
unicode = 0051;
},
{
color = 11;
glyphname = R;
layers = (
{
layerId = "92A672BF-229C-4BEC-8D25-4DDBB2A38145";
paths = (
{
closed = 1;
nodes = (
"1264 -13 OFFCURVE",
"1318 7 OFFCURVE",
"1318 48 CURVE SMOOTH",
"1318 118 OFFCURVE",
"1198 152 OFFCURVE",
"1150 207 CURVE SMOOTH",
"1078 289 OFFCURVE",
"879 566 OFFCURVE",
"879 639 CURVE SMOOTH",
"879 657 OFFCURVE",
"1125 844 OFFCURVE",
"1125 1015 CURVE SMOOTH",
"1125 1286 OFFCURVE",
"920 1388 OFFCURVE",
"626 1394 CURVE SMOOTH",
"345 1400 OFFCURVE",
"114 1397 OFFCURVE",
"114 1350 CURVE SMOOTH",
"114 1301 OFFCURVE",
"208 1298 OFFCURVE",
"230 1247 CURVE SMOOTH",
"253 1194 OFFCURVE",
"264 1072 OFFCURVE",
"259 729 CURVE SMOOTH",
"254 417 OFFCURVE",
"262 265 OFFCURVE",
"245.5 184.5 CURVE SMOOTH",
"238 147 OFFCURVE",
"113 100 OFFCURVE",
"113 60 CURVE SMOOTH",
"113 14 OFFCURVE",
"200 9 OFFCURVE",
"501 3 CURVE SMOOTH",
"561 3 OFFCURVE",
"591 14.333 OFFCURVE",
"591 37 CURVE SMOOTH",
"591 60 OFFCURVE",
"490 133 OFFCURVE",
"478.5 162.5 CURVE SMOOTH",
"468 188 OFFCURVE",
"462 253 OFFCURVE",
"463 356 CURVE SMOOTH",
"464 543 OFFCURVE",
"501 603 OFFCURVE",
"540 603 CURVE SMOOTH",
"672 603 OFFCURVE",
"734 532 OFFCURVE",
"868.5 295 CURVE SMOOTH",
"992 76 OFFCURVE",
"1014 -16 OFFCURVE",
"1200 -13 CURVE SMOOTH"
);
},
{
closed = 1;
nodes = (
"459 707 OFFCURVE",
"454 718 OFFCURVE",
"454 810 CURVE SMOOTH",
"454 1155 LINE SMOOTH",
"454 1252 OFFCURVE",
"452 1298 OFFCURVE",
"519 1298 CURVE SMOOTH",
"795 1298 OFFCURVE",
"924 1228 OFFCURVE",
"924 984 CURVE SMOOTH",
"924 755 OFFCURVE",
"803 707 OFFCURVE",
"538 707 CURVE SMOOTH"
);
}
);
width = 1385;
},
{
layerId = "5CBF0BAD-1756-4F16-9711-93DC239D102B";
paths = (
{
closed = 1;
nodes = (
"1298 -3 OFFCURVE",
"1388 17 OFFCURVE",
"1388 100 CURVE SMOOTH",
"1388 140 OFFCURVE",
"1247 179 OFFCURVE",
"1166 267 CURVE SMOOTH",
"1126 311 OFFCURVE",
"979 576 OFFCURVE",
"979 623 CURVE SMOOTH",
"979 639 OFFCURVE",
"1204 782 OFFCURVE",
"1204 1012 CURVE SMOOTH",
"1204 1267 OFFCURVE",
"999 1386 OFFCURVE",
"592 1386 CURVE SMOOTH",
"351 1386 OFFCURVE",
"101 1396 OFFCURVE",
"101 1322 CURVE SMOOTH",
"101 1288 OFFCURVE",
"219 1159 OFFCURVE",
"225 1130 CURVE SMOOTH",
"235 1085.333 OFFCURVE",
"240 901 OFFCURVE",
"240 674.5 CURVE SMOOTH",
"240 618 OFFCURVE",
"243 321 OFFCURVE",
"227 235.5 CURVE SMOOTH",
"218 189 OFFCURVE",
"92 142 OFFCURVE",
"92 69 CURVE SMOOTH",
"92 41 OFFCURVE",
"208 0 OFFCURVE",
"473 -1 CURVE SMOOTH",
"582 -1 OFFCURVE",
"636 16.333 OFFCURVE",
"636 51 CURVE SMOOTH",
"636 70 OFFCURVE",
"606 125 OFFCURVE",
"578 180 CURVE SMOOTH",
"553 230 OFFCURVE",
"529 280 OFFCURVE",
"529 306 CURVE SMOOTH",
"529 451 OFFCURVE",
"535 566 OFFCURVE",
"604 566 CURVE SMOOTH",
"748 566 OFFCURVE",
"798 438 OFFCURVE",
"854 303 CURVE SMOOTH",
"915 155 OFFCURVE",
"983 -1 OFFCURVE",
"1191 -3 CURVE SMOOTH"
);
},
{
closed = 1;
nodes = (
"526 701 OFFCURVE",
"511 721.667 OFFCURVE",
"511 775 CURVE SMOOTH",
"511 1138 LINE SMOOTH",
"511 1242 OFFCURVE",
"517.333 1253 OFFCURVE",
"608 1253 CURVE SMOOTH",
"811 1253 OFFCURVE",
"894 1160 OFFCURVE",
"894 948 CURVE SMOOTH",
"894 772 OFFCURVE",
"795 700 OFFCURVE",
"603 701 CURVE SMOOTH"
);
}
);
width = 1429;
}
);
note = uni0052;
unicode = 0052;
},
{
color = 11;
glyphname = S;
layers = (
{
layerId = "92A672BF-229C-4BEC-8D25-4DDBB2A38145";
paths = (
{
closed = 1;
nodes = (
"852 -7 OFFCURVE",
"1047 142 OFFCURVE",
"1047 354 CURVE SMOOTH",
"1047 503 OFFCURVE",
"993 586 OFFCURVE",
"885 664 CURVE SMOOTH",
"782 740 OFFCURVE",
"629 811 OFFCURVE",
"427 933 CURVE SMOOTH",
"359 974 OFFCURVE",
"329 1046 OFFCURVE",
"335 1115 CURVE SMOOTH",
"343 1215 OFFCURVE",
"423 1312 OFFCURVE",
"565 1312 CURVE SMOOTH",
"776 1312 OFFCURVE",
"866 1103 OFFCURVE",
"930 1103 CURVE SMOOTH",
"961 1103 OFFCURVE",
"989 1121 OFFCURVE",
"989 1155 CURVE SMOOTH",
"989 1286 OFFCURVE",
"987 1368 OFFCURVE",
"893.5 1368 CURVE SMOOTH",
"829.472 1368 OFFCURVE",
"662.376 1407 OFFCURVE",
"573 1407 CURVE SMOOTH",
"331.667 1407 OFFCURVE",
"140 1269 OFFCURVE",
"140 1053 CURVE SMOOTH",
"140 945 OFFCURVE",
"176 856 OFFCURVE",
"249 786 CURVE SMOOTH",
"381 659 OFFCURVE",
"664 574 OFFCURVE",
"762 496.5 CURVE SMOOTH",
"826 446 OFFCURVE",
"863 384 OFFCURVE",
"859 297 CURVE SMOOTH",
"855 177 OFFCURVE",
"764 122 OFFCURVE",
"673 122 CURVE SMOOTH",
"597 122 OFFCURVE",
"488 128 OFFCURVE",
"371 169 CURVE SMOOTH",
"311 190 OFFCURVE",
"225 384 OFFCURVE",
"189 384 CURVE SMOOTH",
"142 384 OFFCURVE",
"128 334 OFFCURVE",
"128 216 CURVE SMOOTH",
"128 129 OFFCURVE",
"147 76 OFFCURVE",
"186 58 CURVE SMOOTH",
"247 32 OFFCURVE",
"480 -7 OFFCURVE",
"584 -7 CURVE SMOOTH"
);
}
);
width = 1150;
},
{
layerId = "5CBF0BAD-1756-4F16-9711-93DC239D102B";
paths = (
{
closed = 1;
nodes = (
"868 -20 OFFCURVE",
"1072 127 OFFCURVE",
"1072 401 CURVE SMOOTH",
"1072 493.667 OFFCURVE",
"1035.667 577 OFFCURVE",
"963 651 CURVE SMOOTH",
"833 783 OFFCURVE",
"621 821 OFFCURVE",
"474 927 CURVE SMOOTH",
"407.333 975 OFFCURVE",
"374 1029.333 OFFCURVE",
"374 1090 CURVE SMOOTH",
"374 1180.667 OFFCURVE",
"455.833 1256 OFFCURVE",
"556.5 1256 CURVE SMOOTH",
"755 1256 OFFCURVE",
"777 1035 OFFCURVE",
"948 1035 CURVE SMOOTH",
"980.667 1035 OFFCURVE",
"997 1083.333 OFFCURVE",
"997 1180 CURVE SMOOTH",
"997 1276.667 OFFCURVE",
"974 1336.667 OFFCURVE",
"928 1360 CURVE SMOOTH",
"862 1393 OFFCURVE",
"744 1407 OFFCURVE",
"533 1407 CURVE SMOOTH",
"310 1407 OFFCURVE",
"112 1252 OFFCURVE",
"112 1025 CURVE SMOOTH",
"112 903.667 OFFCURVE",
"170.667 799.667 OFFCURVE",
"288 713 CURVE SMOOTH",
"386.312 640.802 OFFCURVE",
"659.041 540.885 OFFCURVE",
"742 452 CURVE SMOOTH",
"779.333 412 OFFCURVE",
"798 361 OFFCURVE",
"798 299 CURVE SMOOTH",
"798 216.333 OFFCURVE",
"702.833 131 OFFCURVE",
"579.5 131 CURVE SMOOTH",
"517.833 131 OFFCURVE",
"467.167 142.333 OFFCURVE",
"427.5 165 CURVE SMOOTH",
"387.833 187.667 OFFCURVE",
"193 403 OFFCURVE",
"154 403 CURVE SMOOTH",
"108 403 OFFCURVE",
"97 365 OFFCURVE",
"97 263 CURVE SMOOTH",
"97 153.667 OFFCURVE",
"118.667 84 OFFCURVE",
"162 54 CURVE SMOOTH",
"208.667 22 OFFCURVE",
"428.333 -20 OFFCURVE",
"575 -20 CURVE SMOOTH"
);
}
);
width = 1150;
}
);
note = uni0053;
unicode = 0053;
},
{
color = 11;
glyphname = T;
layers = (
{
layerId = "92A672BF-229C-4BEC-8D25-4DDBB2A38145";
paths = (
{
closed = 1;
nodes = (
"892 -6 OFFCURVE",
"912 8 OFFCURVE",
"912 41 CURVE SMOOTH",
"912 62 OFFCURVE",
"777 166 OFFCURVE",
"771 194 CURVE SMOOTH",
"762 233 OFFCURVE",
"740 607 OFFCURVE",
"741 712 CURVE SMOOTH",
"743 873 OFFCURVE",
"748 1146 OFFCURVE",
"779.5 1225 CURVE SMOOTH",
"804.589 1288.043 OFFCURVE",
"962 1268 OFFCURVE",
"1039 1265 CURVE SMOOTH",
"1085 1263 OFFCURVE",
"1210 1066 OFFCURVE",
"1232 1066 CURVE SMOOTH",
"1250 1066 OFFCURVE",
"1259 1106.333 OFFCURVE",
"1259 1163 CURVE SMOOTH",
"1259 1306 OFFCURVE",
"1239 1386 OFFCURVE",
"1172 1386 CURVE SMOOTH",
"1084 1386 OFFCURVE",
"1006 1391 OFFCURVE",
"620 1392 CURVE SMOOTH",
"284 1392 OFFCURVE",
"110 1389 OFFCURVE",
"98 1383 CURVE SMOOTH",
"66.667 1367 OFFCURVE",
"51 1290.667 OFFCURVE",
"51 1154 CURVE SMOOTH",
"51 1091 OFFCURVE",
"56 1066 OFFCURVE",
"98 1066 CURVE SMOOTH",
"142 1066 OFFCURVE",
"197 1270 OFFCURVE",
"406 1270 CURVE SMOOTH",
"476 1270 OFFCURVE",
"516.5 1253.333 OFFCURVE",
"527.5 1220 CURVE SMOOTH",
"550 1153 OFFCURVE",
"558 949 OFFCURVE",
"557 739 CURVE SMOOTH",
"556 559 OFFCURVE",
"540 276 OFFCURVE",
"529 216.5 CURVE SMOOTH",
"519 164.167 OFFCURVE",
"372 76 OFFCURVE",
"380 46 CURVE SMOOTH",
"387 20 OFFCURVE",
"447 -2 OFFCURVE",
"581 -2 CURVE SMOOTH"
);
}
);
width = 1304;
},
{
layerId = "5CBF0BAD-1756-4F16-9711-93DC239D102B";
paths = (
{
closed = 1;
nodes = (
"858 -1 OFFCURVE",
"973 -15 OFFCURVE",
"973 52.5 CURVE SMOOTH",
"973 92 OFFCURVE",
"830 197 OFFCURVE",
"820 236 CURVE SMOOTH",
"811 273 OFFCURVE",
"799 590 OFFCURVE",
"797 708 CURVE SMOOTH",
"795 844 OFFCURVE",
"804 1077 OFFCURVE",
"813 1144 CURVE SMOOTH",
"820.333 1202 OFFCURVE",
"846 1231 OFFCURVE",
"890 1231 CURVE SMOOTH",
"1064 1231 OFFCURVE",
"1141 1032 OFFCURVE",
"1240 1032 CURVE SMOOTH",
"1282 1032 OFFCURVE",
"1289 1074 OFFCURVE",
"1289 1202 CURVE SMOOTH",
"1289 1359.333 OFFCURVE",
"1265 1376 OFFCURVE",
"1121 1379 CURVE SMOOTH",
"980 1382 OFFCURVE",
"840 1385 OFFCURVE",
"699 1388 CURVE SMOOTH",
"486 1393 OFFCURVE",
"118.5 1385 OFFCURVE",
"97.5 1379 CURVE SMOOTH",
"45 1364 OFFCURVE",
"39 1238 OFFCURVE",
"39 1130 CURVE SMOOTH",
"39 1061 OFFCURVE",
"45 1034 OFFCURVE",
"91 1034 CURVE SMOOTH",
"114 1034 OFFCURVE",
"339 1232 OFFCURVE",
"421 1232 CURVE SMOOTH",
"485 1232 OFFCURVE",
"505.333 1204.833 OFFCURVE",
"516 1149.5 CURVE SMOOTH",
"529 1084 OFFCURVE",
"536 871 OFFCURVE",
"535 666 CURVE SMOOTH",
"535 482 OFFCURVE",
"528 305 OFFCURVE",
"512 246.5 CURVE SMOOTH",
"480 125 OFFCURVE",
"363 80 OFFCURVE",
"363 31 CURVE SMOOTH",
"363 0 OFFCURVE",
"388 -1 OFFCURVE",
"704 -1 CURVE SMOOTH"
);
}
);
width = 1334;
}
);
note = uni0054;
unicode = 0054;
},
{
color = 11;
glyphname = U;
layers = (
{
layerId = "92A672BF-229C-4BEC-8D25-4DDBB2A38145";
paths = (
{
closed = 1;
nodes = (
"1219 -11 OFFCURVE",
"1300 225 OFFCURVE",
"1300 662 CURVE SMOOTH",
"1300 909 OFFCURVE",
"1302 1142 OFFCURVE",
"1317 1191 CURVE SMOOTH",
"1326.333 1222.333 OFFCURVE",
"1449 1293 OFFCURVE",
"1449 1328 CURVE SMOOTH",
"1449 1395 OFFCURVE",
"1345 1389 OFFCURVE",
"1232.5 1390 CURVE SMOOTH",
"1150 1391 OFFCURVE",
"1070 1398.232 OFFCURVE",
"1070 1364 CURVE SMOOTH",
"1070 1315 OFFCURVE",
"1149 1258 OFFCURVE",
"1168 1189.5 CURVE SMOOTH",
"1184 1130 OFFCURVE",
"1187 964 OFFCURVE",
"1187 842 CURVE SMOOTH",
"1187 400 OFFCURVE",
"1172 98 OFFCURVE",
"835 98 CURVE SMOOTH",
"423 98 OFFCURVE",
"443 375 OFFCURVE",
"443 877 CURVE SMOOTH",
"443 1059.667 OFFCURVE",
"446 1168 OFFCURVE",
"452 1202 CURVE SMOOTH",
"457 1228 OFFCURVE",
"553 1320 OFFCURVE",
"552 1351 CURVE SMOOTH",
"551 1377 OFFCURVE",
"496.667 1392 OFFCURVE",
"386 1392 CURVE SMOOTH",
"170 1392 OFFCURVE",
"90 1387 OFFCURVE",
"90 1347 CURVE SMOOTH",
"90 1293 OFFCURVE",
"193 1286 OFFCURVE",
"212 1226 CURVE SMOOTH",
"231 1169 OFFCURVE",
"235 989 OFFCURVE",
"236 804 CURVE SMOOTH",
"240 124 OFFCURVE",
"324 -11 OFFCURVE",
"814 -11 CURVE SMOOTH"
);
}
);
width = 1525;
},
{
layerId = "5CBF0BAD-1756-4F16-9711-93DC239D102B";
paths = (
{
closed = 1;
nodes = (
"1205 -16 OFFCURVE",
"1312 209 OFFCURVE",
"1312 710 CURVE SMOOTH",
"1309 1007 OFFCURVE",
"1308 1112 OFFCURVE",
"1318 1144.5 CURVE SMOOTH",
"1341 1219 OFFCURVE",
"1444 1223 OFFCURVE",
"1444 1307.5 CURVE SMOOTH",
"1444 1386 OFFCURVE",
"1342 1388 OFFCURVE",
"1211.5 1388 CURVE SMOOTH",
"1059 1388 OFFCURVE",
"1009 1383 OFFCURVE",
"1009 1337 CURVE SMOOTH",
"1009 1291 OFFCURVE",
"1083 1193 OFFCURVE",
"1094 1141 CURVE SMOOTH",
"1112 1054 OFFCURVE",
"1119 921 OFFCURVE",
"1119 746.5 CURVE SMOOTH",
"1119 380 OFFCURVE",
"1097 145 OFFCURVE",
"797 145 CURVE SMOOTH",
"516 145 OFFCURVE",
"501 369 OFFCURVE",
"495 704 CURVE SMOOTH",
"491 880 OFFCURVE",
"498 1054 OFFCURVE",
"508.5 1117.5 CURVE SMOOTH",
"520.615 1193.33 OFFCURVE",
"593 1317 OFFCURVE",
"593 1350 CURVE SMOOTH",
"593 1380 OFFCURVE",
"553 1395 OFFCURVE",
"473 1395 CURVE SMOOTH",
"150 1395 OFFCURVE",
"62 1396 OFFCURVE",
"62 1307 CURVE SMOOTH",
"62 1231 OFFCURVE",
"174 1231 OFFCURVE",
"197 1175.5 CURVE SMOOTH",
"208 1150 OFFCURVE",
"207 1115 OFFCURVE",
"204 543 CURVE SMOOTH",
"204 165 OFFCURVE",
"383 -16 OFFCURVE",
"745 -16 CURVE SMOOTH"
);
}
);
width = 1506;
}
);
note = uni0055;
unicode = 0055;
},
{
color = 11;
glyphname = V;
layers = (
{
layerId = "92A672BF-229C-4BEC-8D25-4DDBB2A38145";
paths = (
{
closed = 1;
nodes = (
"761 -4 OFFCURVE",
"804 58 OFFCURVE",
"857 178 CURVE SMOOTH",
"966 425 OFFCURVE",
"1251 1135 OFFCURVE",
"1323 1272 CURVE SMOOTH",
"1339 1303 OFFCURVE",
"1401 1330 OFFCURVE",
"1401 1346 CURVE SMOOTH",
"1401 1383 OFFCURVE",
"1351 1394 OFFCURVE",
"1233 1394 CURVE SMOOTH",
"1091 1394 OFFCURVE",
"1020 1379.667 OFFCURVE",
"1020 1351 CURVE SMOOTH",
"1020 1324 OFFCURVE",
"1104 1256 OFFCURVE",
"1104 1202.5 CURVE SMOOTH",
"1104 1105 OFFCURVE",
"907 556 OFFCURVE",
"847 423 CURVE SMOOTH",
"802.333 323.667 OFFCURVE",
"796 274 OFFCURVE",
"774 274 CURVE SMOOTH",
"747.333 274 OFFCURVE",
"721 327 OFFCURVE",
"663 500 CURVE SMOOTH",
"594 706 OFFCURVE",
"423 1176 OFFCURVE",
"423 1221.5 CURVE SMOOTH",
"423 1262.926 OFFCURVE",
"479 1323.648 OFFCURVE",
"479 1353 CURVE SMOOTH",
"479 1377 OFFCURVE",
"404.667 1389 OFFCURVE",
"256 1389 CURVE SMOOTH",
"107.333 1389 OFFCURVE",
"33 1379 OFFCURVE",
"33 1360 CURVE SMOOTH",
"33 1333 OFFCURVE",
"154 1262 OFFCURVE",
"188.5 1194 CURVE SMOOTH",
"242 1086 OFFCURVE",
"536 255 OFFCURVE",
"590.5 132 CURVE SMOOTH",
"631 41 OFFCURVE",
"653 -4 OFFCURVE",
"727 -4 CURVE SMOOTH"
);
}
);
width = 1424;
},
{
layerId = "5CBF0BAD-1756-4F16-9711-93DC239D102B";
paths = (
{
closed = 1;
nodes = (
"785 -18 OFFCURVE",
"837.167 8.333 OFFCURVE",
"869.5 61 CURVE SMOOTH",
"989 255 OFFCURVE",
"1180 919 OFFCURVE",
"1283 1125 CURVE SMOOTH",
"1311.073 1182.958 OFFCURVE",
"1444 1292.498 OFFCURVE",
"1444 1322 CURVE SMOOTH",
"1444 1377.126 OFFCURVE",
"1379.316 1388 OFFCURVE",
"1266 1388 CURVE SMOOTH",
"1061 1388 OFFCURVE",
"1013 1382 OFFCURVE",
"1013 1330 CURVE SMOOTH",
"1013 1305 OFFCURVE",
"1072 1228 OFFCURVE",
"1072 1190 CURVE SMOOTH",
"1072 1120 OFFCURVE",
"922 622 OFFCURVE",
"878 485 CURVE SMOOTH",
"849 395 OFFCURVE",
"825.333 353 OFFCURVE",
"806 353 CURVE SMOOTH",
"799.333 353 OFFCURVE",
"778 396.667 OFFCURVE",
"742 484 CURVE SMOOTH",
"684 624 OFFCURVE",
"519 1087 OFFCURVE",
"517 1186 CURVE SMOOTH",
"517 1251 OFFCURVE",
"555 1269 OFFCURVE",
"555 1324 CURVE SMOOTH",
"555 1371 OFFCURVE",
"491 1388 OFFCURVE",
"343 1388 CURVE SMOOTH",
"161 1388 OFFCURVE",
"26 1377 OFFCURVE",
"26 1344 CURVE SMOOTH",
"26 1266 OFFCURVE",
"150.893 1236.792 OFFCURVE",
"192 1148 CURVE SMOOTH",
"207 1114 OFFCURVE",
"563 182 OFFCURVE",
"593 114 CURVE SMOOTH",
"631.667 26 OFFCURVE",
"671.667 -18 OFFCURVE",
"713 -18 CURVE SMOOTH"
);
}
);
width = 1470;
}
);
note = uni0056;
unicode = 0056;
},
{
color = 11;
glyphname = W;
layers = (
{
layerId = "92A672BF-229C-4BEC-8D25-4DDBB2A38145";
paths = (
{
closed = 1;
nodes = (
"674.333 67 OFFCURVE",
"718.333 107.333 OFFCURVE",
"757 188 CURVE SMOOTH",
"811 300 OFFCURVE",
"939 701 OFFCURVE",
"987 823 CURVE SMOOTH",
"1010 882 OFFCURVE",
"1025 911 OFFCURVE",
"1032 911 CURVE SMOOTH",
"1057 911 OFFCURVE",
"1062 860 OFFCURVE",
"1071 841 CURVE SMOOTH",
"1111 757 OFFCURVE",
"1233 298 OFFCURVE",
"1268 213 CURVE SMOOTH",
"1307.333 117 OFFCURVE",
"1349.667 69 OFFCURVE",
"1395 69 CURVE SMOOTH",
"1446.556 69 OFFCURVE",
"1500.451 128.249 OFFCURVE",
"1546 231 CURVE SMOOTH",
"1624.324 407.685 OFFCURVE",
"1758.52 890.052 OFFCURVE",
"1817 1043 CURVE SMOOTH",
"1856 1133 OFFCURVE",
"1952 1265 OFFCURVE",
"1956 1310 CURVE SMOOTH",
"1959 1364 OFFCURVE",
"1896 1386 OFFCURVE",
"1823 1386 CURVE SMOOTH",
"1726.333 1386 OFFCURVE",
"1678 1355 OFFCURVE",
"1678 1293 CURVE SMOOTH",
"1678 1203 OFFCURVE",
"1695 1169 OFFCURVE",
"1695 1137 CURVE SMOOTH",
"1695 1069 OFFCURVE",
"1641.333 871 OFFCURVE",
"1534 543 CURVE SMOOTH",
"1508.667 465 OFFCURVE",
"1483.667 426 OFFCURVE",
"1459 426 CURVE SMOOTH",
"1429 426 OFFCURVE",
"1406.667 443.167 OFFCURVE",
"1392 477.5 CURVE SMOOTH",
"1354 566 OFFCURVE",
"1202 1066 OFFCURVE",
"1202 1120 CURVE SMOOTH",
"1202 1158 OFFCURVE",
"1222 1185 OFFCURVE",
"1222 1234 CURVE SMOOTH",
"1222 1299 OFFCURVE",
"1109 1358 OFFCURVE",
"1025 1356 CURVE SMOOTH",
"940 1354 OFFCURVE",
"838 1303 OFFCURVE",
"838 1221 CURVE SMOOTH",
"838 1156 OFFCURVE",
"884 1100 OFFCURVE",
"884 1045 CURVE SMOOTH",
"884 940 OFFCURVE",
"803 551 OFFCURVE",
"756.5 474.5 CURVE SMOOTH",
"735.5 440.167 OFFCURVE",
"715 423 OFFCURVE",
"695 423 CURVE SMOOTH",
"663.667 423 OFFCURVE",
"633.333 468 OFFCURVE",
"604 558 CURVE SMOOTH",
"496.667 886 OFFCURVE",
"443 1092.333 OFFCURVE",
"443 1177 CURVE SMOOTH",
"443 1261.667 OFFCURVE",
"461 1299 OFFCURVE",
"461 1331 CURVE SMOOTH",
"461 1354 OFFCURVE",
"408.667 1380 OFFCURVE",
"210 1380 CURVE SMOOTH",
"153 1380 OFFCURVE",
"100 1343 OFFCURVE",
"100 1305 CURVE SMOOTH",
"100 1284 OFFCURVE",
"218 1079 OFFCURVE",
"245.5 1004.5 CURVE SMOOTH",
"268.5 942.833 OFFCURVE",
"364 617 OFFCURVE",
"432 391 CURVE SMOOTH",
"482 209 OFFCURVE",
"593 67 OFFCURVE",
"625 67 CURVE SMOOTH"
);
}
);
width = 2044;
},
{
layerId = "5CBF0BAD-1756-4F16-9711-93DC239D102B";
paths = (
{
closed = 1;
nodes = (
"707 5 OFFCURVE",
"762 53 OFFCURVE",
"794 112.5 CURVE SMOOTH",
"811 144 OFFCURVE",
"944 584 OFFCURVE",
"1005 755 CURVE SMOOTH",
"1020 796 OFFCURVE",
"1030 822 OFFCURVE",
"1034 822 CURVE SMOOTH",
"1037 822 OFFCURVE",
"1047 800 OFFCURVE",
"1061 764 CURVE SMOOTH",
"1122 607 OFFCURVE",
"1261 183 OFFCURVE",
"1279.5 143 CURVE SMOOTH",
"1321.5 49.667 OFFCURVE",
"1330 30 OFFCURVE",
"1491 30 CURVE SMOOTH",
"1534 30 OFFCURVE",
"1569 85 OFFCURVE",
"1607 184 CURVE SMOOTH",
"1639 284 OFFCURVE",
"1697 479 OFFCURVE",
"1830 932 CURVE SMOOTH",
"1849 993 OFFCURVE",
"1986 1257 OFFCURVE",
"1986 1288 CURVE SMOOTH",
"1986 1336 OFFCURVE",
"1938.667 1360 OFFCURVE",
"1844 1360 CURVE SMOOTH",
"1724 1360 OFFCURVE",
"1597 1310 OFFCURVE",
"1597 1208 CURVE SMOOTH",
"1597 1141 OFFCURVE",
"1621 1077 OFFCURVE",
"1621 1013 CURVE SMOOTH",
"1621 909 OFFCURVE",
"1541 697 OFFCURVE",
"1506 581 CURVE SMOOTH",
"1495 545 OFFCURVE",
"1469 521 OFFCURVE",
"1460 520 CURVE SMOOTH",
"1441 518 OFFCURVE",
"1443 540.333 OFFCURVE",
"1429 581 CURVE SMOOTH",
"1363 769 OFFCURVE",
"1320 908 OFFCURVE",
"1301 1000 CURVE SMOOTH",
"1292 1039 OFFCURVE",
"1288 1069 OFFCURVE",
"1288 1091 CURVE SMOOTH",
"1288 1242 OFFCURVE",
"1226 1340 OFFCURVE",
"1087.5 1340 CURVE SMOOTH",
"939 1340 OFFCURVE",
"861 1297 OFFCURVE",
"861 1148 CURVE SMOOTH",
"862 1102 OFFCURVE",
"861 1055 OFFCURVE",
"857 1009 CURVE SMOOTH",
"843 841 OFFCURVE",
"801 684 OFFCURVE",
"768 598 CURVE SMOOTH",
"752 553 OFFCURVE",
"738 527 OFFCURVE",
"732 527 CURVE SMOOTH",
"718 528 OFFCURVE",
"700 547 OFFCURVE",
"683 579 CURVE SMOOTH",
"632 671 OFFCURVE",
"577 865 OFFCURVE",
"577 978 CURVE SMOOTH",
"577 1075 OFFCURVE",
"588 1148 OFFCURVE",
"577 1203 CURVE SMOOTH",
"546 1348 OFFCURVE",
"441 1369 OFFCURVE",
"181 1369 CURVE SMOOTH",
"111.667 1369 OFFCURVE",
"70 1328.667 OFFCURVE",
"70 1294 CURVE SMOOTH",
"70 1276.447 OFFCURVE",
"196.667 1059.462 OFFCURVE",
"220 993 CURVE SMOOTH",
"267 847 OFFCURVE",
"489 132 OFFCURVE",
"510 96 CURVE SMOOTH",
"544.667 35.333 OFFCURVE",
"594 5 OFFCURVE",
"658 5 CURVE SMOOTH"
);
}
);
width = 2072;
}
);
note = uni0057;
unicode = 0057;
},
{
color = 11;
glyphname = X;
layers = (
{
layerId = "92A672BF-229C-4BEC-8D25-4DDBB2A38145";
paths = (
{
closed = 1;
nodes = (
"404 3 OFFCURVE",
"462 11 OFFCURVE",
"462 45 CURVE SMOOTH",
"462 57 OFFCURVE",
"395 98 OFFCURVE",
"395 123 CURVE SMOOTH",
"395 178 OFFCURVE",
"620 550 OFFCURVE",
"663 550 CURVE SMOOTH",
"709 550 OFFCURVE",
"938 179 OFFCURVE",
"938 133.5 CURVE SMOOTH",
"938 107 OFFCURVE",
"905 75 OFFCURVE",
"898 43 CURVE SMOOTH",
"890 8 OFFCURVE",
"936 3 OFFCURVE",
"1065 3 CURVE SMOOTH",
"1259 3 OFFCURVE",
"1356 17.667 OFFCURVE",
"1356 47 CURVE SMOOTH",
"1356 81 OFFCURVE",
"1212 155 OFFCURVE",
"1174 204 CURVE SMOOTH",
"942 503 OFFCURVE",
"839 691.333 OFFCURVE",
"839 750 CURVE SMOOTH",
"839 808.667 OFFCURVE",
"933.333 954.333 OFFCURVE",
"1122 1187 CURVE SMOOTH",
"1166 1242 OFFCURVE",
"1328 1324 OFFCURVE",
"1328 1352 CURVE SMOOTH",
"1328 1380 OFFCURVE",
"1263 1394 OFFCURVE",
"1133 1394 CURVE SMOOTH",
"1003 1394 OFFCURVE",
"944 1385 OFFCURVE",
"944 1352 CURVE SMOOTH",
"944 1335 OFFCURVE",
"1010 1293 OFFCURVE",
"1010 1270 CURVE SMOOTH",
"1010 1215 OFFCURVE",
"802 883 OFFCURVE",
"759 883 CURVE SMOOTH",
"714 883 OFFCURVE",
"509 1210 OFFCURVE",
"509 1262 CURVE SMOOTH",
"509 1284 OFFCURVE",
"563 1325 OFFCURVE",
"563 1345 CURVE SMOOTH",
"563 1373 OFFCURVE",
"531.333 1387 OFFCURVE",
"468 1387 CURVE SMOOTH",
"197 1384 OFFCURVE",
"93 1376 OFFCURVE",
"93 1340 CURVE SMOOTH",
"93 1312 OFFCURVE",
"222 1259 OFFCURVE",
"260 1214 CURVE SMOOTH",
"327 1134 OFFCURVE",
"598 748 OFFCURVE",
"598 704 CURVE SMOOTH",
"598 639.333 OFFCURVE",
"460 436 OFFCURVE",
"262 187 CURVE SMOOTH",
"217 130 OFFCURVE",
"76 92 OFFCURVE",
"76 37 CURVE SMOOTH",
"76 14 OFFCURVE",
"142.667 3 OFFCURVE",
"276 3 CURVE SMOOTH"
);
}
);
width = 1428;
},
{
layerId = "5CBF0BAD-1756-4F16-9711-93DC239D102B";
paths = (
{
closed = 1;
nodes = (
"397 1 OFFCURVE",
"516 4 OFFCURVE",
"516 58 CURVE SMOOTH",
"516 85 OFFCURVE",
"469 148 OFFCURVE",
"469 218 CURVE SMOOTH",
"469 269 OFFCURVE",
"630 522 OFFCURVE",
"685 522 CURVE SMOOTH",
"724 522 OFFCURVE",
"894 216 OFFCURVE",
"894 159 CURVE SMOOTH",
"894 99 OFFCURVE",
"862 91 OFFCURVE",
"864 60 CURVE SMOOTH",
"868 -13 OFFCURVE",
"979 -1 OFFCURVE",
"1106 -1 CURVE SMOOTH",
"1255 0 OFFCURVE",
"1414 -8 OFFCURVE",
"1414 64 CURVE SMOOTH",
"1414 110 OFFCURVE",
"1281 179 OFFCURVE",
"1237 232 CURVE SMOOTH",
"1170 313 OFFCURVE",
"892 693 OFFCURVE",
"892 732 CURVE SMOOTH",
"892 780 OFFCURVE",
"974 908.333 OFFCURVE",
"1138 1117 CURVE SMOOTH",
"1233 1240 OFFCURVE",
"1376 1265 OFFCURVE",
"1376 1348 CURVE SMOOTH",
"1376 1374.667 OFFCURVE",
"1289 1388 OFFCURVE",
"1115 1388 CURVE SMOOTH",
"1012 1388 OFFCURVE",
"926 1375 OFFCURVE",
"926 1347 CURVE SMOOTH",
"926 1300 OFFCURVE",
"971 1289 OFFCURVE",
"971 1208 CURVE SMOOTH",
"971 1145 OFFCURVE",
"826 915 OFFCURVE",
"761 915 CURVE SMOOTH",
"745 915 OFFCURVE",
"577 1171.333 OFFCURVE",
"577 1210 CURVE SMOOTH",
"577 1243.038 OFFCURVE",
"609 1292.572 OFFCURVE",
"609 1311 CURVE SMOOTH",
"609 1383 OFFCURVE",
"581 1394 OFFCURVE",
"466 1394 CURVE SMOOTH",
"275 1394 OFFCURVE",
"68 1402 OFFCURVE",
"68 1331 CURVE SMOOTH",
"68 1293 OFFCURVE",
"225 1188 OFFCURVE",
"276 1120 CURVE SMOOTH",
"457.333 877.333 OFFCURVE",
"548 733.667 OFFCURVE",
"548 689 CURVE SMOOTH",
"548 624 OFFCURVE",
"254 236 OFFCURVE",
"180 177 CURVE SMOOTH",
"96 111.667 OFFCURVE",
"54 71 OFFCURVE",
"54 55 CURVE SMOOTH",
"54 17 OFFCURVE",
"172 -1 OFFCURVE",
"297 -1 CURVE SMOOTH"
);
}
);
width = 1458;
}
);
note = uni0058;
unicode = 0058;
},
{
color = 11;
glyphname = Y;
layers = (
{
layerId = "92A672BF-229C-4BEC-8D25-4DDBB2A38145";
paths = (
{
closed = 1;
nodes = (
"858 -7 OFFCURVE",
"923 -14 OFFCURVE",
"923 32 CURVE SMOOTH",
"923 68.531 OFFCURVE",
"834.213 90.412 OFFCURVE",
"802.5 129.5 CURVE SMOOTH",
"788.167 147.167 OFFCURVE",
"781 178 OFFCURVE",
"781 222 CURVE SMOOTH",
"781 640 OFFCURVE",
"863 803 OFFCURVE",
"1119 1184 CURVE SMOOTH",
"1160.46 1245.63 OFFCURVE",
"1294 1317.351 OFFCURVE",
"1294 1360 CURVE SMOOTH",
"1294 1383.333 OFFCURVE",
"1254 1395 OFFCURVE",
"1174 1395 CURVE SMOOTH",
"1012 1395 OFFCURVE",
"933 1383 OFFCURVE",
"933 1349 CURVE SMOOTH",
"933 1321 OFFCURVE",
"973 1282 OFFCURVE",
"973 1247 CURVE SMOOTH",
"973 1166 OFFCURVE",
"770 739 OFFCURVE",
"709 739 CURVE SMOOTH",
"666 739 OFFCURVE",
"438 1193 OFFCURVE",
"438 1258 CURVE SMOOTH",
"438 1278 OFFCURVE",
"492 1325 OFFCURVE",
"492 1341 CURVE SMOOTH",
"492 1370.333 OFFCURVE",
"454 1385 OFFCURVE",
"378 1385 CURVE SMOOTH",
"233 1385 OFFCURVE",
"63 1386 OFFCURVE",
"63 1329.5 CURVE SMOOTH",
"63 1307.833 OFFCURVE",
"82.833 1286.5 OFFCURVE",
"122.5 1265.5 CURVE SMOOTH",
"279 1183 OFFCURVE",
"574 637 OFFCURVE",
"574 386.5 CURVE SMOOTH",
"574 275.5 OFFCURVE",
"568.333 204.667 OFFCURVE",
"557 174 CURVE SMOOTH",
"535.487 115.789 OFFCURVE",
"435 72.909 OFFCURVE",
"435 27 CURVE SMOOTH",
"435 7 OFFCURVE",
"498.333 -3 OFFCURVE",
"625 -3 CURVE SMOOTH"
);
}
);
width = 1340;
},
{
layerId = "5CBF0BAD-1756-4F16-9711-93DC239D102B";
paths = (
{
closed = 1;
nodes = (
"901 -24 OFFCURVE",
"980 -32 OFFCURVE",
"980 31 CURVE SMOOTH",
"980 71 OFFCURVE",
"870 146 OFFCURVE",
"870 258 CURVE SMOOTH",
"870 339 OFFCURVE",
"878 416 OFFCURVE",
"893 491 CURVE SMOOTH",
"939 713 OFFCURVE",
"1049 912 OFFCURVE",
"1203 1143 CURVE SMOOTH",
"1258 1227 OFFCURVE",
"1364 1234 OFFCURVE",
"1364 1338 CURVE SMOOTH",
"1364 1372 OFFCURVE",
"1322.333 1389 OFFCURVE",
"1239 1389 CURVE SMOOTH",
"1092 1389 OFFCURVE",
"939 1386 OFFCURVE",
"939 1307 CURVE SMOOTH",
"939 1254 OFFCURVE",
"986 1196 OFFCURVE",
"986 1134 CURVE SMOOTH",
"986 1065 OFFCURVE",
"809 749 OFFCURVE",
"759 749 CURVE SMOOTH",
"718 749 OFFCURVE",
"538 1151 OFFCURVE",
"538 1214 CURVE SMOOTH",
"538 1230 OFFCURVE",
"556 1251 OFFCURVE",
"556 1320 CURVE SMOOTH",
"556 1368 OFFCURVE",
"508.333 1392 OFFCURVE",
"413 1392 CURVE SMOOTH",
"139 1392 OFFCURVE",
"45 1376 OFFCURVE",
"45 1310 CURVE SMOOTH",
"45 1239 OFFCURVE",
"155 1202 OFFCURVE",
"201 1138 CURVE SMOOTH",
"345 944 OFFCURVE",
"582 570 OFFCURVE",
"582 371 CURVE SMOOTH",
"582 292 OFFCURVE",
"564 239 OFFCURVE",
"541 198 CURVE SMOOTH",
"505 133 OFFCURVE",
"459 99 OFFCURVE",
"457 41 CURVE SMOOTH",
"455 -15 OFFCURVE",
"474 -24 OFFCURVE",
"818 -24 CURVE SMOOTH"
);
}
);
width = 1403;
}
);
note = uni0059;
unicode = 0059;
},
{
color = 11;
glyphname = Z;
layers = (
{
layerId = "92A672BF-229C-4BEC-8D25-4DDBB2A38145";
paths = (
{
closed = 1;
nodes = (
"943 -7 LINE SMOOTH",
"1053 -7 OFFCURVE",
"1118.333 7.333 OFFCURVE",
"1139 36 CURVE SMOOTH",
"1178 89 OFFCURVE",
"1187 190 OFFCURVE",
"1187 279 CURVE SMOOTH",
"1187 316.333 OFFCURVE",
"1175 335 OFFCURVE",
"1151 335 CURVE SMOOTH",
"1135 335 OFFCURVE",
"1106 297.667 OFFCURVE",
"1064 223 CURVE SMOOTH",
"996 102 OFFCURVE",
"855 100 OFFCURVE",
"645 100 CURVE SMOOTH",
"487.667 100 OFFCURVE",
"409 107.667 OFFCURVE",
"409 123 CURVE SMOOTH",
"409 155 OFFCURVE",
"1146 1203 OFFCURVE",
"1146 1319 CURVE SMOOTH",
"1146 1349 OFFCURVE",
"1111 1379 OFFCURVE",
"1085 1381 CURVE SMOOTH",
"1038 1385 OFFCURVE",
"718 1393 OFFCURVE",
"691 1394 CURVE SMOOTH",
"304 1395 OFFCURVE",
"185 1391 OFFCURVE",
"163 1369 CURVE SMOOTH",
"134.333 1340.333 OFFCURVE",
"120 1259.333 OFFCURVE",
"120 1126 CURVE SMOOTH",
"120 1085.333 OFFCURVE",
"134.333 1065 OFFCURVE",
"163 1065 CURVE SMOOTH",
"185.667 1065 OFFCURVE",
"211.667 1091 OFFCURVE",
"241 1143 CURVE SMOOTH",
"326 1294 OFFCURVE",
"445 1285 OFFCURVE",
"694 1285 CURVE SMOOTH",
"799.333 1285 OFFCURVE",
"852 1272 OFFCURVE",
"852 1243.5 CURVE SMOOTH",
"852 1203 OFFCURVE",
"109 155 OFFCURVE",
"109 58 CURVE SMOOTH",
"109 3 OFFCURVE",
"186 1 OFFCURVE",
"283 1 CURVE SMOOTH"
);
}
);
width = 1273;
},
{
layerId = "5CBF0BAD-1756-4F16-9711-93DC239D102B";
paths = (
{
closed = 1;
nodes = (
"1003 -1 LINE SMOOTH",
"1086.333 -1 OFFCURVE",
"1137.333 14.333 OFFCURVE",
"1156 45 CURVE SMOOTH",
"1187.333 96.333 OFFCURVE",
"1203 179.667 OFFCURVE",
"1203 295 CURVE SMOOTH",
"1203 348.333 OFFCURVE",
"1187.333 375 OFFCURVE",
"1156 375 CURVE SMOOTH",
"1125 375 OFFCURVE",
"899 187 OFFCURVE",
"874 180.5 CURVE SMOOTH",
"826 160 OFFCURVE",
"732 148 OFFCURVE",
"645 146 CURVE SMOOTH",
"545 144 OFFCURVE",
"454 157 OFFCURVE",
"454 189 CURVE SMOOTH",
"454 486.464 OFFCURVE",
"1164 969.021 OFFCURVE",
"1164 1308 CURVE SMOOTH",
"1164 1349 OFFCURVE",
"1152 1373 OFFCURVE",
"1129 1380 CURVE SMOOTH",
"1105 1386 OFFCURVE",
"954 1389 OFFCURVE",
"676 1389 CURVE SMOOTH",
"312 1389 OFFCURVE",
"180 1387 OFFCURVE",
"158 1368 CURVE SMOOTH",
"127.333 1342.667 OFFCURVE",
"112 1264.333 OFFCURVE",
"112 1133 CURVE SMOOTH",
"112 1075.667 OFFCURVE",
"128 1047 OFFCURVE",
"160 1047 CURVE SMOOTH",
"181 1047 OFFCURVE",
"223 1068 OFFCURVE",
"276 1096 CURVE SMOOTH",
"386 1154 OFFCURVE",
"541 1243 OFFCURVE",
"643 1245 CURVE SMOOTH",
"719 1245 OFFCURVE",
"785 1230 OFFCURVE",
"785 1190 CURVE SMOOTH",
"785 977 OFFCURVE",
"98 283 OFFCURVE",
"82 89 CURVE SMOOTH",
"73 4 OFFCURVE",
"132 -1 OFFCURVE",
"231 -1 CURVE SMOOTH"
);
}
);
width = 1278;
}
);
note = uni005A;
unicode = 005A;
},
{
color = 11;
glyphname = a;
layers = (
{
layerId = "92A672BF-229C-4BEC-8D25-4DDBB2A38145";
paths = (
{
closed = 1;
nodes = (
"439 -20 OFFCURVE",
"629 82 OFFCURVE",
"642 82 CURVE SMOOTH",
"659 82 OFFCURVE",
"742 -9 OFFCURVE",
"791 -9 CURVE SMOOTH",
"861 -9 OFFCURVE",
"973 19 OFFCURVE",
"973 65 CURVE SMOOTH",
"973 102 OFFCURVE",
"867 117 OFFCURVE",
"844 174 CURVE SMOOTH",
"837 192 OFFCURVE",
"836 295.667 OFFCURVE",
"836 485 CURVE SMOOTH",
"836 819 OFFCURVE",
"804 974 OFFCURVE",
"503 974 CURVE SMOOTH",
"290 974 OFFCURVE",
"125 891 OFFCURVE",
"125 780 CURVE SMOOTH",
"125 717.333 OFFCURVE",
"166 689 OFFCURVE",
"186 689 CURVE SMOOTH",
"314 689 OFFCURVE",
"325 875 OFFCURVE",
"465 875 CURVE SMOOTH",
"562 875 OFFCURVE",
"624 833 OFFCURVE",
"622 731 CURVE SMOOTH",
"619 577 OFFCURVE",
"593 561 OFFCURVE",
"476 531.5 CURVE SMOOTH",
"240 473 OFFCURVE",
"84 425 OFFCURVE",
"84 219 CURVE SMOOTH",
"84 66 OFFCURVE",
"175 -20 OFFCURVE",
"358 -20 CURVE SMOOTH"
);
},
{
closed = 1;
nodes = (
"283 94 OFFCURVE",
"269 159 OFFCURVE",
"271 262 CURVE SMOOTH",
"273 357 OFFCURVE",
"420 462 OFFCURVE",
"593 462 CURVE SMOOTH",
"629 462 OFFCURVE",
"646 453 OFFCURVE",
"646 421 CURVE SMOOTH",
"646 278 LINE SMOOTH",
"646 167 OFFCURVE",
"530 94 OFFCURVE",
"400 94 CURVE SMOOTH"
);
}
);
width = 1050;
},
{
layerId = "5CBF0BAD-1756-4F16-9711-93DC239D102B";
paths = (
{
closed = 1;
nodes = (
"494 -29 OFFCURVE",
"636 73 OFFCURVE",
"650 73 CURVE SMOOTH",
"678 73 OFFCURVE",
"742 -16 OFFCURVE",
"798 -16 CURVE SMOOTH",
"892 -16 OFFCURVE",
"1051 17 OFFCURVE",
"1051 77 CURVE SMOOTH",
"1051 149 OFFCURVE",
"951 161 OFFCURVE",
"935.5 197.5 CURVE SMOOTH",
"924 224 OFFCURVE",
"919 323.667 OFFCURVE",
"919 497 CURVE SMOOTH",
"919 849 OFFCURVE",
"871 980 OFFCURVE",
"538 980 CURVE SMOOTH",
"364 980 OFFCURVE",
"122 903 OFFCURVE",
"122 754 CURVE SMOOTH",
"122 715.333 OFFCURVE",
"156.333 670 OFFCURVE",
"223 670 CURVE SMOOTH",
"367 670 OFFCURVE",
"381 839 OFFCURVE",
"515 839 CURVE SMOOTH",
"581.667 839 OFFCURVE",
"640 793.667 OFFCURVE",
"640 683 CURVE SMOOTH",
"640 587 OFFCURVE",
"590 572 OFFCURVE",
"467 553 CURVE SMOOTH",
"200.333 508.333 OFFCURVE",
"67 399.333 OFFCURVE",
"67 226 CURVE SMOOTH",
"68.333 64.667 OFFCURVE",
"180.667 -29 OFFCURVE",
"354 -29 CURVE SMOOTH"
);
},
{
closed = 1;
nodes = (
"386.667 128 OFFCURVE",
"338 185 OFFCURVE",
"338 253 CURVE SMOOTH",
"338 388 OFFCURVE",
"436 454 OFFCURVE",
"617 454 CURVE SMOOTH",
"635.667 454 OFFCURVE",
"645 439 OFFCURVE",
"645 409 CURVE SMOOTH",
"646 291 LINE SMOOTH",
"645 189 OFFCURVE",
"579 128 OFFCURVE",
"448 128 CURVE SMOOTH"
);
}
);
width = 1109;
}
);
note = uni0061;
unicode = 0061;
},
{
color = 11;
glyphname = b;
layers = (
{
layerId = "92A672BF-229C-4BEC-8D25-4DDBB2A38145";
paths = (
{
closed = 1;
nodes = (
"878 -13 OFFCURVE",
"1048 201 OFFCURVE",
"1048 474 CURVE SMOOTH",
"1048 757 OFFCURVE",
"897 945 OFFCURVE",
"676 945 CURVE SMOOTH",
"519 945 OFFCURVE",
"428 877 OFFCURVE",
"397 877 CURVE SMOOTH",
"370.333 877 OFFCURVE",
"357 956.167 OFFCURVE",
"357 1114.5 CURVE SMOOTH",
"357 1325 OFFCURVE",
"375 1455 OFFCURVE",
"264 1455 CURVE SMOOTH",
"193 1455 OFFCURVE",
"55 1440 OFFCURVE",
"55 1409 CURVE SMOOTH",
"50 1382 OFFCURVE",
"130 1346 OFFCURVE",
"151 1306 CURVE SMOOTH",
"183 1245 OFFCURVE",
"174 1126 OFFCURVE",
"170 697 CURVE SMOOTH",
"165 243 OFFCURVE",
"154 181 OFFCURVE",
"154 124 CURVE SMOOTH",
"154 56 OFFCURVE",
"180 22 OFFCURVE",
"232 22 CURVE SMOOTH",
"256 22 OFFCURVE",
"276 33 OFFCURVE",
"311 33 CURVE SMOOTH",
"418 33 OFFCURVE",
"482 -13 OFFCURVE",
"612 -13 CURVE SMOOTH"
);
},
{
closed = 1;
nodes = (
"392 72 OFFCURVE",
"357 139 OFFCURVE",
"357 358 CURVE SMOOTH",
"358 735 OFFCURVE",
"412 860 OFFCURVE",
"602 860 CURVE SMOOTH",
"752 860 OFFCURVE",
"845 715 OFFCURVE",
"846 458 CURVE SMOOTH",
"846 278 OFFCURVE",
"766 72 OFFCURVE",
"605 72 CURVE SMOOTH"
);
}
);
width = 1149;
},
{
layerId = "5CBF0BAD-1756-4F16-9711-93DC239D102B";
paths = (
{
closed = 1;
nodes = (
"912 -20 OFFCURVE",
"1114 206 OFFCURVE",
"1114 504 CURVE SMOOTH",
"1114 758.667 OFFCURVE",
"962 964 OFFCURVE",
"721 964 CURVE SMOOTH",
"604 964 OFFCURVE",
"509 913 OFFCURVE",
"474 913 CURVE SMOOTH",
"444 913 OFFCURVE",
"435 996 OFFCURVE",
"435 1163 CURVE SMOOTH",
"435 1352 OFFCURVE",
"450 1455 OFFCURVE",
"336 1455 CURVE SMOOTH",
"185 1455 OFFCURVE",
"47 1414 OFFCURVE",
"47 1361 CURVE SMOOTH",
"47 1331 OFFCURVE",
"158 1228 OFFCURVE",
"163 1202 CURVE SMOOTH",
"169.667 1164.667 OFFCURVE",
"173 1017 OFFCURVE",
"173 759 CURVE SMOOTH",
"172 458 OFFCURVE",
"134 311 OFFCURVE",
"133 95 CURVE SMOOTH",
"133 38 OFFCURVE",
"132 0 OFFCURVE",
"230 0 CURVE SMOOTH",
"268 0 OFFCURVE",
"307 18 OFFCURVE",
"354 18 CURVE SMOOTH",
"387 18 OFFCURVE",
"590 -20 OFFCURVE",
"630 -20 CURVE SMOOTH"
);
},
{
closed = 1;
nodes = (
"448 110 OFFCURVE",
"432 141 OFFCURVE",
"424 485 CURVE SMOOTH",
"424 700 OFFCURVE",
"436 835 OFFCURVE",
"599 835 CURVE SMOOTH",
"757 835 OFFCURVE",
"825 702 OFFCURVE",
"825 434 CURVE SMOOTH",
"825 251.333 OFFCURVE",
"734.333 110 OFFCURVE",
"629 110 CURVE SMOOTH"
);
}
);
width = 1200;
}
);
note = uni0062;
unicode = 0062;
},
{
color = 11;
glyphname = c;
layers = (
{
layerId = "92A672BF-229C-4BEC-8D25-4DDBB2A38145";
paths = (
{
closed = 1;
nodes = (
"715.667 -18 OFFCURVE",
"888 86.333 OFFCURVE",
"888 153 CURVE SMOOTH",
"888 178 OFFCURVE",
"889 189 OFFCURVE",
"864 189 CURVE SMOOTH",
"827 189 OFFCURVE",
"685 93 OFFCURVE",
"600 93 CURVE SMOOTH",
"396 93 OFFCURVE",
"283 242.5 OFFCURVE",
"283 476.5 CURVE SMOOTH",
"283 653 OFFCURVE",
"350 849 OFFCURVE",
"499 849 CURVE SMOOTH",
"712 849 OFFCURVE",
"741 682 OFFCURVE",
"813 682 CURVE SMOOTH",
"864 682 OFFCURVE",
"886 738 OFFCURVE",
"887 804 CURVE SMOOTH",
"887 925 OFFCURVE",
"731 967 OFFCURVE",
"582 967 CURVE SMOOTH",
"276 967 OFFCURVE",
"86 763 OFFCURVE",
"86 458.5 CURVE SMOOTH",
"86 137 OFFCURVE",
"247 -18 OFFCURVE",
"569 -18 CURVE SMOOTH"
);
}
);
width = 973;
},
{
layerId = "5CBF0BAD-1756-4F16-9711-93DC239D102B";
paths = (
{
closed = 1;
nodes = (
"687 -20 OFFCURVE",
"927 74 OFFCURVE",
"927 159.5 CURVE SMOOTH",
"927 195.167 OFFCURVE",
"914 213 OFFCURVE",
"888 213 CURVE SMOOTH",
"858 213 OFFCURVE",
"680 153 OFFCURVE",
"615 153 CURVE SMOOTH",
"449 153 OFFCURVE",
"347 304 OFFCURVE",
"347 491 CURVE SMOOTH",
"348 668 OFFCURVE",
"403 835 OFFCURVE",
"547 835 CURVE SMOOTH",
"671 835 OFFCURVE",
"721 677 OFFCURVE",
"830 677 CURVE SMOOTH",
"888.667 677 OFFCURVE",
"918 723.333 OFFCURVE",
"918 816 CURVE SMOOTH",
"918 950 OFFCURVE",
"749 984 OFFCURVE",
"564 984 CURVE SMOOTH",
"279 984 OFFCURVE",
"72 771 OFFCURVE",
"72 457 CURVE SMOOTH",
"72 188 OFFCURVE",
"267 -20 OFFCURVE",
"532 -20 CURVE SMOOTH"
);
}
);
width = 1005;
}
);
note = uni0063;
unicode = 0063;
},
{
color = 11;
glyphname = d;
layers = (
{
layerId = "92A672BF-229C-4BEC-8D25-4DDBB2A38145";
paths = (
{
closed = 1;
nodes = (
"629 -18 OFFCURVE",
"725 81 OFFCURVE",
"765 81 CURVE SMOOTH",
"775 81 OFFCURVE",
"831 -8 OFFCURVE",
"906 -8 CURVE SMOOTH",
"969 -8 OFFCURVE",
"1076 8 OFFCURVE",
"1076 63 CURVE SMOOTH",
"1076 97 OFFCURVE",
"970 154 OFFCURVE",
"964 184 CURVE SMOOTH",
"958.667 213.333 OFFCURVE",
"956 426 OFFCURVE",
"956 805 CURVE SMOOTH",
"956 1017 OFFCURVE",
"965 1244 OFFCURVE",
"939 1368 CURVE SMOOTH",
"927 1426 OFFCURVE",
"907 1462 OFFCURVE",
"874 1462 CURVE SMOOTH",
"734 1462 OFFCURVE",
"647 1439 OFFCURVE",
"647 1399 CURVE SMOOTH",
"647 1364.185 OFFCURVE",
"732.03 1344.237 OFFCURVE",
"755 1301 CURVE SMOOTH",
"766 1280 OFFCURVE",
"772 1196 OFFCURVE",
"773 1118 CURVE SMOOTH",
"775 1000 OFFCURVE",
"770 941 OFFCURVE",
"703 941 CURVE SMOOTH",
"664 941 OFFCURVE",
"620 957 OFFCURVE",
"570 955 CURVE SMOOTH",
"272 943 OFFCURVE",
"90 752.667 OFFCURVE",
"90 442 CURVE SMOOTH",
"90 202 OFFCURVE",
"221 -18 OFFCURVE",
"444 -18 CURVE SMOOTH"
);
},
{
closed = 1;
nodes = (
"372.333 88 OFFCURVE",
"274 243.667 OFFCURVE",
"274 445 CURVE SMOOTH",
"276 724 OFFCURVE",
"363 872 OFFCURVE",
"534 872 CURVE SMOOTH",
"752 872 OFFCURVE",
"761 814 OFFCURVE",
"761 429 CURVE SMOOTH",
"761 169 OFFCURVE",
"703 88 OFFCURVE",
"515 88 CURVE SMOOTH"
);
}
);
width = 1176;
},
{
layerId = "5CBF0BAD-1756-4F16-9711-93DC239D102B";
paths = (
{
closed = 1;
nodes = (
"589 -26 OFFCURVE",
"697 53 OFFCURVE",
"761 57 CURVE SMOOTH",
"768 57 OFFCURVE",
"813 -15 OFFCURVE",
"871 -15 CURVE SMOOTH",
"1013 -15 OFFCURVE",
"1150 -2 OFFCURVE",
"1150 84 CURVE SMOOTH",
"1150 152 OFFCURVE",
"1061 200 OFFCURVE",
"1035 257.5 CURVE SMOOTH",
"1017 297 OFFCURVE",
"1011 487 OFFCURVE",
"1019 820 CURVE SMOOTH",
"1023 980 OFFCURVE",
"1026 1174 OFFCURVE",
"1027 1374 CURVE SMOOTH",
"1028 1450 OFFCURVE",
"985 1465 OFFCURVE",
"883 1465 CURVE SMOOTH",
"831.667 1465 OFFCURVE",
"617 1384 OFFCURVE",
"618 1373 CURVE SMOOTH",
"619 1361 OFFCURVE",
"637 1341 OFFCURVE",
"675 1308 CURVE SMOOTH",
"726 1263 OFFCURVE",
"751 1182 OFFCURVE",
"751 1065 CURVE SMOOTH",
"751 993 OFFCURVE",
"735 957 OFFCURVE",
"704 957 CURVE SMOOTH",
"661 957 OFFCURVE",
"634 964 OFFCURVE",
"552 964 CURVE SMOOTH",
"255 964 OFFCURVE",
"83 748 OFFCURVE",
"83 425 CURVE SMOOTH",
"83 188 OFFCURVE",
"245 -26 OFFCURVE",
"469 -26 CURVE SMOOTH"
);
},
{
closed = 1;
nodes = (
"432 124 OFFCURVE",
"341 258 OFFCURVE",
"341 451 CURVE SMOOTH",
"341 700 OFFCURVE",
"417 843 OFFCURVE",
"568 843 CURVE SMOOTH",
"704 843 OFFCURVE",
"741 773.667 OFFCURVE",
"741 543 CURVE SMOOTH",
"741 196 OFFCURVE",
"725 124 OFFCURVE",
"576 124 CURVE SMOOTH"
);
}
);
width = 1218;
}
);
note = uni0064;
unicode = 0064;
},
{
glyphname = e;
layers = (
{
layerId = "92A672BF-229C-4BEC-8D25-4DDBB2A38145";
paths = (
{
closed = 1;
nodes = (
"700 -19 OFFCURVE",
"894 63 OFFCURVE",
"894 157 CURVE SMOOTH",
"894 179 OFFCURVE",
"882.333 190 OFFCURVE",
"859 190 CURVE SMOOTH",
"831 190 OFFCURVE",
"691 100 OFFCURVE",
"600 100 CURVE SMOOTH",
"407 100 OFFCURVE",
"277 213.667 OFFCURVE",
"277 399 CURVE SMOOTH",
"277 476 OFFCURVE",
"376 487 OFFCURVE",
"590.5 498 CURVE SMOOTH",
"797 509 OFFCURVE",
"914 522 OFFCURVE",
"914 631 CURVE SMOOTH",
"914 847 OFFCURVE",
"769 972 OFFCURVE",
"532 972 CURVE SMOOTH",
"286 972 OFFCURVE",
"77 744 OFFCURVE",
"77 487 CURVE SMOOTH",
"77 165 OFFCURVE",
"236 -19 OFFCURVE",
"552 -19 CURVE SMOOTH"
);
},
{
closed = 1;
nodes = (
"310 567 OFFCURVE",
"283 576 OFFCURVE",
"283 610 CURVE SMOOTH",
"285 762 OFFCURVE",
"392 883 OFFCURVE",
"516 883 CURVE SMOOTH",
"645 883 OFFCURVE",
"725 794 OFFCURVE",
"725 663 CURVE SMOOTH",
"725 601 OFFCURVE",
"701 594 OFFCURVE",
"622 585 CURVE SMOOTH",
"354 567 LINE SMOOTH"
);
}
);
width = 1015;
},
{
layerId = "5CBF0BAD-1756-4F16-9711-93DC239D102B";
paths = (
{
closed = 1;
nodes = (
"739.667 -21 OFFCURVE",
"936 78.667 OFFCURVE",
"936 156 CURVE SMOOTH",
"936 188.667 OFFCURVE",
"921 205 OFFCURVE",
"891 205 CURVE SMOOTH",
"867 205 OFFCURVE",
"686 149 OFFCURVE",
"634 149 CURVE SMOOTH",
"489 149 OFFCURVE",
"362 244 OFFCURVE",
"362 377 CURVE SMOOTH",
"362 439.667 OFFCURVE",
"388 463 OFFCURVE",
"492 463 CURVE SMOOTH",
"754 463 OFFCURVE",
"969 473 OFFCURVE",
"969 621 CURVE SMOOTH",
"969 824 OFFCURVE",
"788 987 OFFCURVE",
"572 987 CURVE SMOOTH",
"271 987 OFFCURVE",
"71 787 OFFCURVE",
"71 491 CURVE SMOOTH",
"71 169 OFFCURVE",
"241 -21 OFFCURVE",
"569 -21 CURVE SMOOTH"
);
},
{
closed = 1;
nodes = (
"356 578 OFFCURVE",
"350 592 OFFCURVE",
"350 631 CURVE SMOOTH",
"350 752.333 OFFCURVE",
"444 853 OFFCURVE",
"528 853 CURVE SMOOTH",
"647 853 OFFCURVE",
"715 785 OFFCURVE",
"715 643 CURVE SMOOTH",
"715 607.667 OFFCURVE",
"698 590 OFFCURVE",
"664 590 CURVE SMOOTH",
"391 578 LINE SMOOTH"
);
}
);
width = 1050;
}
);
note = uni0065;
unicode = 0065;
},
{
color = 10;
glyphname = f;
layers = (
{
layerId = "92A672BF-229C-4BEC-8D25-4DDBB2A38145";
paths = (
{
closed = 1;
nodes = (
"522 -27 OFFCURVE",
"562 -15.667 OFFCURVE",
"562 7 CURVE SMOOTH",
"562 14.916 OFFCURVE",
"439.627 116.645 OFFCURVE",
"433 137 CURVE SMOOTH",
"411.644 202.592 OFFCURVE",
"411.096 702.91 OFFCURVE",
"447 776 CURVE SMOOTH",
"453.327 789.006 OFFCURVE",
"624 878.551 OFFCURVE",
"624 884 CURVE SMOOTH",
"624 922 OFFCURVE",
"491.448 966.552 OFFCURVE",
"468 990 CURVE SMOOTH",
"424 1030 OFFCURVE",
"419 1120 OFFCURVE",
"438 1205 CURVE SMOOTH",
"452 1273 OFFCURVE",
"482 1347 OFFCURVE",
"541 1354 CURVE SMOOTH",
"618 1361 OFFCURVE",
"662 1281 OFFCURVE",
"735 1266 CURVE SMOOTH",
"792 1256 OFFCURVE",
"829 1305 OFFCURVE",
"829 1364.5 CURVE SMOOTH",
"829 1392.167 OFFCURVE",
"741 1474 OFFCURVE",
"637 1474 CURVE SMOOTH",
"507 1474 OFFCURVE",
"403.333 1428 OFFCURVE",
"334 1336 CURVE SMOOTH",
"300.667 1292 OFFCURVE",
"262.667 1197.333 OFFCURVE",
"220 1052 CURVE SMOOTH",
"205.622 1005.484 OFFCURVE",
"133 893.67 OFFCURVE",
"133 876 CURVE SMOOTH",
"133 857.051 OFFCURVE",
"206.869 793.319 OFFCURVE",
"218 759 CURVE SMOOTH",
"236.589 701.683 OFFCURVE",
"233.905 215.318 OFFCURVE",
"218.5 147 CURVE SMOOTH",
"209.623 107.631 OFFCURVE",
"100 34.129 OFFCURVE",
"100 18 CURVE SMOOTH",
"100 -14 OFFCURVE",
"203 -26 OFFCURVE",
"442 -27 CURVE SMOOTH"
);
}
);
width = 738;
},
{
layerId = "5CBF0BAD-1756-4F16-9711-93DC239D102B";
paths = (
{
closed = 1;
nodes = (
"412 1483 OFFCURVE",
"260 1321 OFFCURVE",
"206 1080 CURVE SMOOTH",
"198 1043.333 OFFCURVE",
"178.5 1001.5 OFFCURVE",
"147.5 954.5 CURVE SMOOTH",
"116.5 907.5 OFFCURVE",
"101 880 OFFCURVE",
"101 872 CURVE SMOOTH",
"101 822 OFFCURVE",
"189 780 OFFCURVE",
"203 739 CURVE SMOOTH",
"212.333 712.333 OFFCURVE",
"217 631.167 OFFCURVE",
"217 495.5 CURVE SMOOTH",
"217 359.833 OFFCURVE",
"211.667 266.833 OFFCURVE",
"201 216.5 CURVE SMOOTH",
"190.333 166.167 OFFCURVE",
"170.167 124.667 OFFCURVE",
"140.5 92 CURVE",
"189.901 164.127 OFFCURVE",
"96 36.145 OFFCURVE",
"96 24 CURVE SMOOTH",
"96 -4.667 OFFCURVE",
"110.667 -21 OFFCURVE",
"140 -25 CURVE SMOOTH",
"198.667 -33 OFFCURVE",
"275 -37 OFFCURVE",
"369 -37 CURVE SMOOTH",
"424 -37 LINE SMOOTH",
"540.842 -37 OFFCURVE",
"633 -31.49 OFFCURVE",
"633 23.5 CURVE SMOOTH",
"633 93.559 OFFCURVE",
"531.808 136.222 OFFCURVE",
"511 182 CURVE SMOOTH",
"480 244 OFFCURVE",
"489 351 OFFCURVE",
"489 484 CURVE SMOOTH",
"489 618 OFFCURVE",
"497 703.667 OFFCURVE",
"513 741 CURVE SMOOTH",
"520.333 757.667 OFFCURVE",
"551.5 776.833 OFFCURVE",
"606.5 798.5 CURVE SMOOTH",
"661.5 820.167 OFFCURVE",
"689 842.667 OFFCURVE",
"689 866 CURVE SMOOTH",
"689 898.667 OFFCURVE",
"666.333 928.333 OFFCURVE",
"621 955 CURVE SMOOTH",
"556.333 993 OFFCURVE",
"522.667 1014.333 OFFCURVE",
"520 1019 CURVE SMOOTH",
"502 1049 OFFCURVE",
"494 1099 OFFCURVE",
"497 1147 CURVE SMOOTH",
"503 1220 OFFCURVE",
"538 1290 OFFCURVE",
"603 1290 CURVE SMOOTH",
"617 1290 OFFCURVE",
"717 1251 OFFCURVE",
"773.5 1251 CURVE SMOOTH",
"826 1251 OFFCURVE",
"860 1283 OFFCURVE",
"853 1344 CURVE SMOOTH",
"835 1472 OFFCURVE",
"812 1483 OFFCURVE",
"637 1483 CURVE SMOOTH"
);
}
);
width = 795;
}
);
note = uni0066;
unicode = 0066;
},
{
color = 10;
glyphname = g;
layers = (
{
layerId = "92A672BF-229C-4BEC-8D25-4DDBB2A38145";
paths = (
{
closed = 1;
nodes = (
"687 607 LINE",
"686 576 LINE",
"685 568 LINE",
"684 561 LINE",
"684 463.667 OFFCURVE",
"599.667 389 OFFCURVE",
"505 389 CURVE SMOOTH",
"481 389 LINE SMOOTH",
"358.333 389 OFFCURVE",
"304 491.333 OFFCURVE",
"304 614 CURVE",
"303 623 LINE",
"303 667 LINE SMOOTH",
"303 808.333 OFFCURVE",
"389.667 915 OFFCURVE",
"471 915 CURVE SMOOTH",
"505 915 LINE SMOOTH",
"549 915 OFFCURVE",
"586.667 894 OFFCURVE",
"618 852 CURVE SMOOTH",
"662 793.333 OFFCURVE",
"684 728.333 OFFCURVE",
"684 657 CURVE",
"686 616 LINE"
);
},
{
closed = 1;
nodes = (
"421 28 LINE",
"456 27 LINE",
"465 26 LINE",
"573 20 LINE",
"591 18 LINE",
"603 18 OFFCURVE",
"621 16.667 OFFCURVE",
"645 14 CURVE",
"763.667 14 OFFCURVE",
"842 -45 OFFCURVE",
"842 -133 CURVE SMOOTH",
"842 -141 LINE SMOOTH",
"842 -246.333 OFFCURVE",
"719.333 -357 OFFCURVE",
"562 -357 CURVE SMOOTH",
"556.667 -357 OFFCURVE",
"547.333 -357.667 OFFCURVE",
"534 -359 CURVE",
"479 -359 LINE SMOOTH",
"325.667 -359 OFFCURVE",
"221 -274.333 OFFCURVE",
"221 -173 CURVE",
"220 -165 LINE",
"220 -147 LINE SMOOTH",
"220 -96.333 OFFCURVE",
"242 -50.667 OFFCURVE",
"286 -10 CURVE SMOOTH",
"313.333 15.333 OFFCURVE",
"352.667 28 OFFCURVE",
"404 28 CURVE SMOOTH"
);
},
{
closed = 1;
nodes = (
"569 972 LINE",
"367.667 972 OFFCURVE",
"233.333 905.667 OFFCURVE",
"166 773 CURVE SMOOTH",
"143.333 728.333 OFFCURVE",
"132 683.667 OFFCURVE",
"132 639 CURVE SMOOTH",
"132 563.667 OFFCURVE",
"160 487.333 OFFCURVE",
"216 410 CURVE SMOOTH",
"233.333 386 OFFCURVE",
"241.667 368 OFFCURVE",
"241 356 CURVE",
"241 314.142 OFFCURVE",
"154 234.405 OFFCURVE",
"154 169 CURVE SMOOTH",
"154 139 OFFCURVE",
"162.667 112 OFFCURVE",
"180 88 CURVE",
"215 50 LINE",
"221 33 LINE",
"221 -16.159 OFFCURVE",
"83 -112.656 OFFCURVE",
"83 -210.5 CURVE SMOOTH",
"83 -258.833 OFFCURVE",
"96.667 -301 OFFCURVE",
"124 -337 CURVE SMOOTH",
"188.667 -422.333 OFFCURVE",
"316 -465 OFFCURVE",
"506 -465 CURVE SMOOTH",
"636.667 -465 OFFCURVE",
"750 -432.667 OFFCURVE",
"846 -368 CURVE SMOOTH",
"940.667 -303.333 OFFCURVE",
"988 -220.833 OFFCURVE",
"988 -120.5 CURVE SMOOTH",
"988 -20.167 OFFCURVE",
"942.667 50.667 OFFCURVE",
"852 92 CURVE SMOOTH",
"804 113.333 OFFCURVE",
"720 128 OFFCURVE",
"600 136 CURVE SMOOTH",
"479.333 144 OFFCURVE",
"411 150 OFFCURVE",
"395 154 CURVE SMOOTH",
"336.333 166.667 OFFCURVE",
"307 189.333 OFFCURVE",
"307 222 CURVE SMOOTH",
"307 254.667 OFFCURVE",
"322.667 279 OFFCURVE",
"354 295 CURVE SMOOTH",
"370.667 303 OFFCURVE",
"416.667 309 OFFCURVE",
"492 313 CURVE SMOOTH",
"671.333 321 OFFCURVE",
"792 384.667 OFFCURVE",
"854 504 CURVE SMOOTH",
"876 545.333 OFFCURVE",
"887 585 OFFCURVE",
"887 623 CURVE SMOOTH",
"887 663.667 OFFCURVE",
"883.333 699.333 OFFCURVE",
"876 730 CURVE",
"861 782 LINE",
"856 804 LINE",
"856 832.667 OFFCURVE",
"882.5 850.5 OFFCURVE",
"935.5 857.5 CURVE SMOOTH",
"988.5 864.5 OFFCURVE",
"1015 887 OFFCURVE",
"1015 925 CURVE SMOOTH",
"1015 953.667 OFFCURVE",
"981.333 968 OFFCURVE",
"914 968 CURVE",
"862 965 LINE SMOOTH",
"838 963.667 OFFCURVE",
"820.333 963 OFFCURVE",
"809 963 CURVE",
"759 966 LINE",
"733 967 LINE SMOOTH",
"679.667 969 OFFCURVE",
"648.333 970 OFFCURVE",
"639 970 CURVE SMOOTH",
"629.667 970 OFFCURVE",
"615.667 970.333 OFFCURVE",
"597 971 CURVE SMOOTH"
);
}
);
width = 1085;
},
{
layerId = "5CBF0BAD-1756-4F16-9711-93DC239D102B";
paths = (
{
closed = 1;
nodes = (
"646 676 LINE",
"646 625 LINE",
"645 604 LINE",
"644 597 LINE",
"643 591 LINE",
"643 504.333 OFFCURVE",
"583 427 OFFCURVE",
"515 427 CURVE SMOOTH",
"508 427 LINE SMOOTH",
"436 427 OFFCURVE",
"363 525 OFFCURVE",
"363 653 CURVE SMOOTH",
"363 704 LINE SMOOTH",
"363 810.667 OFFCURVE",
"424 901 OFFCURVE",
"492 901 CURVE SMOOTH",
"504 901 LINE SMOOTH",
"578.667 901 OFFCURVE",
"643 819.667 OFFCURVE",
"643 717 CURVE",
"645 683 LINE"
);
},
{
closed = 1;
nodes = (
"772 -9 OFFCURVE",
"808 -52.667 OFFCURVE",
"808 -94 CURVE",
"809 -101 LINE",
"809 -154.333 OFFCURVE",
"789 -195.667 OFFCURVE",
"749 -225 CURVE SMOOTH",
"685 -271.667 OFFCURVE",
"610.333 -295 OFFCURVE",
"525 -295 CURVE SMOOTH",
"481 -295 LINE SMOOTH",
"379.667 -295 OFFCURVE",
"306 -247.333 OFFCURVE",
"306 -162 CURVE SMOOTH",
"306 -141 LINE SMOOTH",
"306 -62.333 OFFCURVE",
"368 3 OFFCURVE",
"432 3 CURVE",
"459 6 LINE",
"480 7 LINE",
"487 8 LINE",
"509 8 LINE",
"542 5 LINE",
"546 5 OFFCURVE",
"550.667 4.667 OFFCURVE",
"556 4 CURVE",
"601 1 LINE",
"608 0 LINE",
"616 -1 LINE",
"640 -1 OFFCURVE",
"668 -3.667 OFFCURVE",
"700 -9 CURVE"
);
},
{
closed = 1;
nodes = (
"758 954 LINE",
"753.333 954 OFFCURVE",
"736 955.667 OFFCURVE",
"706 959 CURVE SMOOTH",
"652 965 LINE",
"578.667 970.333 OFFCURVE",
"539.333 973 OFFCURVE",
"534 973 CURVE SMOOTH",
"504 973 LINE SMOOTH",
"400.667 973 OFFCURVE",
"310 948.667 OFFCURVE",
"232 900 CURVE SMOOTH",
"175.333 865.333 OFFCURVE",
"134.333 816 OFFCURVE",
"109 752 CURVE SMOOTH",
"93.667 713.333 OFFCURVE",
"86 675 OFFCURVE",
"86 637 CURVE SMOOTH",
"86 634.333 OFFCURVE",
"86 632 OFFCURVE",
"86 630 CURVE SMOOTH",
"86 609.333 OFFCURVE",
"88.667 589.333 OFFCURVE",
"94 570 CURVE SMOOTH",
"110 512.667 OFFCURVE",
"135.333 464 OFFCURVE",
"170 424 CURVE SMOOTH",
"205.333 385.333 OFFCURVE",
"223 363 OFFCURVE",
"223 357 CURVE SMOOTH",
"223 351 OFFCURVE",
"205 324.667 OFFCURVE",
"169 278 CURVE SMOOTH",
"133 231.333 OFFCURVE",
"115 191 OFFCURVE",
"115 157 CURVE SMOOTH",
"115 123 OFFCURVE",
"139 71.667 OFFCURVE",
"187 3 CURVE",
"187 -10.333 OFFCURVE",
"175.5 -29.667 OFFCURVE",
"152.5 -55 CURVE SMOOTH",
"129.5 -80.333 OFFCURVE",
"115.333 -96.667 OFFCURVE",
"110 -104 CURVE SMOOTH",
"81.333 -144 OFFCURVE",
"67 -186 OFFCURVE",
"67 -230 CURVE SMOOTH",
"67 -362 OFFCURVE",
"200.667 -466 OFFCURVE",
"446 -466 CURVE SMOOTH",
"477 -466 LINE SMOOTH",
"549 -466 OFFCURVE",
"618.333 -456.667 OFFCURVE",
"685 -438 CURVE SMOOTH",
"819.667 -400.667 OFFCURVE",
"918.333 -337 OFFCURVE",
"981 -247 CURVE SMOOTH",
"1037.424 -166.043 OFFCURVE",
"1039.867 -41.091 OFFCURVE",
"998.5 23.5 CURVE SMOOTH",
"979.5 53.167 OFFCURVE",
"948.833 79.333 OFFCURVE",
"906.5 102 CURVE SMOOTH",
"793.33 162.595 OFFCURVE",
"537.516 140.588 OFFCURVE",
"440 173.5 CURVE",
"540.5 156 OFFCURVE",
"466.667 164.5 OFFCURVE",
"440 173.5 CURVE SMOOTH",
"413.333 182.5 OFFCURVE",
"400 199.333 OFFCURVE",
"400 224 CURVE SMOOTH",
"400 252 OFFCURVE",
"421 273 OFFCURVE",
"463 287 CURVE",
"465.667 287.667 OFFCURVE",
"502.667 292.333 OFFCURVE",
"574 301 CURVE SMOOTH",
"735.333 320.333 OFFCURVE",
"846 387.333 OFFCURVE",
"906 502 CURVE SMOOTH",
"928 543.333 OFFCURVE",
"939 585.667 OFFCURVE",
"939 629 CURVE SMOOTH",
"939 641.667 OFFCURVE",
"938 661.667 OFFCURVE",
"936 689 CURVE SMOOTH",
"935 715 LINE",
"935 749 OFFCURVE",
"939 773.667 OFFCURVE",
"947 789 CURVE SMOOTH",
"949.667 794.333 OFFCURVE",
"973.667 807 OFFCURVE",
"1019 827 CURVE SMOOTH",
"1093.989 860.745 OFFCURVE",
"1065.383 966 OFFCURVE",
"975 966 CURVE"
);
}
);
width = 1123;
}
);
note = uni0067;
unicode = 0067;
},
{
color = 10;
glyphname = h;
layers = (
{
layerId = "92A672BF-229C-4BEC-8D25-4DDBB2A38145";
paths = (
{
closed = 1;
nodes = (
"109 19.333 OFFCURVE",
"174.333 3 OFFCURVE",
"305 3 CURVE SMOOTH",
"435.667 3 OFFCURVE",
"501 17 OFFCURVE",
"501 45 CURVE SMOOTH",
"501 56.029 OFFCURVE",
"426.109 120.854 OFFCURVE",
"414.5 145 CURVE SMOOTH",
"393.084 189.546 OFFCURVE",
"397.762 648.111 OFFCURVE",
"426 714 CURVE SMOOTH",
"458 788.667 OFFCURVE",
"555.167 845 OFFCURVE",
"666.5 845 CURVE SMOOTH",
"722.167 845 OFFCURVE",
"763.5 822.667 OFFCURVE",
"790.5 778 CURVE SMOOTH",
"817.5 733.333 OFFCURVE",
"831 635.667 OFFCURVE",
"831 485 CURVE SMOOTH",
"830 372 LINE",
"832 299 LINE SMOOTH",
"832 205 OFFCURVE",
"829.667 152.833 OFFCURVE",
"825 142.5 CURVE SMOOTH",
"820.333 132.167 OFFCURVE",
"807.167 113.667 OFFCURVE",
"785.5 87 CURVE",
"812.995 115.918 OFFCURVE",
"753 56.864 OFFCURVE",
"753 31 CURVE SMOOTH",
"753 8.333 OFFCURVE",
"783 -3 OFFCURVE",
"843 -3 CURVE",
"949 1 LINE",
"984 3 LINE",
"1080 3 OFFCURVE",
"1128 16 OFFCURVE",
"1128 42 CURVE SMOOTH",
"1128 55.342 OFFCURVE",
"1043.081 114.863 OFFCURVE",
"1028 140.5 CURVE SMOOTH",
"1018 157.5 OFFCURVE",
"1013 199.333 OFFCURVE",
"1013 266 CURVE SMOOTH",
"1014 378 LINE",
"1015 415 LINE",
"1016 490 LINE SMOOTH",
"1016 663.333 OFFCURVE",
"996.667 782 OFFCURVE",
"958 846 CURVE SMOOTH",
"910 924 OFFCURVE",
"832 963 OFFCURVE",
"724 963 CURVE SMOOTH",
"673.333 963 OFFCURVE",
"611.833 949 OFFCURVE",
"539.5 921 CURVE SMOOTH",
"467.167 893 OFFCURVE",
"429 879 OFFCURVE",
"425 879 CURVE SMOOTH",
"403 879 OFFCURVE",
"392 918.333 OFFCURVE",
"392 997 CURVE SMOOTH",
"392 1022.333 OFFCURVE",
"393 1072 OFFCURVE",
"395 1146 CURVE SMOOTH",
"398 1256 LINE SMOOTH",
"398 1340.667 OFFCURVE",
"393.333 1395 OFFCURVE",
"384 1419 CURVE SMOOTH",
"371.333 1451.667 OFFCURVE",
"341.667 1468 OFFCURVE",
"295 1468 CURVE SMOOTH",
"223.667 1468 OFFCURVE",
"172 1460.333 OFFCURVE",
"140 1445 CURVE SMOOTH",
"108 1429.667 OFFCURVE",
"92 1416 OFFCURVE",
"92 1404 CURVE SMOOTH",
"92 1401.333 OFFCURVE",
"115.667 1383.333 OFFCURVE",
"163 1350 CURVE SMOOTH",
"181 1337.333 OFFCURVE",
"192.667 1312.333 OFFCURVE",
"198 1275 CURVE SMOOTH",
"225.797 1077.154 OFFCURVE",
"227.809 358.895 OFFCURVE",
"206.5 216 CURVE SMOOTH",
"199.485 168.96 OFFCURVE",
"109 69.104 OFFCURVE",
"109 52 CURVE SMOOTH"
);
}
);
width = 1216;
},
{
layerId = "5CBF0BAD-1756-4F16-9711-93DC239D102B";
paths = (
{
closed = 1;
nodes = (
"1210 69.292 OFFCURVE",
"1113.835 176.531 OFFCURVE",
"1106 195 CURVE SMOOTH",
"1034.25 364.125 OFFCURVE",
"1157.727 600.631 OFFCURVE",
"1038 829 CURVE SMOOTH",
"988 924.333 OFFCURVE",
"902.667 972 OFFCURVE",
"782 972 CURVE SMOOTH",
"715.333 972 OFFCURVE",
"641.333 953.333 OFFCURVE",
"560 916 CURVE SMOOTH",
"530.667 902.667 OFFCURVE",
"511.667 896 OFFCURVE",
"503 896 CURVE SMOOTH",
"482.333 896 OFFCURVE",
"468.667 907.667 OFFCURVE",
"462 931 CURVE SMOOTH",
"459.333 940.333 OFFCURVE",
"458 1019.5 OFFCURVE",
"458 1168.5 CURVE SMOOTH",
"458 1317.5 OFFCURVE",
"453.667 1403 OFFCURVE",
"445 1425 CURVE SMOOTH",
"431 1460.333 OFFCURVE",
"399.667 1478 OFFCURVE",
"351 1478 CURVE SMOOTH",
"249.667 1478 OFFCURVE",
"168.333 1465 OFFCURVE",
"107 1439 CURVE SMOOTH",
"78.333 1427 OFFCURVE",
"64 1407.333 OFFCURVE",
"64 1380 CURVE SMOOTH",
"64 1374.667 OFFCURVE",
"87.667 1350.667 OFFCURVE",
"135 1308 CURVE SMOOTH",
"155 1290 OFFCURVE",
"169.5 1263.333 OFFCURVE",
"178.5 1228 CURVE SMOOTH",
"187.5 1192.667 OFFCURVE",
"192 1031 OFFCURVE",
"192 743 CURVE SMOOTH",
"192 455 OFFCURVE",
"189.833 295 OFFCURVE",
"185.5 263 CURVE SMOOTH",
"181.167 231 OFFCURVE",
"148 160 OFFCURVE",
"86 50 CURVE",
"86 17.333 OFFCURVE",
"139.167 1 OFFCURVE",
"245.5 1 CURVE SMOOTH",
"351.833 1 OFFCURVE",
"431.333 6.667 OFFCURVE",
"484 18 CURVE SMOOTH",
"520 26 OFFCURVE",
"538 45 OFFCURVE",
"538 75 CURVE SMOOTH",
"538 149.569 OFFCURVE",
"458 428.955 OFFCURVE",
"458 500 CURVE SMOOTH",
"458 730.667 OFFCURVE",
"528.5 804 OFFCURVE",
"658.5 804 CURVE SMOOTH",
"723.5 804 OFFCURVE",
"767.667 779.5 OFFCURVE",
"791 730.5 CURVE SMOOTH",
"833.811 640.597 OFFCURVE",
"833.936 265.587 OFFCURVE",
"816 205.5 CURVE SMOOTH",
"809.333 183.167 OFFCURVE",
"788.667 134 OFFCURVE",
"754 58 CURVE",
"754 32.667 OFFCURVE",
"766.333 14.667 OFFCURVE",
"791 4 CURVE SMOOTH",
"815.667 -6.667 OFFCURVE",
"869.333 -12 OFFCURVE",
"952 -12 CURVE SMOOTH",
"1095.231 -12 OFFCURVE",
"1210 -3.315 OFFCURVE",
"1210 64 CURVE SMOOTH"
);
}
);
width = 1269;
}
);
note = uni0068;
unicode = 0068;
},
{
color = 10;
glyphname = i;
layers = (
{
layerId = "92A672BF-229C-4BEC-8D25-4DDBB2A38145";
paths = (
{
closed = 1;
nodes = (
"184 1222.667 OFFCURVE",
"239.333 1171 OFFCURVE",
"278 1171 CURVE SMOOTH",
"280.667 1171 OFFCURVE",
"284.667 1170.333 OFFCURVE",
"290 1169 CURVE",
"298 1169 LINE",
"302 1168 LINE",
"306 1168 LINE",
"330 1171 LINE",
"370 1171 OFFCURVE",
"433 1221 OFFCURVE",
"433 1261 CURVE",
"437 1284 LINE",
"437 1293 LINE",
"434 1317 LINE",
"434 1365 OFFCURVE",
"376.667 1412 OFFCURVE",
"322 1412 CURVE SMOOTH",
"306 1412 LINE",
"286 1409 LINE",
"210.433 1409 OFFCURVE",
"197.6 1358.401 OFFCURVE",
"184 1304 CURVE",
"184 1276 LINE SMOOTH"
);
},
{
closed = 1;
nodes = (
"222 -7 LINE",
"326 -4 LINE",
"370 -4 LINE",
"415 -3 LINE SMOOTH",
"424.333 -3 OFFCURVE",
"439 -2.333 OFFCURVE",
"459 -1 CURVE",
"517 -1 OFFCURVE",
"546 8.667 OFFCURVE",
"546 28 CURVE SMOOTH",
"546 39 LINE SMOOTH",
"546 51.995 OFFCURVE",
"429.9 112.849 OFFCURVE",
"422 140.5 CURVE SMOOTH",
"381.021 283.928 OFFCURVE",
"437.136 789.227 OFFCURVE",
"406 920 CURVE SMOOTH",
"399.333 947.333 OFFCURVE",
"376.667 961 OFFCURVE",
"338 961 CURVE SMOOTH",
"232 961 OFFCURVE",
"155.667 947 OFFCURVE",
"109 919 CURVE SMOOTH",
"94.333 910.333 OFFCURVE",
"87 899 OFFCURVE",
"87 885 CURVE SMOOTH",
"87 843.049 OFFCURVE",
"174.906 847.912 OFFCURVE",
"206.5 810 CURVE SMOOTH",
"218.167 796 OFFCURVE",
"224 762.333 OFFCURVE",
"224 709 CURVE SMOOTH",
"227 617 LINE",
"227 555 LINE",
"226 524 LINE",
"226 493 LINE",
"225 462 LINE SMOOTH",
"225 284 OFFCURVE",
"220.833 180.167 OFFCURVE",
"212.5 150.5 CURVE SMOOTH",
"204.167 120.833 OFFCURVE",
"182.667 98.167 OFFCURVE",
"148 82.5 CURVE",
"206.719 129.92 OFFCURVE",
"96 41.781 OFFCURVE",
"96 33 CURVE SMOOTH",
"96 6.333 OFFCURVE",
"118 -7 OFFCURVE",
"162 -7 CURVE SMOOTH"
);
}
);
width = 628;
},
{
layerId = "5CBF0BAD-1756-4F16-9711-93DC239D102B";
paths = (
{
closed = 1;
nodes = (
"187 1271 LINE",
"189 1261 LINE",
"189 1199.667 OFFCURVE",
"251.333 1144 OFFCURVE",
"326 1144 CURVE SMOOTH",
"357 1144 LINE SMOOTH",
"433 1144 OFFCURVE",
"508 1210 OFFCURVE",
"508 1266 CURVE SMOOTH",
"508 1269.333 OFFCURVE",
"508.667 1274.333 OFFCURVE",
"510 1281 CURVE",
"510 1307 LINE SMOOTH",
"510 1359 OFFCURVE",
"452 1432 OFFCURVE",
"388 1432 CURVE SMOOTH",
"381.333 1432 OFFCURVE",
"373 1433 OFFCURVE",
"363 1435 CURVE",
"331 1435 LINE SMOOTH",
"260.333 1435 OFFCURVE",
"187 1374.333 OFFCURVE",
"187 1297 CURVE SMOOTH"
);
},
{
closed = 1;
nodes = (
"545 -4 OFFCURVE",
"629 8 OFFCURVE",
"629 32 CURVE SMOOTH",
"629 44 LINE SMOOTH",
"629 56.038 OFFCURVE",
"513.383 191.068 OFFCURVE",
"503.5 229.5 CURVE SMOOTH",
"471.377 354.424 OFFCURVE",
"504.037 818.395 OFFCURVE",
"485 925 CURVE SMOOTH",
"479 957.667 OFFCURVE",
"456.667 974 OFFCURVE",
"418 974 CURVE SMOOTH",
"403 974 LINE SMOOTH",
"306.333 974 OFFCURVE",
"218 960.667 OFFCURVE",
"138 934 CURVE SMOOTH",
"65.632 909.422 OFFCURVE",
"68.014 847.124 OFFCURVE",
"142.5 811.5 CURVE SMOOTH",
"180.833 793.167 OFFCURVE",
"203.667 771.333 OFFCURVE",
"211 746 CURVE SMOOTH",
"218.333 720.667 OFFCURVE",
"222 637.167 OFFCURVE",
"222 495.5 CURVE SMOOTH",
"222 353.833 OFFCURVE",
"217.667 266.167 OFFCURVE",
"209 232.5 CURVE SMOOTH",
"200.333 198.833 OFFCURVE",
"179.333 165.333 OFFCURVE",
"146 132 CURVE SMOOTH",
"112.667 98.667 OFFCURVE",
"96 70.167 OFFCURVE",
"96 46.5 CURVE SMOOTH",
"96 22.833 OFFCURVE",
"158 6 OFFCURVE",
"282 -4 CURVE",
"377 -4 LINE SMOOTH"
);
}
);
width = 691;
}
);
note = uni0069;
unicode = 0069;
},
{
color = 10;
glyphname = j;
layers = (
{
layerId = "92A672BF-229C-4BEC-8D25-4DDBB2A38145";
paths = (
{
closed = 1;
nodes = (
"190 1228.667 OFFCURVE",
"240 1175 OFFCURVE",
"308 1175 CURVE SMOOTH",
"316 1175 LINE SMOOTH",
"389.333 1175 OFFCURVE",
"443 1231.333 OFFCURVE",
"443 1294 CURVE SMOOTH",
"443 1298 LINE",
"440 1322 LINE",
"440 1398.81 OFFCURVE",
"380.453 1402.887 OFFCURVE",
"324 1417 CURVE",
"316 1417 LINE SMOOTH",
"260 1417 OFFCURVE",
"190 1374 OFFCURVE",
"190 1306 CURVE SMOOTH",
"190 1282 LINE SMOOTH"
);
},
{
closed = 1;
nodes = (
"421 862.333 OFFCURVE",
"417 912.333 OFFCURVE",
"409 933 CURVE SMOOTH",
"401 953.667 OFFCURVE",
"381 964 OFFCURVE",
"349 964 CURVE SMOOTH",
"331 964 LINE SMOOTH",
"226.333 964 OFFCURVE",
"154 951 OFFCURVE",
"114 925 CURVE SMOOTH",
"102.667 917.667 OFFCURVE",
"97 906.667 OFFCURVE",
"97 892 CURVE SMOOTH",
"97 884.667 OFFCURVE",
"122.333 866.333 OFFCURVE",
"173 837 CURVE SMOOTH",
"199 822.333 OFFCURVE",
"215.667 797.833 OFFCURVE",
"223 763.5 CURVE SMOOTH",
"230.333 729.167 OFFCURVE",
"234 587.333 OFFCURVE",
"234 338 CURVE",
"246.715 652.472 OFFCURVE",
"244.896 16.715 OFFCURVE",
"215.5 -125.5 CURVE SMOOTH",
"190.833 -244.833 OFFCURVE",
"159.333 -276 OFFCURVE",
"82 -276 CURVE SMOOTH",
"43.333 -276 OFFCURVE",
"17 -279.333 OFFCURVE",
"3 -286 CURVE SMOOTH",
"-32.333 -303.333 OFFCURVE",
"-50 -328 OFFCURVE",
"-50 -360 CURVE SMOOTH",
"-50 -402.667 OFFCURVE",
"-22 -424 OFFCURVE",
"34 -424 CURVE SMOOTH",
"50 -424 LINE SMOOTH",
"198 -424 OFFCURVE",
"321.833 -323 OFFCURVE",
"378.5 -179 CURVE",
"306.833 -309.833 OFFCURVE",
"350.167 -251 OFFCURVE",
"378.5 -179 CURVE SMOOTH",
"406.833 -107 OFFCURVE",
"421 96 OFFCURVE",
"421 430 CURVE SMOOTH",
"421 783 LINE SMOOTH"
);
}
);
width = 585;
},
{
layerId = "5CBF0BAD-1756-4F16-9711-93DC239D102B";
paths = (
{
closed = 1;
nodes = (
"237 1157.333 OFFCURVE",
"283.667 1107 OFFCURVE",
"333 1107 CURVE SMOOTH",
"350 1107 LINE",
"359 1109 LINE",
"461.667 1109 OFFCURVE",
"531 1167 OFFCURVE",
"531 1271 CURVE SMOOTH",
"531 1282 LINE",
"528 1308 LINE",
"528 1342.667 OFFCURVE",
"466 1427 OFFCURVE",
"398 1427 CURVE SMOOTH",
"369 1427 LINE SMOOTH",
"317 1427 OFFCURVE",
"240 1352.667 OFFCURVE",
"240 1290 CURVE SMOOTH",
"240 1282 OFFCURVE",
"239 1273 OFFCURVE",
"237 1263 CURVE",
"237 1240 LINE SMOOTH"
);
},
{
closed = 1;
nodes = (
"528 456 LINE SMOOTH",
"528 690.667 OFFCURVE",
"522.333 846.667 OFFCURVE",
"511 924 CURVE SMOOTH",
"505 966.667 OFFCURVE",
"480 988 OFFCURVE",
"436 988 CURVE SMOOTH",
"418 988 LINE SMOOTH",
"335.333 988 OFFCURVE",
"259 976.333 OFFCURVE",
"189 953 CURVE SMOOTH",
"151 940.333 OFFCURVE",
"132 923.667 OFFCURVE",
"132 903 CURVE SMOOTH",
"132 887.472 OFFCURVE",
"234.684 761.54 OFFCURVE",
"246.5 704 CURVE SMOOTH",
"268.127 598.685 OFFCURVE",
"274.168 2.801 OFFCURVE",
"239 -99 CURVE SMOOTH",
"196.679 -220.884 OFFCURVE",
"104.65 -161.224 OFFCURVE",
"43 -250 CURVE SMOOTH",
"26.333 -274 OFFCURVE",
"18 -293 OFFCURVE",
"18 -307 CURVE SMOOTH",
"18 -360.333 OFFCURVE",
"51.333 -387 OFFCURVE",
"118 -387 CURVE SMOOTH",
"184.667 -387 OFFCURVE",
"250.5 -368.167 OFFCURVE",
"315.5 -330.5 CURVE SMOOTH",
"380.5 -292.833 OFFCURVE",
"427.833 -246.833 OFFCURVE",
"457.5 -192.5 CURVE SMOOTH",
"487.167 -138.167 OFFCURVE",
"510.667 27 OFFCURVE",
"528 303 CURVE"
);
}
);
width = 664;
}
);
note = uni006A;
unicode = 006A;
},
{
color = 10;
glyphname = k;
layers = (
{
layerId = "92A672BF-229C-4BEC-8D25-4DDBB2A38145";
paths = (
{
closed = 1;
nodes = (
"708 906.667 OFFCURVE",
"710.333 890 OFFCURVE",
"715 862 CURVE",
"715 795.333 OFFCURVE",
"504.5 587 OFFCURVE",
"446.5 587 CURVE",
"527.5 624.5 OFFCURVE",
"475.5 587 OFFCURVE",
"446.5 587 CURVE SMOOTH",
"417.5 587 OFFCURVE",
"403 634.333 OFFCURVE",
"403 729 CURVE SMOOTH",
"403 802 LINE",
"405 879 LINE SMOOTH",
"405 904.333 OFFCURVE",
"405.333 929.667 OFFCURVE",
"406 955 CURVE SMOOTH",
"407 993 LINE",
"410 1181 LINE SMOOTH",
"410 1299 OFFCURVE",
"406.667 1371.333 OFFCURVE",
"400 1398 CURVE SMOOTH",
"388 1447.333 OFFCURVE",
"363 1472 OFFCURVE",
"325 1472 CURVE SMOOTH",
"238.333 1472 OFFCURVE",
"168.333 1459.667 OFFCURVE",
"115 1435 CURVE SMOOTH",
"68.921 1414.19 OFFCURVE",
"75.599 1391.494 OFFCURVE",
"127 1364 CURVE SMOOTH",
"184.333 1333.333 OFFCURVE",
"201 1325.333 OFFCURVE",
"201 1192 CURVE SMOOTH",
"205 1042 LINE",
"206 926 LINE SMOOTH",
"206 900 OFFCURVE",
"206 874 OFFCURVE",
"206 848 CURVE SMOOTH",
"205 771 LINE SMOOTH",
"205 745.667 OFFCURVE",
"204.667 720 OFFCURVE",
"204 694 CURVE SMOOTH",
"198 465 LINE SMOOTH",
"198 269 OFFCURVE",
"177.333 142.667 OFFCURVE",
"136 86 CURVE SMOOTH",
"118.667 62 OFFCURVE",
"110 46.667 OFFCURVE",
"110 40 CURVE SMOOTH",
"110 20 OFFCURVE",
"143.333 10 OFFCURVE",
"210 10 CURVE SMOOTH",
"390 10 OFFCURVE",
"480 22 OFFCURVE",
"480 46 CURVE SMOOTH",
"480 156.976 OFFCURVE",
"339.625 428 OFFCURVE",
"471 428 CURVE SMOOTH",
"502.333 428 OFFCURVE",
"539.667 401 OFFCURVE",
"583 347 CURVE SMOOTH",
"649.667 264.333 OFFCURVE",
"700.667 178.667 OFFCURVE",
"736 90 CURVE SMOOTH",
"746.667 64.667 OFFCURVE",
"754.667 49.333 OFFCURVE",
"760 44 CURVE SMOOTH",
"786.667 18.667 OFFCURVE",
"839.333 6 OFFCURVE",
"918 6 CURVE SMOOTH",
"954 6 LINE SMOOTH",
"1037.333 6 OFFCURVE",
"1079 18.667 OFFCURVE",
"1079 44 CURVE SMOOTH",
"1079 54.667 OFFCURVE",
"1046.667 82.667 OFFCURVE",
"982 128 CURVE SMOOTH",
"924.428 169.123 OFFCURVE",
"822.918 318.568 OFFCURVE",
"734.5 422 CURVE SMOOTH",
"681.5 484 OFFCURVE",
"655 523.667 OFFCURVE",
"655 541 CURVE SMOOTH",
"655 611.667 OFFCURVE",
"796.167 757.667 OFFCURVE",
"919.5 835 CURVE SMOOTH",
"981.167 873.667 OFFCURVE",
"1012 900 OFFCURVE",
"1012 914 CURVE SMOOTH",
"1012 936.667 OFFCURVE",
"946.667 948 OFFCURVE",
"816 948 CURVE SMOOTH",
"744 948 OFFCURVE",
"708 936 OFFCURVE",
"708 912 CURVE SMOOTH"
);
}
);
width = 1139;
},
{
layerId = "5CBF0BAD-1756-4F16-9711-93DC239D102B";
paths = (
{
closed = 1;
nodes = (
"848 961 OFFCURVE",
"790.167 956.833 OFFCURVE",
"762.5 948.5 CURVE SMOOTH",
"734.833 940.167 OFFCURVE",
"721 924.667 OFFCURVE",
"721 902 CURVE",
"735 842 LINE",
"735 806.667 OFFCURVE",
"712.333 764 OFFCURVE",
"667 714 CURVE SMOOTH",
"593.667 632.667 OFFCURVE",
"542 592 OFFCURVE",
"512 592 CURVE SMOOTH",
"490 592 OFFCURVE",
"476 615.333 OFFCURVE",
"470 662 CURVE SMOOTH",
"468 676.667 OFFCURVE",
"467 797.833 OFFCURVE",
"467 1025.5 CURVE SMOOTH",
"467 1253.167 OFFCURVE",
"462.667 1384.333 OFFCURVE",
"454 1419 CURVE SMOOTH",
"442 1467.667 OFFCURVE",
"415 1492 OFFCURVE",
"373 1492 CURVE SMOOTH",
"338 1492 LINE SMOOTH",
"256 1492 OFFCURVE",
"180.667 1479.667 OFFCURVE",
"112 1455 CURVE SMOOTH",
"76 1442.333 OFFCURVE",
"58 1423.5 OFFCURVE",
"58 1398.5 CURVE SMOOTH",
"58 1373.5 OFFCURVE",
"77.5 1350.667 OFFCURVE",
"116.5 1330 CURVE SMOOTH",
"155.5 1309.333 OFFCURVE",
"179 1288.5 OFFCURVE",
"187 1267.5 CURVE SMOOTH",
"195 1246.5 OFFCURVE",
"194 905.333 OFFCURVE",
"184 244 CURVE",
"180 221.333 OFFCURVE",
"165.167 188.833 OFFCURVE",
"139.5 146.5 CURVE SMOOTH",
"113.833 104.167 OFFCURVE",
"101 76 OFFCURVE",
"101 62 CURVE SMOOTH",
"101 37.333 OFFCURVE",
"120.333 20 OFFCURVE",
"159 10 CURVE SMOOTH",
"185 3.333 OFFCURVE",
"240.167 0 OFFCURVE",
"324.5 0 CURVE SMOOTH",
"408.833 0 OFFCURVE",
"462.333 2.667 OFFCURVE",
"485 8 CURVE SMOOTH",
"529 18.667 OFFCURVE",
"551 38.667 OFFCURVE",
"551 68 CURVE SMOOTH",
"551 73.333 OFFCURVE",
"545 87.667 OFFCURVE",
"533 111 CURVE SMOOTH",
"505.667 164.333 OFFCURVE",
"492 223.333 OFFCURVE",
"492 288 CURVE SMOOTH",
"492 352.667 OFFCURVE",
"505.667 385 OFFCURVE",
"533 385 CURVE SMOOTH",
"577 385 OFFCURVE",
"623.333 346.667 OFFCURVE",
"672 270 CURVE SMOOTH",
"693.333 236.667 OFFCURVE",
"708.5 196.167 OFFCURVE",
"717.5 148.5 CURVE SMOOTH",
"726.5 100.833 OFFCURVE",
"740.667 67.333 OFFCURVE",
"760 48 CURVE SMOOTH",
"792.667 15.333 OFFCURVE",
"859 -1 OFFCURVE",
"959 -1 CURVE SMOOTH",
"998 -1 LINE SMOOTH",
"1101.333 -1 OFFCURVE",
"1161.167 3.167 OFFCURVE",
"1177.5 11.5 CURVE SMOOTH",
"1193.833 19.833 OFFCURVE",
"1202 32.5 OFFCURVE",
"1202 49.5 CURVE SMOOTH",
"1202 77.421 OFFCURVE",
"1026.308 210.634 OFFCURVE",
"962 284 CURVE SMOOTH",
"826 439.333 OFFCURVE",
"758 528.333 OFFCURVE",
"758 551 CURVE SMOOTH",
"758 613.667 OFFCURVE",
"841.333 695.333 OFFCURVE",
"1008 796 CURVE SMOOTH",
"1091.333 846 OFFCURVE",
"1133 882 OFFCURVE",
"1133 904 CURVE",
"1132.333 942 OFFCURVE",
"1066.667 961 OFFCURVE",
"936 961 CURVE SMOOTH"
);
}
);
width = 1251;
}
);
note = uni006B;
unicode = 006B;
},
{
color = 10;
glyphname = l;
layers = (
{
layerId = "92A672BF-229C-4BEC-8D25-4DDBB2A38145";
paths = (
{
closed = 1;
nodes = (
"187 125.667 OFFCURVE",
"167.667 98.333 OFFCURVE",
"135 79 CURVE SMOOTH",
"102.333 59.667 OFFCURVE",
"86 42.333 OFFCURVE",
"86 27 CURVE SMOOTH",
"86 7.667 OFFCURVE",
"103.667 -2 OFFCURVE",
"139 -2 CURVE SMOOTH",
"181 -2 LINE",
"364 2 LINE",
"404 4 LINE",
"497.333 4 OFFCURVE",
"544 16 OFFCURVE",
"544 40 CURVE SMOOTH",
"544 44.667 OFFCURVE",
"517.667 63.667 OFFCURVE",
"465 97 CURVE SMOOTH",
"436.333 115 OFFCURVE",
"419.5 142.5 OFFCURVE",
"414.5 179.5 CURVE SMOOTH",
"409.5 216.5 OFFCURVE",
"407 433 OFFCURVE",
"407 829 CURVE SMOOTH",
"407 912 LINE",
"409 994 LINE",
"409 1077 LINE",
"410 1139 LINE SMOOTH",
"410 1313.667 OFFCURVE",
"409.333 1405.667 OFFCURVE",
"408 1415 CURVE SMOOTH",
"402.667 1455.667 OFFCURVE",
"380.333 1476 OFFCURVE",
"341 1476 CURVE SMOOTH",
"237 1476 OFFCURVE",
"158 1463 OFFCURVE",
"104 1437 CURVE SMOOTH",
"87.333 1429 OFFCURVE",
"79 1418.167 OFFCURVE",
"79 1404.5 CURVE SMOOTH",
"79 1390.833 OFFCURVE",
"100.667 1374.667 OFFCURVE",
"144 1356 CURVE SMOOTH",
"174 1342.667 OFFCURVE",
"192.5 1318.667 OFFCURVE",
"199.5 1284 CURVE SMOOTH",
"206.5 1249.333 OFFCURVE",
"210 1070.5 OFFCURVE",
"210 747.5 CURVE",
"231.863 1123.726 OFFCURVE",
"227.005 365.033 OFFCURVE",
"193 161 CURVE SMOOTH"
);
}
);
width = 612;
},
{
layerId = "5CBF0BAD-1756-4F16-9711-93DC239D102B";
paths = (
{
closed = 1;
nodes = (
"67 1377.69 OFFCURVE",
"186.766 1267.045 OFFCURVE",
"194 1242.5 CURVE SMOOTH",
"233.448 1108.658 OFFCURVE",
"224.473 416.532 OFFCURVE",
"195 263.5 CURVE SMOOTH",
"188.285 228.635 OFFCURVE",
"84 56.94 OFFCURVE",
"84 45.5 CURVE SMOOTH",
"84 25.833 OFFCURVE",
"94.5 13.333 OFFCURVE",
"115.5 8 CURVE SMOOTH",
"136.5 2.667 OFFCURVE",
"200.333 0 OFFCURVE",
"307 0 CURVE",
"328 -1 LINE",
"348 -1 LINE SMOOTH",
"526.667 -1 OFFCURVE",
"616 15 OFFCURVE",
"616 47 CURVE SMOOTH",
"616 49.667 OFFCURVE",
"590.667 79.667 OFFCURVE",
"540 137 CURVE SMOOTH",
"520 159.667 OFFCURVE",
"504.167 202.5 OFFCURVE",
"492.5 265.5 CURVE SMOOTH",
"480.833 328.5 OFFCURVE",
"475 533.333 OFFCURVE",
"475 880 CURVE",
"447.682 507.519 OFFCURVE",
"494.921 1240.633 OFFCURVE",
"473 1416 CURVE SMOOTH",
"467.667 1460 OFFCURVE",
"439.667 1482 OFFCURVE",
"389 1482 CURVE SMOOTH",
"303 1482 OFFCURVE",
"213 1467.667 OFFCURVE",
"119 1439 CURVE SMOOTH",
"84.333 1428.333 OFFCURVE",
"67 1411 OFFCURVE",
"67 1387 CURVE SMOOTH"
);
}
);
width = 685;
}
);
note = uni006C;
unicode = 006C;
},
{
color = 10;
glyphname = m;
layers = (
{
layerId = "92A672BF-229C-4BEC-8D25-4DDBB2A38145";
paths = (
{
closed = 1;
nodes = (
"725 65.667 OFFCURVE",
"715 47.333 OFFCURVE",
"715 28 CURVE SMOOTH",
"715 8.667 OFFCURVE",
"752 -1 OFFCURVE",
"826 -1 CURVE SMOOTH",
"1022.667 -1 OFFCURVE",
"1121 11.667 OFFCURVE",
"1121 37 CURVE SMOOTH",
"1121 55.667 OFFCURVE",
"1106.667 74.667 OFFCURVE",
"1078 94 CURVE SMOOTH",
"1049.333 113.333 OFFCURVE",
"1033.333 126 OFFCURVE",
"1030 132 CURVE SMOOTH",
"1019.333 150.667 OFFCURVE",
"1014 240.167 OFFCURVE",
"1014 400.5 CURVE SMOOTH",
"1014 560.833 OFFCURVE",
"1019.667 660 OFFCURVE",
"1031 698 CURVE SMOOTH",
"1053.667 774 OFFCURVE",
"1117 841 OFFCURVE",
"1309 821 CURVE",
"1343.667 804.333 OFFCURVE",
"1371 770.5 OFFCURVE",
"1391 719.5 CURVE SMOOTH",
"1411 668.5 OFFCURVE",
"1421 498.667 OFFCURVE",
"1421 210 CURVE SMOOTH",
"1421 164.667 OFFCURVE",
"1412.333 125.167 OFFCURVE",
"1395 91.5 CURVE SMOOTH",
"1377.667 57.833 OFFCURVE",
"1369 37.333 OFFCURVE",
"1369 30 CURVE SMOOTH",
"1369 13.333 OFFCURVE",
"1399 5 OFFCURVE",
"1459 5 CURVE SMOOTH",
"1633 5 OFFCURVE",
"1720 18.333 OFFCURVE",
"1720 45 CURVE SMOOTH",
"1720 50.333 OFFCURVE",
"1624.77 155.167 OFFCURVE",
"1620.5 170 CURVE",
"1645 124.5 OFFCURVE",
"1626.833 148 OFFCURVE",
"1620.5 170 CURVE SMOOTH",
"1614.167 192 OFFCURVE",
"1611 256 OFFCURVE",
"1611 362 CURVE SMOOTH",
"1611 611.333 OFFCURVE",
"1595 768 OFFCURVE",
"1563 832 CURVE SMOOTH",
"1521.667 913.333 OFFCURVE",
"1439.833 965 OFFCURVE",
"1340.5 965 CURVE SMOOTH",
"1241.167 965 OFFCURVE",
"1182.667 944 OFFCURVE",
"1088 884 CURVE SMOOTH",
"1051 860 LINE",
"1018 842 LINE",
"989.543 842 OFFCURVE",
"894.507 929.424 OFFCURVE",
"846.5 951 CURVE SMOOTH",
"774.757 983.244 OFFCURVE",
"649.156 980.014 OFFCURVE",
"538 918 CURVE",
"463 872 LINE",
"433 857 LINE",
"421.667 857 OFFCURVE",
"403 871.833 OFFCURVE",
"377 901.5 CURVE SMOOTH",
"351 931.167 OFFCURVE",
"318.333 946 OFFCURVE",
"279 946 CURVE SMOOTH",
"211.667 946 OFFCURVE",
"164.333 934.667 OFFCURVE",
"137 912 CURVE",
"123 891 LINE",
"123 866.109 OFFCURVE",
"181.92 819.716 OFFCURVE",
"197 787.5 CURVE SMOOTH",
"213.087 753.133 OFFCURVE",
"207.706 560.961 OFFCURVE",
"210 491 CURVE SMOOTH",
"214 397 LINE",
"215 350 LINE SMOOTH",
"215 259.333 OFFCURVE",
"210.333 202.833 OFFCURVE",
"201 180.5 CURVE SMOOTH",
"191.667 158.167 OFFCURVE",
"175.333 134.667 OFFCURVE",
"152 110 CURVE",
"193.049 161.475 OFFCURVE",
"117 69.887 OFFCURVE",
"117 67 CURVE SMOOTH",
"117 49.667 OFFCURVE",
"125.667 37.333 OFFCURVE",
"143 30 CURVE SMOOTH",
"181 14.667 OFFCURVE",
"245.167 7 OFFCURVE",
"335.5 7 CURVE SMOOTH",
"425.833 7 OFFCURVE",
"471 16.667 OFFCURVE",
"471 36 CURVE SMOOTH",
"471 45.333 OFFCURVE",
"459.667 66 OFFCURVE",
"437 98 CURVE SMOOTH",
"414.333 130 OFFCURVE",
"403 166.667 OFFCURVE",
"403 208 CURVE SMOOTH",
"403 470 OFFCURVE",
"410.167 622.833 OFFCURVE",
"424.5 666.5 CURVE SMOOTH",
"438.833 710.167 OFFCURVE",
"468.5 749.167 OFFCURVE",
"513.5 783.5 CURVE SMOOTH",
"611.825 858.518 OFFCURVE",
"751.546 857.129 OFFCURVE",
"794 746 CURVE SMOOTH",
"827.283 660.231 OFFCURVE",
"824.598 237.969 OFFCURVE",
"814 173.5 CURVE",
"820 288.167 OFFCURVE",
"818 197.833 OFFCURVE",
"814 173.5 CURVE SMOOTH",
"810 149.167 OFFCURVE",
"787 119 OFFCURVE",
"745 83 CURVE SMOOTH"
);
}
);
width = 1799;
},
{
layerId = "5CBF0BAD-1756-4F16-9711-93DC239D102B";
paths = (
{
closed = 1;
nodes = (
"1786 111.35 OFFCURVE",
"1695.19 167.525 OFFCURVE",
"1681.5 195.5 CURVE SMOOTH",
"1673.833 211.167 OFFCURVE",
"1670 253.667 OFFCURVE",
"1670 323 CURVE SMOOTH",
"1670 597 OFFCURVE",
"1652.667 766 OFFCURVE",
"1618 830 CURVE SMOOTH",
"1566 928 OFFCURVE",
"1484.667 977 OFFCURVE",
"1374 977 CURVE SMOOTH",
"1259.331 977 OFFCURVE",
"1100.762 879 OFFCURVE",
"1046.5 879 CURVE",
"1105.333 895.333 OFFCURVE",
"1062.167 879 OFFCURVE",
"1046.5 879 CURVE SMOOTH",
"1030.833 879 OFFCURVE",
"1007.333 890.333 OFFCURVE",
"976 913 CURVE SMOOTH",
"913.333 958.333 OFFCURVE",
"876.333 983 OFFCURVE",
"767 983 CURVE SMOOTH",
"712.333 983 OFFCURVE",
"654.333 969 OFFCURVE",
"593 941 CURVE SMOOTH",
"581.667 935.667 OFFCURVE",
"556.333 921.667 OFFCURVE",
"517 899 CURVE SMOOTH",
"485 881 LINE",
"477.667 881 OFFCURVE",
"460.333 895.167 OFFCURVE",
"433 923.5 CURVE SMOOTH",
"405.667 951.833 OFFCURVE",
"382.333 966 OFFCURVE",
"363 966 CURVE SMOOTH",
"303.667 966 OFFCURVE",
"236 954.667 OFFCURVE",
"160 932 CURVE SMOOTH",
"117.333 919.333 OFFCURVE",
"96 900.333 OFFCURVE",
"96 875 CURVE SMOOTH",
"96 857 OFFCURVE",
"106.833 830.833 OFFCURVE",
"128.5 796.5 CURVE SMOOTH",
"150.167 762.167 OFFCURVE",
"163.333 738.667 OFFCURVE",
"168 726 CURVE SMOOTH",
"198.749 637.301 OFFCURVE",
"200.652 281.944 OFFCURVE",
"188 234.5 CURVE SMOOTH",
"175.294 186.854 OFFCURVE",
"92 133.98 OFFCURVE",
"92 84 CURVE SMOOTH",
"92 28 OFFCURVE",
"169.333 0 OFFCURVE",
"324 0 CURVE SMOOTH",
"404 0 OFFCURVE",
"454.667 6.5 OFFCURVE",
"476 19.5 CURVE SMOOTH",
"497.333 32.5 OFFCURVE",
"508 51 OFFCURVE",
"508 75 CURVE",
"518.293 45.272 OFFCURVE",
"511.165 96.039 OFFCURVE",
"497 163 CURVE SMOOTH",
"482.333 232.333 OFFCURVE",
"468 439 OFFCURVE",
"468 567 CURVE SMOOTH",
"468 631 OFFCURVE",
"481.667 681 OFFCURVE",
"509 717 CURVE SMOOTH",
"585.942 818.719 OFFCURVE",
"726.676 821.893 OFFCURVE",
"770 719 CURVE",
"709.667 795 OFFCURVE",
"748.667 769.667 OFFCURVE",
"770 719 CURVE SMOOTH",
"791.333 668.333 OFFCURVE",
"802 578 OFFCURVE",
"802 448 CURVE SMOOTH",
"802 318 OFFCURVE",
"798.833 241 OFFCURVE",
"792.5 217 CURVE SMOOTH",
"786.167 193 OFFCURVE",
"771.833 166.5 OFFCURVE",
"749.5 137.5 CURVE",
"785.804 191.627 OFFCURVE",
"716 88.782 OFFCURVE",
"716 79 CURVE SMOOTH",
"716 49 OFFCURVE",
"724.5 28.333 OFFCURVE",
"741.5 17 CURVE SMOOTH",
"758.5 5.667 OFFCURVE",
"821.667 0 OFFCURVE",
"931 0 CURVE",
"778.119 -7.413 OFFCURVE",
"1083.739 -3.802 OFFCURVE",
"1133.5 13 CURVE SMOOTH",
"1188.607 31.608 OFFCURVE",
"1180.585 73.732 OFFCURVE",
"1132 137.5 CURVE",
"1172 75.167 OFFCURVE",
"1158.667 102.5 OFFCURVE",
"1132 137.5 CURVE SMOOTH",
"1105.333 172.5 OFFCURVE",
"1088.167 267.5 OFFCURVE",
"1080.5 422.5 CURVE",
"1073.493 325.932 OFFCURVE",
"1048.792 608.669 OFFCURVE",
"1089.5 702 CURVE SMOOTH",
"1103.167 733.333 OFFCURVE",
"1149 767.333 OFFCURVE",
"1227 804 CURVE",
"1295.667 804 OFFCURVE",
"1341.667 781.5 OFFCURVE",
"1365 736.5 CURVE SMOOTH",
"1388.333 691.5 OFFCURVE",
"1400 600.167 OFFCURVE",
"1400 462.5 CURVE",
"1414.009 641.983 OFFCURVE",
"1405.465 285.053 OFFCURVE",
"1381 155 CURVE SMOOTH",
"1368 91 LINE",
"1368 23 OFFCURVE",
"1405 -1 OFFCURVE",
"1521 -1 CURVE SMOOTH",
"1697.667 -1 OFFCURVE",
"1786 30 OFFCURVE",
"1786 92 CURVE SMOOTH"
);
}
);
width = 1842;
}
);
note = uni006D;
unicode = 006D;
},
{
color = 10;
glyphname = n;
layers = (
{
layerId = "92A672BF-229C-4BEC-8D25-4DDBB2A38145";
paths = (
{
closed = 1;
nodes = (
"497 46.987 OFFCURVE",
"425.513 133.521 OFFCURVE",
"419 150.5 CURVE SMOOTH",
"409.667 174.833 OFFCURVE",
"405 219 OFFCURVE",
"405 283 CURVE SMOOTH",
"411 471 LINE SMOOTH",
"411 612.333 OFFCURVE",
"423.333 700.333 OFFCURVE",
"448 735 CURVE SMOOTH",
"472.667 769.667 OFFCURVE",
"505 797.5 OFFCURVE",
"545 818.5 CURVE",
"497.333 804.333 OFFCURVE",
"587 850 OFFCURVE",
"659 850 CURVE SMOOTH",
"803 850 OFFCURVE",
"850 777.667 OFFCURVE",
"850 503 CURVE SMOOTH",
"850 374 LINE",
"852 312 LINE SMOOTH",
"852.667 291.333 OFFCURVE",
"853 259.333 OFFCURVE",
"853 216 CURVE SMOOTH",
"853 172.667 OFFCURVE",
"850.833 145.333 OFFCURVE",
"846.5 134 CURVE SMOOTH",
"842.167 122.667 OFFCURVE",
"829.667 107.333 OFFCURVE",
"809 88 CURVE SMOOTH",
"788.333 68.667 OFFCURVE",
"807.333 41 OFFCURVE",
"866 5 CURVE",
"896 5 LINE SMOOTH",
"1078.667 5 OFFCURVE",
"1170 19 OFFCURVE",
"1170 47 CURVE SMOOTH",
"1170 69.841 OFFCURVE",
"1069.788 107.631 OFFCURVE",
"1053.5 139 CURVE",
"1084.167 105 OFFCURVE",
"1062.5 121.667 OFFCURVE",
"1053.5 139 CURVE SMOOTH",
"1044.5 156.333 OFFCURVE",
"1040 227 OFFCURVE",
"1040 351 CURVE SMOOTH",
"1040 605 OFFCURVE",
"1028 758 OFFCURVE",
"1004 810 CURVE SMOOTH",
"956 912.667 OFFCURVE",
"872.667 964.333 OFFCURVE",
"754 965 CURVE SMOOTH",
"723 965 LINE SMOOTH",
"648.333 964.333 OFFCURVE",
"564.667 930.667 OFFCURVE",
"472 864 CURVE SMOOTH",
"445.333 845.333 OFFCURVE",
"431 836 OFFCURVE",
"429 836 CURVE SMOOTH",
"426.333 836 OFFCURVE",
"413.667 859 OFFCURVE",
"391 905 CURVE SMOOTH",
"377 934.333 OFFCURVE",
"351 949 OFFCURVE",
"313 949 CURVE SMOOTH",
"239 949 OFFCURVE",
"180.667 939.333 OFFCURVE",
"138 920 CURVE SMOOTH",
"116.667 910 OFFCURVE",
"106 895 OFFCURVE",
"106 875 CURVE SMOOTH",
"106 864.425 OFFCURVE",
"195.758 812.42 OFFCURVE",
"205.5 781.5 CURVE SMOOTH",
"213.167 757.167 OFFCURVE",
"217 717.667 OFFCURVE",
"217 663 CURVE SMOOTH",
"217 550 LINE",
"219 488 LINE",
"219 312 LINE SMOOTH",
"219 225.333 OFFCURVE",
"214.833 172.167 OFFCURVE",
"206.5 152.5 CURVE SMOOTH",
"198.167 132.833 OFFCURVE",
"177.167 115 OFFCURVE",
"143.5 99 CURVE",
"201.208 140.01 OFFCURVE",
"93 63.495 OFFCURVE",
"93 59 CURVE SMOOTH",
"93 27 OFFCURVE",
"124 11 OFFCURVE",
"186 11 CURVE SMOOTH",
"226 11 OFFCURVE",
"256 10.667 OFFCURVE",
"276 10 CURVE SMOOTH",
"368 7 LINE SMOOTH",
"454 7 OFFCURVE",
"497 19.333 OFFCURVE",
"497 44 CURVE SMOOTH"
);
}
);
width = 1232;
},
{
layerId = "5CBF0BAD-1756-4F16-9711-93DC239D102B";
paths = (
{
closed = 1;
nodes = (
"1233 122.62 OFFCURVE",
"1137.134 143.876 OFFCURVE",
"1114 194 CURVE",
"1143.833 156.833 OFFCURVE",
"1122 176.667 OFFCURVE",
"1114 194 CURVE SMOOTH",
"1106 211.333 OFFCURVE",
"1102 281.667 OFFCURVE",
"1102 405 CURVE SMOOTH",
"1102 635.667 OFFCURVE",
"1086 781.333 OFFCURVE",
"1054 842 CURVE SMOOTH",
"1004 935.333 OFFCURVE",
"920.667 982 OFFCURVE",
"804 982 CURVE SMOOTH",
"772 982 LINE SMOOTH",
"726 982 OFFCURVE",
"676.333 969.667 OFFCURVE",
"623 945 CURVE",
"603.868 937.347 OFFCURVE",
"518.799 878 OFFCURVE",
"492 878 CURVE SMOOTH",
"463.013 878 OFFCURVE",
"419.499 972 OFFCURVE",
"364 972 CURVE SMOOTH",
"249.333 972 OFFCURVE",
"163 955.333 OFFCURVE",
"105 922 CURVE SMOOTH",
"88.333 912.667 OFFCURVE",
"80 902.333 OFFCURVE",
"80 891 CURVE SMOOTH",
"80 870 LINE SMOOTH",
"80 864.403 OFFCURVE",
"172.761 759.912 OFFCURVE",
"185 728.5 CURVE",
"155 784 OFFCURVE",
"175 754.167 OFFCURVE",
"185 728.5 CURVE SMOOTH",
"195 702.833 OFFCURVE",
"200 614.833 OFFCURVE",
"200 464.5 CURVE SMOOTH",
"200 314.167 OFFCURVE",
"197.667 229.5 OFFCURVE",
"193 210.5 CURVE SMOOTH",
"188.333 191.5 OFFCURVE",
"168.333 170.333 OFFCURVE",
"133 147 CURVE",
"172.079 125.32 OFFCURVE",
"61.414 144.235 OFFCURVE",
"112 56.5 CURVE",
"90.667 46.833 OFFCURVE",
"90.667 35.167 OFFCURVE",
"112 21.5 CURVE SMOOTH",
"133.333 7.833 OFFCURVE",
"195.167 1 OFFCURVE",
"297.5 1 CURVE",
"168.726 -14.84 OFFCURVE",
"435.939 -8.331 OFFCURVE",
"543 58 CURVE",
"543 71.333 OFFCURVE",
"533.667 100.667 OFFCURVE",
"515 146 CURVE SMOOTH",
"484.333 224 OFFCURVE",
"469 346.667 OFFCURVE",
"469 514 CURVE SMOOTH",
"469 615.333 OFFCURVE",
"482.667 685 OFFCURVE",
"510 723 CURVE SMOOTH",
"587.232 830.619 OFFCURVE",
"753.563 836.679 OFFCURVE",
"800.5 736.5 CURVE",
"734.333 808 OFFCURVE",
"778.167 784.167 OFFCURVE",
"800.5 736.5 CURVE SMOOTH",
"822.833 688.833 OFFCURVE",
"834 599.667 OFFCURVE",
"834 469 CURVE SMOOTH",
"834 338.333 OFFCURVE",
"832 261.667 OFFCURVE",
"828 239 CURVE SMOOTH",
"824 216.333 OFFCURVE",
"813.5 186.333 OFFCURVE",
"796.5 149 CURVE",
"817.017 176.763 OFFCURVE",
"760.731 110.421 OFFCURVE",
"799 45.5 CURVE",
"780.333 40.5 OFFCURVE",
"780.333 31.333 OFFCURVE",
"799 18 CURVE SMOOTH",
"817.667 4.667 OFFCURVE",
"874.5 -2 OFFCURVE",
"969.5 -2 CURVE",
"854.64 -21.743 OFFCURVE",
"1098.301 -10.151 OFFCURVE",
"1233 70 CURVE"
);
}
);
width = 1282;
}
);
note = uni006E;
unicode = 006E;
},
{
color = 10;
glyphname = o;
layers = (
{
layerId = "92A672BF-229C-4BEC-8D25-4DDBB2A38145";
paths = (
{
closed = 1;
nodes = (
"694.667 887 OFFCURVE",
"801 724 OFFCURVE",
"801 492 CURVE SMOOTH",
"801 430 LINE SMOOTH",
"801 215.333 OFFCURVE",
"706.667 67 OFFCURVE",
"564 67 CURVE",
"553 66 LINE",
"509 66 OFFCURVE",
"469.333 77.333 OFFCURVE",
"434 100 CURVE SMOOTH",
"335.333 164.667 OFFCURVE",
"286 289 OFFCURVE",
"286 473 CURVE",
"285 486 LINE",
"285 498 LINE SMOOTH",
"285 619.333 OFFCURVE",
"304.667 710.333 OFFCURVE",
"344 771 CURVE SMOOTH",
"394 848.333 OFFCURVE",
"455 887 OFFCURVE",
"527 887 CURVE SMOOTH",
"548 887 LINE SMOOTH"
);
},
{
closed = 1;
nodes = (
"1014 636 OFFCURVE",
"959.333 771.667 OFFCURVE",
"886 845 CURVE SMOOTH",
"800.667 930.333 OFFCURVE",
"700.333 973 OFFCURVE",
"585 973 CURVE SMOOTH",
"536 973 LINE SMOOTH",
"425.333 973 OFFCURVE",
"294.5 920.5 OFFCURVE",
"216.5 838.5 CURVE SMOOTH",
"138.5 756.5 OFFCURVE",
"83 618.333 OFFCURVE",
"83 493 CURVE SMOOTH",
"83 444 LINE SMOOTH",
"83 330.667 OFFCURVE",
"130.667 184.333 OFFCURVE",
"208 107 CURVE SMOOTH",
"292.667 22.333 OFFCURVE",
"397.667 -20 OFFCURVE",
"523 -20 CURVE",
"540 -21 LINE",
"556 -21 LINE SMOOTH",
"609.333 -21 OFFCURVE",
"665 -9.667 OFFCURVE",
"723 13 CURVE SMOOTH",
"843 59.667 OFFCURVE",
"927.333 145.333 OFFCURVE",
"976 270 CURVE SMOOTH",
"1001.333 334 OFFCURVE",
"1014 396.667 OFFCURVE",
"1014 458 CURVE SMOOTH",
"1014 508 LINE SMOOTH"
);
}
);
width = 1112;
},
{
layerId = "5CBF0BAD-1756-4F16-9711-93DC239D102B";
paths = (
{
closed = 1;
nodes = (
"675.333 857 OFFCURVE",
"773 713.333 OFFCURVE",
"773 536 CURVE SMOOTH",
"773 529.333 OFFCURVE",
"773.667 518.667 OFFCURVE",
"775 504 CURVE",
"775 483 LINE",
"776 472 LINE",
"776 461 LINE",
"775 419 LINE",
"773 398 LINE",
"773 223.333 OFFCURVE",
"683.667 110 OFFCURVE",
"581 110 CURVE SMOOTH",
"562 110 LINE SMOOTH",
"444.667 110 OFFCURVE",
"348 269.333 OFFCURVE",
"348 472 CURVE SMOOTH",
"348 528 LINE SMOOTH",
"348 708 OFFCURVE",
"428.333 857 OFFCURVE",
"543 857 CURVE SMOOTH",
"562 857 LINE SMOOTH"
);
},
{
closed = 1;
nodes = (
"495 990 OFFCURVE",
"428 974.667 OFFCURVE",
"362 944 CURVE SMOOTH",
"244.667 888.667 OFFCURVE",
"164 803 OFFCURVE",
"120 687 CURVE SMOOTH",
"97.333 626.333 OFFCURVE",
"85.667 565 OFFCURVE",
"85 503 CURVE",
"84 486 LINE",
"84 469 LINE SMOOTH",
"84 328.333 OFFCURVE",
"126.333 211.333 OFFCURVE",
"211 118 CURVE SMOOTH",
"289.667 32.667 OFFCURVE",
"423 -23 OFFCURVE",
"551 -23 CURVE",
"561 -23.667 OFFCURVE",
"571 -24 OFFCURVE",
"581 -24 CURVE SMOOTH",
"709 -24 OFFCURVE",
"822.333 20.667 OFFCURVE",
"921 110 CURVE SMOOTH",
"1015.667 198 OFFCURVE",
"1076 341.333 OFFCURVE",
"1076 480 CURVE SMOOTH",
"1076 498 LINE SMOOTH",
"1076 562.667 OFFCURVE",
"1064.667 626 OFFCURVE",
"1042 688 CURVE SMOOTH",
"997.333 808 OFFCURVE",
"915.333 894.667 OFFCURVE",
"796 948 CURVE SMOOTH",
"733.333 976 OFFCURVE",
"672.333 990 OFFCURVE",
"613 990 CURVE SMOOTH",
"563 990 LINE SMOOTH"
);
}
);
width = 1153;
}
);
note = uni006F;
unicode = 006F;
},
{
color = 10;
glyphname = p;
layers = (
{
layerId = "92A672BF-229C-4BEC-8D25-4DDBB2A38145";
paths = (
{
closed = 1;
nodes = (
"387 416 LINE",
"388 449 LINE SMOOTH",
"388 613.667 OFFCURVE",
"396.333 712.667 OFFCURVE",
"413 746 CURVE SMOOTH",
"429.667 779.333 OFFCURVE",
"457.667 808 OFFCURVE",
"497 832 CURVE",
"446.333 812.667 OFFCURVE",
"535 868 OFFCURVE",
"619 868 CURVE SMOOTH",
"640 868 LINE SMOOTH",
"782.667 868 OFFCURVE",
"873 707.667 OFFCURVE",
"873 493 CURVE",
"874 481 LINE",
"874 291 OFFCURVE",
"825.333 167.333 OFFCURVE",
"728 110 CURVE SMOOTH",
"695.333 90.667 OFFCURVE",
"662.667 81 OFFCURVE",
"630 81 CURVE SMOOTH",
"629.333 81 OFFCURVE",
"628.333 81 OFFCURVE",
"627 81 CURVE",
"616 80 LINE",
"595 80 LINE SMOOTH",
"515.667 80 OFFCURVE",
"457.333 105 OFFCURVE",
"420 155 CURVE SMOOTH",
"398 184.333 OFFCURVE",
"387 260.333 OFFCURVE",
"387 383 CURVE SMOOTH"
);
},
{
closed = 1;
nodes = (
"611 2 LINE",
"677 2 OFFCURVE",
"736 12.333 OFFCURVE",
"788 33 CURVE SMOOTH",
"902 77.667 OFFCURVE",
"984 163.667 OFFCURVE",
"1034 291 CURVE SMOOTH",
"1060 357 OFFCURVE",
"1073 424 OFFCURVE",
"1073 492 CURVE SMOOTH",
"1073 548 LINE SMOOTH",
"1073 606 OFFCURVE",
"1061 667.667 OFFCURVE",
"1037 733 CURVE SMOOTH",
"998.333 839 OFFCURVE",
"933.667 910.667 OFFCURVE",
"843 948 CURVE SMOOTH",
"797 966.667 OFFCURVE",
"754.333 976.333 OFFCURVE",
"715 977 CURVE SMOOTH",
"688 977 LINE SMOOTH",
"585.333 977 OFFCURVE",
"502 930.333 OFFCURVE",
"446 897 CURVE SMOOTH",
"418 880.333 OFFCURVE",
"402 872 OFFCURVE",
"398 872 CURVE SMOOTH",
"364.844 872 OFFCURVE",
"341.933 962 OFFCURVE",
"281 962 CURVE SMOOTH",
"197 962 OFFCURVE",
"136.667 949 OFFCURVE",
"100 923 CURVE SMOOTH",
"89.333 915.667 OFFCURVE",
"84 908.333 OFFCURVE",
"84 901 CURVE SMOOTH",
"84 892.371 OFFCURVE",
"185.941 799.198 OFFCURVE",
"193.5 774 CURVE SMOOTH",
"233.539 640.538 OFFCURVE",
"223.57 -80.309 OFFCURVE",
"184 -273 CURVE SMOOTH",
"177.333 -305 OFFCURVE",
"158.5 -333.167 OFFCURVE",
"127.5 -357.5 CURVE SMOOTH",
"96.5 -381.833 OFFCURVE",
"81 -399 OFFCURVE",
"81 -409 CURVE SMOOTH",
"81 -440.333 OFFCURVE",
"156.333 -456 OFFCURVE",
"307 -456 CURVE SMOOTH",
"358 -456 LINE SMOOTH",
"462.667 -456 OFFCURVE",
"515 -442.667 OFFCURVE",
"515 -416 CURVE SMOOTH",
"515 -402.667 OFFCURVE",
"499.167 -385.667 OFFCURVE",
"467.5 -365 CURVE SMOOTH",
"435.833 -344.333 OFFCURVE",
"413.833 -323.833 OFFCURVE",
"401.5 -303.5 CURVE SMOOTH",
"389.167 -283.167 OFFCURVE",
"383 -237 OFFCURVE",
"383 -165 CURVE SMOOTH",
"383 -93 OFFCURVE",
"405.333 -33.333 OFFCURVE",
"450 14 CURVE"
);
}
);
width = 1186;
},
{
layerId = "5CBF0BAD-1756-4F16-9711-93DC239D102B";
paths = (
{
closed = 1;
nodes = (
"847 473 LINE",
"847 461 LINE SMOOTH",
"847 356.333 OFFCURVE",
"831.333 278 OFFCURVE",
"800 226 CURVE SMOOTH",
"756.667 153.333 OFFCURVE",
"702.333 117 OFFCURVE",
"637 117 CURVE SMOOTH",
"619 117 LINE SMOOTH",
"521.667 117 OFFCURVE",
"454 189.333 OFFCURVE",
"454 300 CURVE",
"452 338 LINE",
"450 367 LINE",
"450 373.667 OFFCURVE",
"450 380.333 OFFCURVE",
"450 387 CURVE",
"449 397 LINE",
"449 416 LINE",
"448 426 LINE",
"448 516 LINE",
"451 604 LINE",
"453 623 LINE",
"453 691 OFFCURVE",
"463.333 739.333 OFFCURVE",
"484 768 CURVE SMOOTH",
"516.667 814 OFFCURVE",
"562 837 OFFCURVE",
"620 837 CURVE",
"628 838 LINE",
"688 838 OFFCURVE",
"736 813.667 OFFCURVE",
"772 765 CURVE SMOOTH",
"820 699.667 OFFCURVE",
"844 624.333 OFFCURVE",
"844 539 CURVE",
"846 484 LINE"
);
},
{
closed = 1;
nodes = (
"468 -34 OFFCURVE",
"483 19 OFFCURVE",
"513 19 CURVE",
"533 16 LINE",
"576 11 LINE SMOOTH",
"626 5.667 OFFCURVE",
"651.333 3 OFFCURVE",
"652 3 CURVE SMOOTH",
"793.333 3 OFFCURVE",
"902 40 OFFCURVE",
"998 144 CURVE SMOOTH",
"1090 243.333 OFFCURVE",
"1136 372 OFFCURVE",
"1136 530 CURVE SMOOTH",
"1136 658 OFFCURVE",
"1101.667 765 OFFCURVE",
"1033 851 CURVE SMOOTH",
"965 935 OFFCURVE",
"859 991 OFFCURVE",
"763 991 CURVE SMOOTH",
"736 991 LINE SMOOTH",
"666.894 991 OFFCURVE",
"502.355 906 OFFCURVE",
"465 906 CURVE SMOOTH",
"428.416 906 OFFCURVE",
"415.825 979 OFFCURVE",
"363 979 CURVE SMOOTH",
"285.667 979 OFFCURVE",
"203 964.333 OFFCURVE",
"115 935 CURVE SMOOTH",
"83.667 924.333 OFFCURVE",
"68 907.667 OFFCURVE",
"68 885 CURVE SMOOTH",
"68 862.333 OFFCURVE",
"86.333 838.5 OFFCURVE",
"123 813.5 CURVE SMOOTH",
"159.667 788.5 OFFCURVE",
"181 761.833 OFFCURVE",
"187 733.5 CURVE SMOOTH",
"193 705.167 OFFCURVE",
"194.667 414 OFFCURVE",
"192 -140 CURVE",
"184 -194.667 OFFCURVE",
"163.667 -247.667 OFFCURVE",
"131 -299 CURVE SMOOTH",
"98.333 -350.333 OFFCURVE",
"82 -379.667 OFFCURVE",
"82 -387 CURVE SMOOTH",
"82 -405.667 OFFCURVE",
"95.167 -419.333 OFFCURVE",
"121.5 -428 CURVE SMOOTH",
"147.833 -436.667 OFFCURVE",
"217.333 -441 OFFCURVE",
"330 -441 CURVE",
"356 -440 LINE",
"454 -440 OFFCURVE",
"517.833 -436 OFFCURVE",
"547.5 -428 CURVE SMOOTH",
"577.167 -420 OFFCURVE",
"592 -405.333 OFFCURVE",
"592 -384 CURVE SMOOTH",
"592 -368 OFFCURVE",
"580 -348 OFFCURVE",
"556 -324 CURVE SMOOTH",
"512 -280 LINE",
"482.667 -241.333 OFFCURVE",
"468 -194.667 OFFCURVE",
"468 -140 CURVE SMOOTH"
);
}
);
width = 1220;
}
);
note = uni0070;
unicode = 0070;
},
{
color = 10;
glyphname = q;
layers = (
{
layerId = "92A672BF-229C-4BEC-8D25-4DDBB2A38145";
paths = (
{
closed = 1;
nodes = (
"284 611 OFFCURVE",
"304.667 698 OFFCURVE",
"346 768 CURVE SMOOTH",
"394 848 OFFCURVE",
"470 891 OFFCURVE",
"542 891 CURVE SMOOTH",
"563 891 LINE SMOOTH",
"639 891 OFFCURVE",
"713.833 850.167 OFFCURVE",
"742.5 789.5 CURVE",
"704.167 844.333 OFFCURVE",
"728.167 819.833 OFFCURVE",
"742.5 789.5 CURVE SMOOTH",
"756.833 759.167 OFFCURVE",
"764 658.667 OFFCURVE",
"764 488 CURVE SMOOTH",
"764 465 LINE",
"765 454 LINE",
"765 446.667 OFFCURVE",
"765 439.333 OFFCURVE",
"765 432 CURVE",
"766 421 LINE",
"766 312 LINE SMOOTH",
"766 243.333 OFFCURVE",
"751.667 194.667 OFFCURVE",
"723 166 CURVE SMOOTH",
"672.333 115.333 OFFCURVE",
"613 90 OFFCURVE",
"545 90 CURVE SMOOTH",
"535 90 LINE SMOOTH",
"387 90 OFFCURVE",
"284 243.667 OFFCURVE",
"284 469 CURVE SMOOTH",
"284 507 LINE SMOOTH"
);
},
{
closed = 1;
nodes = (
"775.483 917 OFFCURVE",
"630.186 968 OFFCURVE",
"528 968 CURVE SMOOTH",
"472.667 968 OFFCURVE",
"418.667 957.667 OFFCURVE",
"366 937 CURVE SMOOTH",
"247.333 889.667 OFFCURVE",
"166 805.333 OFFCURVE",
"122 684 CURVE SMOOTH",
"98.667 620 OFFCURVE",
"87 559.333 OFFCURVE",
"87 502 CURVE SMOOTH",
"87 448 LINE SMOOTH",
"87 328.667 OFFCURVE",
"119.667 226.667 OFFCURVE",
"185 142 CURVE SMOOTH",
"254.333 52.667 OFFCURVE",
"361.333 2 OFFCURVE",
"472 2 CURVE SMOOTH",
"569.833 2 OFFCURVE",
"700.249 66 OFFCURVE",
"735 66 CURVE SMOOTH",
"785.565 66 OFFCURVE",
"780.022 -220.299 OFFCURVE",
"755 -290.5 CURVE SMOOTH",
"746.766 -313.601 OFFCURVE",
"644 -421.118 OFFCURVE",
"644 -427 CURVE SMOOTH",
"644 -448.333 OFFCURVE",
"687.667 -459 OFFCURVE",
"775 -459 CURVE SMOOTH",
"825 -459 LINE SMOOTH",
"994.333 -459 OFFCURVE",
"1079 -446.667 OFFCURVE",
"1079 -422 CURVE SMOOTH",
"1079 -407 LINE SMOOTH",
"1079 -386.793 OFFCURVE",
"1003.362 -341.191 OFFCURVE",
"985.5 -309.5 CURVE SMOOTH",
"975.167 -291.167 OFFCURVE",
"970 -248 OFFCURVE",
"970 -180 CURVE",
"966 24 LINE",
"966 127 LINE",
"967 178 LINE",
"967 229 LINE",
"968 280 LINE",
"968 484 LINE",
"969 561 LINE SMOOTH",
"969 621.667 OFFCURVE",
"973.833 679.667 OFFCURVE",
"983.5 735 CURVE SMOOTH",
"993.167 790.333 OFFCURVE",
"998 825 OFFCURVE",
"998 839 CURVE SMOOTH",
"998 908.333 OFFCURVE",
"973 943 OFFCURVE",
"923 943 CURVE",
"816 917 LINE"
);
}
);
width = 1161;
},
{
layerId = "5CBF0BAD-1756-4F16-9711-93DC239D102B";
paths = (
{
closed = 1;
nodes = (
"345 715.333 OFFCURVE",
"432.667 861 OFFCURVE",
"558 861 CURVE SMOOTH",
"585 861 LINE SMOOTH",
"711.667 861 OFFCURVE",
"746 797 OFFCURVE",
"746 557 CURVE SMOOTH",
"746 448 LINE SMOOTH",
"746 315.333 OFFCURVE",
"735.667 234.667 OFFCURVE",
"715 206 CURVE SMOOTH",
"684.333 162.667 OFFCURVE",
"638 141 OFFCURVE",
"576 141 CURVE",
"568 140 LINE",
"437.333 140 OFFCURVE",
"345 276.333 OFFCURVE",
"345 483 CURVE SMOOTH",
"345 506 LINE SMOOTH"
);
},
{
closed = 1;
nodes = (
"757 -153.667 OFFCURVE",
"747.333 -228.333 OFFCURVE",
"728 -267 CURVE SMOOTH",
"706.222 -310.556 OFFCURVE",
"631 -349.63 OFFCURVE",
"631 -401 CURVE SMOOTH",
"631 -422.333 OFFCURVE",
"645.667 -436.5 OFFCURVE",
"675 -443.5 CURVE SMOOTH",
"704.333 -450.5 OFFCURVE",
"761.333 -454 OFFCURVE",
"846 -454 CURVE SMOOTH",
"948 -452 LINE",
"999 -450 LINE",
"1098.333 -450 OFFCURVE",
"1148 -434.667 OFFCURVE",
"1148 -404 CURVE SMOOTH",
"1148 -385 LINE SMOOTH",
"1148 -381 OFFCURVE",
"1126.667 -357 OFFCURVE",
"1084 -313 CURVE SMOOTH",
"1066 -294.333 OFFCURVE",
"1052.667 -263.167 OFFCURVE",
"1044 -219.5 CURVE SMOOTH",
"1035.333 -175.833 OFFCURVE",
"1031 -29 OFFCURVE",
"1031 221 CURVE SMOOTH",
"1031 529 LINE",
"1032 555 LINE",
"1032 612.333 OFFCURVE",
"1038.333 668.167 OFFCURVE",
"1051 722.5 CURVE SMOOTH",
"1063.667 776.833 OFFCURVE",
"1070 812.667 OFFCURVE",
"1070 830 CURVE SMOOTH",
"1070 920.667 OFFCURVE",
"1043.667 966 OFFCURVE",
"991 966 CURVE SMOOTH",
"967 966 OFFCURVE",
"948.667 965.333 OFFCURVE",
"936 964 CURVE SMOOTH",
"889 959 LINE",
"845.122 956.075 OFFCURVE",
"766.543 954.888 OFFCURVE",
"696 970.5 CURVE SMOOTH",
"655.333 979.5 OFFCURVE",
"621.667 984 OFFCURVE",
"595 984 CURVE SMOOTH",
"546 984 LINE SMOOTH",
"476 984 OFFCURVE",
"411 969.333 OFFCURVE",
"351 940 CURVE SMOOTH",
"243.667 888 OFFCURVE",
"167.333 803.333 OFFCURVE",
"122 686 CURVE SMOOTH",
"98.667 625.333 OFFCURVE",
"87 566 OFFCURVE",
"87 508 CURVE SMOOTH",
"87 455 LINE SMOOTH",
"87 393 OFFCURVE",
"97.333 333.333 OFFCURVE",
"118 276 CURVE SMOOTH",
"162 152 OFFCURVE",
"234 68 OFFCURVE",
"334 24 CURVE SMOOTH",
"383.333 2 OFFCURVE",
"431.667 -9 OFFCURVE",
"479 -9 CURVE SMOOTH",
"480.333 -9 OFFCURVE",
"481.667 -9 OFFCURVE",
"483 -9 CURVE SMOOTH",
"536.099 -9 OFFCURVE",
"686.598 41 OFFCURVE",
"710 41 CURVE SMOOTH",
"741.333 41 OFFCURVE",
"757 13 OFFCURVE",
"757 -43 CURVE SMOOTH"
);
}
);
width = 1197;
}
);
note = uni0071;
unicode = 0071;
},
{
color = 10;
glyphname = r;
layers = (
{
layerId = "92A672BF-229C-4BEC-8D25-4DDBB2A38145";
paths = (
{
closed = 1;
nodes = (
"489 755.333 OFFCURVE",
"536.667 799 OFFCURVE",
"596 799 CURVE SMOOTH",
"663.073 799 OFFCURVE",
"765.091 718.709 OFFCURVE",
"810 768.5 CURVE SMOOTH",
"855.814 819.294 OFFCURVE",
"795.115 950 OFFCURVE",
"725 950 CURVE SMOOTH",
"649 950 OFFCURVE",
"575 921.333 OFFCURVE",
"503 864 CURVE SMOOTH",
"480.333 846 OFFCURVE",
"461.667 837 OFFCURVE",
"447 837 CURVE SMOOTH",
"441.667 837 OFFCURVE",
"427.333 861.333 OFFCURVE",
"404 910 CURVE SMOOTH",
"390 939.333 OFFCURVE",
"363 954 OFFCURVE",
"323 954 CURVE SMOOTH",
"224.333 954 OFFCURVE",
"155.667 939.667 OFFCURVE",
"117 911 CURVE SMOOTH",
"107 903.667 OFFCURVE",
"102 897 OFFCURVE",
"102 891 CURVE SMOOTH",
"102 882.152 OFFCURVE",
"199.846 791.494 OFFCURVE",
"208 763.5 CURVE",
"177.833 824 OFFCURVE",
"198 797.833 OFFCURVE",
"208 763.5 CURVE SMOOTH",
"218 729.167 OFFCURVE",
"223 627.833 OFFCURVE",
"223 459.5 CURVE SMOOTH",
"223 291.167 OFFCURVE",
"217.833 192.333 OFFCURVE",
"207.5 163 CURVE SMOOTH",
"197.167 133.667 OFFCURVE",
"176 109.833 OFFCURVE",
"144 91.5 CURVE",
"200.226 142.352 OFFCURVE",
"96 49.491 OFFCURVE",
"96 43 CURVE SMOOTH",
"96 15.667 OFFCURVE",
"135.667 2 OFFCURVE",
"215 2 CURVE SMOOTH",
"277 1 LINE",
"319 -1 LINE",
"425 -1 LINE SMOOTH",
"523.667 -1 OFFCURVE",
"573 11 OFFCURVE",
"573 35 CURVE SMOOTH",
"573 59 OFFCURVE",
"555 80.333 OFFCURVE",
"519 99 CURVE SMOOTH",
"483 117.667 OFFCURVE",
"457.667 141.167 OFFCURVE",
"443 169.5 CURVE SMOOTH",
"428.333 197.833 OFFCURVE",
"431.667 364 OFFCURVE",
"453 668 CURVE"
);
}
);
width = 878;
},
{
layerId = "5CBF0BAD-1756-4F16-9711-93DC239D102B";
paths = (
{
closed = 1;
nodes = (
"533.667 861 OFFCURVE",
"521 855 OFFCURVE",
"515 855 CURVE SMOOTH",
"501 855 OFFCURVE",
"488.833 869.333 OFFCURVE",
"478.5 898 CURVE SMOOTH",
"468.167 926.667 OFFCURVE",
"459 943.667 OFFCURVE",
"451 949 CURVE SMOOTH",
"431.667 961.667 OFFCURVE",
"394 968 OFFCURVE",
"338 968 CURVE SMOOTH",
"282 968 OFFCURVE",
"219.333 958.667 OFFCURVE",
"150 940 CURVE SMOOTH",
"104 927.333 OFFCURVE",
"81 905.667 OFFCURVE",
"81 875 CURVE SMOOTH",
"81 831.726 OFFCURVE",
"180.341 792.655 OFFCURVE",
"197.5 738 CURVE",
"166.833 791.167 OFFCURVE",
"188.5 766.667 OFFCURVE",
"197.5 738 CURVE SMOOTH",
"206.5 709.333 OFFCURVE",
"211 622.667 OFFCURVE",
"211 478 CURVE SMOOTH",
"211 333.333 OFFCURVE",
"207.167 248.667 OFFCURVE",
"199.5 224 CURVE SMOOTH",
"191.833 199.333 OFFCURVE",
"170.5 171.667 OFFCURVE",
"135.5 141 CURVE",
"191.833 199.333 OFFCURVE",
"170.5 171.667 OFFCURVE",
"135.5 141 CURVE SMOOTH",
"100.5 110.333 OFFCURVE",
"118 65 OFFCURVE",
"188 5 CURVE",
"203.333 5 OFFCURVE",
"218 4.667 OFFCURVE",
"232 4 CURVE SMOOTH",
"253 3 LINE",
"267.667 3 OFFCURVE",
"282 2.667 OFFCURVE",
"296 2 CURVE SMOOTH",
"317 1 LINE",
"403 1 LINE SMOOTH",
"557.667 1 OFFCURVE",
"635 17 OFFCURVE",
"635 49 CURVE SMOOTH",
"635 108.827 OFFCURVE",
"527.064 197.076 OFFCURVE",
"498 257.5 CURVE SMOOTH",
"470.498 314.675 OFFCURVE",
"474.574 548.008 OFFCURVE",
"494.5 629 CURVE SMOOTH",
"515.167 713 OFFCURVE",
"579.333 760 OFFCURVE",
"622 760 CURVE SMOOTH",
"722.732 760 OFFCURVE",
"728.505 680.091 OFFCURVE",
"832 746.5 CURVE",
"840.487 699.821 OFFCURVE",
"892 763.896 OFFCURVE",
"892 834 CURVE SMOOTH",
"892 866.667 OFFCURVE",
"882.167 894.667 OFFCURVE",
"862.5 918 CURVE SMOOTH",
"842.833 941.333 OFFCURVE",
"739.667 926.333 OFFCURVE",
"553 873 CURVE"
);
}
);
width = 941;
}
);
note = uni0072;
unicode = 0072;
},
{
color = 10;
glyphname = s;
layers = (
{
layerId = "92A672BF-229C-4BEC-8D25-4DDBB2A38145";
paths = (
{
closed = 1;
nodes = (
"806 341.667 OFFCURVE",
"778 400.333 OFFCURVE",
"722 449 CURVE SMOOTH",
"680 485.667 OFFCURVE",
"614.5 522.167 OFFCURVE",
"525.5 558.5 CURVE SMOOTH",
"436.5 594.833 OFFCURVE",
"378.667 622 OFFCURVE",
"352 640 CURVE SMOOTH",
"267.588 697.883 OFFCURVE",
"260.463 794.176 OFFCURVE",
"325.5 848 CURVE SMOOTH",
"354.5 872 OFFCURVE",
"395.167 884 OFFCURVE",
"447.5 884 CURVE SMOOTH",
"552.167 884 OFFCURVE",
"596 846.333 OFFCURVE",
"648 765 CURVE SMOOTH",
"674 724.333 OFFCURVE",
"693.667 704 OFFCURVE",
"707 704 CURVE SMOOTH",
"746.333 704 OFFCURVE",
"766 743.333 OFFCURVE",
"766 822 CURVE SMOOTH",
"766 876 OFFCURVE",
"755 910 OFFCURVE",
"733 924 CURVE SMOOTH",
"684.333 955.333 OFFCURVE",
"598 971 OFFCURVE",
"474 971 CURVE SMOOTH",
"447 971 LINE SMOOTH",
"256.333 971 OFFCURVE",
"118 859 OFFCURVE",
"118 715 CURVE SMOOTH",
"118 643 OFFCURVE",
"138.167 586.167 OFFCURVE",
"178.5 544.5 CURVE SMOOTH",
"218.833 502.833 OFFCURVE",
"350.667 430 OFFCURVE",
"574 326 CURVE",
"651.547 265.964 OFFCURVE",
"655.129 170.658 OFFCURVE",
"590.5 111 CURVE SMOOTH",
"527 52.385 OFFCURVE",
"368.498 55.002 OFFCURVE",
"291 117 CURVE SMOOTH",
"271 133 OFFCURVE",
"247 164.5 OFFCURVE",
"219 211.5 CURVE SMOOTH",
"191 258.5 OFFCURVE",
"168.333 282 OFFCURVE",
"151 282 CURVE SMOOTH",
"114.333 282 OFFCURVE",
"96 247.667 OFFCURVE",
"96 179 CURVE SMOOTH",
"96 155 LINE SMOOTH",
"96 91.667 OFFCURVE",
"111.667 51.667 OFFCURVE",
"143 35 CURVE SMOOTH",
"209 0.333 OFFCURVE",
"304.667 -17 OFFCURVE",
"430 -17 CURVE SMOOTH",
"457 -17 LINE SMOOTH",
"553.667 -17 OFFCURVE",
"635 6.333 OFFCURVE",
"701 53 CURVE SMOOTH",
"771.667 102.333 OFFCURVE",
"806 180.667 OFFCURVE",
"806 246 CURVE SMOOTH",
"806 273 LINE SMOOTH"
);
}
);
width = 894;
},
{
layerId = "5CBF0BAD-1756-4F16-9711-93DC239D102B";
paths = (
{
closed = 1;
nodes = (
"700.667 971.333 OFFCURVE",
"603.667 986 OFFCURVE",
"461 986 CURVE SMOOTH",
"434 986 LINE SMOOTH",
"252.667 986 OFFCURVE",
"94 868.833 OFFCURVE",
"94 709.5 CURVE SMOOTH",
"94 629.833 OFFCURVE",
"123 562.667 OFFCURVE",
"181 508 CURVE SMOOTH",
"219.667 471.333 OFFCURVE",
"284.5 433.5 OFFCURVE",
"375.5 394.5 CURVE SMOOTH",
"466.5 355.5 OFFCURVE",
"522.333 328.333 OFFCURVE",
"543 313 CURVE SMOOTH",
"614.073 260.308 OFFCURVE",
"620.187 172.79 OFFCURVE",
"559.5 135.5 CURVE SMOOTH",
"531.833 118.5 OFFCURVE",
"498 110 OFFCURVE",
"458 110 CURVE SMOOTH",
"392 110 OFFCURVE",
"330.833 141 OFFCURVE",
"274.5 203 CURVE SMOOTH",
"218.167 265 OFFCURVE",
"171 296 OFFCURVE",
"133 296 CURVE SMOOTH",
"103 296 OFFCURVE",
"88 256 OFFCURVE",
"88 176 CURVE SMOOTH",
"88 96 OFFCURVE",
"110.667 45.333 OFFCURVE",
"156 24 CURVE SMOOTH",
"220.667 -6.667 OFFCURVE",
"317.667 -22 OFFCURVE",
"447 -22 CURVE SMOOTH",
"500 -22 LINE SMOOTH",
"706.667 -22 OFFCURVE",
"853 111.333 OFFCURVE",
"853 266 CURVE SMOOTH",
"853 343.333 OFFCURVE",
"831.167 404.5 OFFCURVE",
"787.5 449.5 CURVE SMOOTH",
"743.833 494.5 OFFCURVE",
"611.667 565.667 OFFCURVE",
"391 663 CURVE",
"352.333 689.667 OFFCURVE",
"333 723 OFFCURVE",
"333 763 CURVE SMOOTH",
"333 809.667 OFFCURVE",
"380.333 856 OFFCURVE",
"455 856 CURVE SMOOTH",
"520.333 856 OFFCURVE",
"574.5 829 OFFCURVE",
"617.5 775 CURVE SMOOTH",
"660.5 721 OFFCURVE",
"700.667 694 OFFCURVE",
"738 694 CURVE SMOOTH",
"833.568 694 OFFCURVE",
"837.895 892.372 OFFCURVE",
"752 942 CURVE SMOOTH"
);
}
);
width = 924;
}
);
note = uni0073;
unicode = 0073;
},
{
color = 10;
glyphname = t;
layers = (
{
layerId = "92A672BF-229C-4BEC-8D25-4DDBB2A38145";
paths = (
{
closed = 1;
nodes = (
"82 884.333 OFFCURVE",
"99.667 869 OFFCURVE",
"135 847 CURVE SMOOTH",
"151.667 836.333 OFFCURVE",
"166.5 815.333 OFFCURVE",
"179.5 784 CURVE SMOOTH",
"192.5 752.667 OFFCURVE",
"199 694.667 OFFCURVE",
"199 610 CURVE SMOOTH",
"201 530 LINE",
"201 447 LINE SMOOTH",
"201 272.333 OFFCURVE",
"215.333 158 OFFCURVE",
"244 104 CURVE SMOOTH",
"282.667 30.667 OFFCURVE",
"361.5 -13 OFFCURVE",
"451.5 -13 CURVE SMOOTH",
"496.5 -13 OFFCURVE",
"539.333 -4 OFFCURVE",
"580 14 CURVE SMOOTH",
"650.667 45.333 OFFCURVE",
"686 77 OFFCURVE",
"686 109 CURVE SMOOTH",
"686 135 OFFCURVE",
"675 148 OFFCURVE",
"653 148 CURVE SMOOTH",
"645.667 148 OFFCURVE",
"623.5 142.167 OFFCURVE",
"586.5 130.5 CURVE SMOOTH",
"549.5 118.833 OFFCURVE",
"520.333 113 OFFCURVE",
"499 113 CURVE SMOOTH",
"461 113 OFFCURVE",
"432.833 134.167 OFFCURVE",
"414.5 176.5 CURVE SMOOTH",
"396.167 218.833 OFFCURVE",
"387 325.167 OFFCURVE",
"387 495.5 CURVE",
"377.766 261.322 OFFCURVE",
"375.243 730.792 OFFCURVE",
"419 806 CURVE SMOOTH",
"457.222 873.45 OFFCURVE",
"634 829.564 OFFCURVE",
"634 903.5 CURVE SMOOTH",
"634 927.833 OFFCURVE",
"603.667 947 OFFCURVE",
"543 961 CURVE SMOOTH",
"421.667 989 OFFCURVE",
"407 1014.833 OFFCURVE",
"395 1103.5 CURVE SMOOTH",
"389 1147.833 OFFCURVE",
"384 1175 OFFCURVE",
"380 1185 CURVE SMOOTH",
"370.667 1206.333 OFFCURVE",
"352.5 1217 OFFCURVE",
"325.5 1217 CURVE SMOOTH",
"298.5 1217 OFFCURVE",
"272.833 1183 OFFCURVE",
"248.5 1115 CURVE SMOOTH",
"199.833 979 OFFCURVE",
"216.667 998.333 OFFCURVE",
"82 893 CURVE"
);
}
);
width = 743;
},
{
layerId = "5CBF0BAD-1756-4F16-9711-93DC239D102B";
paths = (
{
closed = 1;
nodes = (
"178.667 673.667 OFFCURVE",
"188 575.333 OFFCURVE",
"188 460 CURVE SMOOTH",
"188 401 LINE SMOOTH",
"188 383 OFFCURVE",
"188.333 366.667 OFFCURVE",
"189 352 CURVE SMOOTH",
"190 331 LINE",
"190 227 OFFCURVE",
"209 147 OFFCURVE",
"247 91 CURVE SMOOTH",
"285.667 33.667 OFFCURVE",
"367.667 -12 OFFCURVE",
"441 -12 CURVE SMOOTH",
"519.667 -12 OFFCURVE",
"594.333 4.667 OFFCURVE",
"665 38 CURVE SMOOTH",
"714.333 61.333 OFFCURVE",
"739 92.667 OFFCURVE",
"739 132 CURVE SMOOTH",
"739 162.667 OFFCURVE",
"718.667 178 OFFCURVE",
"678 178 CURVE SMOOTH",
"659.333 178 OFFCURVE",
"642 177.333 OFFCURVE",
"626 176 CURVE SMOOTH",
"590 173 LINE",
"542 173 OFFCURVE",
"507.5 193.333 OFFCURVE",
"486.5 234 CURVE SMOOTH",
"465.5 274.667 OFFCURVE",
"455 363 OFFCURVE",
"455 499 CURVE SMOOTH",
"455 771 OFFCURVE",
"445 777.667 OFFCURVE",
"697 887 CURVE",
"697 911.667 OFFCURVE",
"685.667 933 OFFCURVE",
"663 951 CURVE",
"638.183 963.409 OFFCURVE",
"547.565 986.596 OFFCURVE",
"508 1021 CURVE SMOOTH",
"470.904 1053.257 OFFCURVE",
"462.37 1163.296 OFFCURVE",
"442 1202 CURVE SMOOTH",
"411.248 1258.156 OFFCURVE",
"325.202 1257.231 OFFCURVE",
"283 1202.5 CURVE SMOOTH",
"237.378 1143.334 OFFCURVE",
"208.677 1026.193 OFFCURVE",
"181 990 CURVE SMOOTH",
"152.669 952.952 OFFCURVE",
"62 935.84 OFFCURVE",
"62 888.5 CURVE SMOOTH",
"62 866.562 OFFCURVE",
"151.889 791.499 OFFCURVE",
"160 755 CURVE SMOOTH"
);
}
);
width = 804;
}
);
note = uni0074;
unicode = 0074;
},
{
color = 10;
glyphname = u;
layers = (
{
layerId = "92A672BF-229C-4BEC-8D25-4DDBB2A38145";
paths = (
{
closed = 1;
nodes = (
"1124 61.7 OFFCURVE",
"1024.571 150.487 OFFCURVE",
"1017 180.5 CURVE",
"1046.5 117 OFFCURVE",
"1026.333 143.5 OFFCURVE",
"1017 180.5 CURVE SMOOTH",
"1007.667 217.5 OFFCURVE",
"1003 327.333 OFFCURVE",
"1003 510 CURVE SMOOTH",
"1008 778 LINE",
"1012 836 LINE",
"1013 865 LINE SMOOTH",
"1013 935.667 OFFCURVE",
"995 955 OFFCURVE",
"927 955 CURVE SMOOTH",
"787 955 OFFCURVE",
"717 942 OFFCURVE",
"717 916 CURVE SMOOTH",
"717 900 OFFCURVE",
"729.667 883 OFFCURVE",
"755 865 CURVE SMOOTH",
"779.667 847 OFFCURVE",
"795 826.333 OFFCURVE",
"801 803 CURVE SMOOTH",
"807 779.667 OFFCURVE",
"810 686.167 OFFCURVE",
"810 522.5 CURVE SMOOTH",
"810 195.167 OFFCURVE",
"811 190 OFFCURVE",
"563 106 CURVE",
"492.333 106 OFFCURVE",
"441.667 138.667 OFFCURVE",
"411 204 CURVE SMOOTH",
"393.667 241.333 OFFCURVE",
"385 348.667 OFFCURVE",
"385 526 CURVE SMOOTH",
"385 704 OFFCURVE",
"379 826.333 OFFCURVE",
"367 893 CURVE SMOOTH",
"359 936.333 OFFCURVE",
"331.667 958 OFFCURVE",
"285 958 CURVE SMOOTH",
"167.667 958 OFFCURVE",
"94.667 946 OFFCURVE",
"66 922 CURVE",
"56 905 LINE",
"56 857.989 OFFCURVE",
"151.669 859.034 OFFCURVE",
"173.5 814.5 CURVE SMOOTH",
"252.276 653.797 OFFCURVE",
"117.331 323.111 OFFCURVE",
"224 121 CURVE SMOOTH",
"272.667 29 OFFCURVE",
"352.333 -17 OFFCURVE",
"463 -17 CURVE SMOOTH",
"493 -17 LINE SMOOTH",
"493.667 -17 OFFCURVE",
"494.333 -17 OFFCURVE",
"495 -17 CURVE SMOOTH",
"571 -17 OFFCURVE",
"652.667 14.667 OFFCURVE",
"740 78 CURVE SMOOTH",
"798.584 120.606 OFFCURVE",
"811.992 48.266 OFFCURVE",
"867 10 CURVE SMOOTH",
"923.786 -29.503 OFFCURVE",
"1124 -23.601 OFFCURVE",
"1124 51 CURVE SMOOTH"
);
}
);
width = 1203;
},
{
layerId = "5CBF0BAD-1756-4F16-9711-93DC239D102B";
paths = (
{
closed = 1;
nodes = (
"1178 86.875 OFFCURVE",
"1089.069 206.366 OFFCURVE",
"1079 250 CURVE",
"1105.5 179 OFFCURVE",
"1087 215.333 OFFCURVE",
"1079 250 CURVE SMOOTH",
"1071 284.667 OFFCURVE",
"1067 375.333 OFFCURVE",
"1067 522 CURVE SMOOTH",
"1067 670 LINE",
"1068 700 LINE",
"1072 845 LINE SMOOTH",
"1072 957 OFFCURVE",
"1052.333 970 OFFCURVE",
"983 970 CURVE SMOOTH",
"955 970 LINE SMOOTH",
"783 970 OFFCURVE",
"697 946.667 OFFCURVE",
"697 900 CURVE SMOOTH",
"697 886 OFFCURVE",
"708 862.333 OFFCURVE",
"730 829 CURVE SMOOTH",
"752 795.667 OFFCURVE",
"769 754.333 OFFCURVE",
"781 705 CURVE SMOOTH",
"793 655.667 OFFCURVE",
"799 571 OFFCURVE",
"799 451 CURVE SMOOTH",
"799 331 OFFCURVE",
"757.333 234.667 OFFCURVE",
"674 162 CURVE",
"648.667 152.667 OFFCURVE",
"624 148 OFFCURVE",
"600 148 CURVE SMOOTH",
"586 148 OFFCURVE",
"572.333 149.667 OFFCURVE",
"559 153 CURVE SMOOTH",
"507 165 OFFCURVE",
"473.333 202.333 OFFCURVE",
"458 265 CURVE SMOOTH",
"433.934 361.266 OFFCURVE",
"450.64 827.527 OFFCURVE",
"421 912 CURVE",
"441 768 OFFCURVE",
"434.333 874 OFFCURVE",
"421 912 CURVE SMOOTH",
"407.667 950 OFFCURVE",
"379 969 OFFCURVE",
"335 969 CURVE SMOOTH",
"243 969 OFFCURVE",
"166 960.667 OFFCURVE",
"104 944 CURVE SMOOTH",
"64 933.333 OFFCURVE",
"44 912 OFFCURVE",
"44 880 CURVE SMOOTH",
"44 821.593 OFFCURVE",
"138.553 821.884 OFFCURVE",
"161.5 772 CURVE SMOOTH",
"222.856 638.617 OFFCURVE",
"122.749 317.632 OFFCURVE",
"209.5 137 CURVE SMOOTH",
"258.167 35.667 OFFCURVE",
"344 -19 OFFCURVE",
"468 -19 CURVE SMOOTH",
"592 -19 OFFCURVE",
"655.5 20.167 OFFCURVE",
"737.5 63.5 CURVE",
"785.414 101.949 OFFCURVE",
"791.295 111.169 OFFCURVE",
"815 64.5 CURVE",
"795.5 96 OFFCURVE",
"804.333 85.5 OFFCURVE",
"815 64.5 CURVE SMOOTH",
"825.667 43.5 OFFCURVE",
"870.333 20.333 OFFCURVE",
"949 -5 CURVE",
"1101.667 -5 OFFCURVE",
"1178 22 OFFCURVE",
"1178 76 CURVE SMOOTH"
);
}
);
width = 1249;
}
);
note = uni0075;
unicode = 0075;
},
{
color = 10;
glyphname = v;
layers = (
{
layerId = "92A672BF-229C-4BEC-8D25-4DDBB2A38145";
paths = (
{
closed = 1;
nodes = (
"419 937 OFFCURVE",
"395.333 950 OFFCURVE",
"348 950 CURVE SMOOTH",
"252 952 LINE SMOOTH",
"104 952 OFFCURVE",
"30 940 OFFCURVE",
"30 916 CURVE SMOOTH",
"30 896.667 OFFCURVE",
"48 877.167 OFFCURVE",
"84 857.5 CURVE SMOOTH",
"120 837.833 OFFCURVE",
"147.333 810.667 OFFCURVE",
"166 776 CURVE SMOOTH",
"253.519 612.744 OFFCURVE",
"349.737 271.78 OFFCURVE",
"436 96 CURVE",
"355.5 283.167 OFFCURVE",
"400.667 168 OFFCURVE",
"436 96 CURVE SMOOTH",
"471.333 24 OFFCURVE",
"507.5 -12 OFFCURVE",
"544.5 -12 CURVE SMOOTH",
"581.5 -12 OFFCURVE",
"617.167 21.667 OFFCURVE",
"651.5 89 CURVE SMOOTH",
"685.833 156.333 OFFCURVE",
"741.667 285.667 OFFCURVE",
"819 477 CURVE",
"713.457 210.508 OFFCURVE",
"914.098 726.84 OFFCURVE",
"944 780 CURVE SMOOTH",
"958 806 OFFCURVE",
"982.667 830 OFFCURVE",
"1018 852 CURVE SMOOTH",
"1053.333 874 OFFCURVE",
"1071 895 OFFCURVE",
"1071 915 CURVE SMOOTH",
"1071 941 OFFCURVE",
"1030.333 954 OFFCURVE",
"949 954 CURVE SMOOTH",
"925 954 LINE SMOOTH",
"805.667 954 OFFCURVE",
"746 942 OFFCURVE",
"746 918 CURVE SMOOTH",
"746 910.667 OFFCURVE",
"757.667 893.833 OFFCURVE",
"781 867.5 CURVE SMOOTH",
"804.333 841.167 OFFCURVE",
"816 817 OFFCURVE",
"816 795 CURVE SMOOTH",
"816 708.333 OFFCURVE",
"760.333 548 OFFCURVE",
"649 314 CURVE SMOOTH",
"620.333 253.333 OFFCURVE",
"603.333 223 OFFCURVE",
"598 223 CURVE SMOOTH",
"586.667 223 OFFCURVE",
"573.5 239.5 OFFCURVE",
"558.5 272.5 CURVE SMOOTH",
"543.5 305.5 OFFCURVE",
"508.833 401.667 OFFCURVE",
"454.5 561 CURVE SMOOTH",
"400.167 720.333 OFFCURVE",
"373 809.167 OFFCURVE",
"373 827.5 CURVE SMOOTH",
"373 845.833 OFFCURVE",
"388.333 873.667 OFFCURVE",
"419 911 CURVE"
);
}
);
width = 1096;
},
{
layerId = "5CBF0BAD-1756-4F16-9711-93DC239D102B";
paths = (
{
closed = 1;
nodes = (
"756 899 OFFCURVE",
"763 876 OFFCURVE",
"777 848 CURVE SMOOTH",
"791 820 OFFCURVE",
"798 795.667 OFFCURVE",
"798 775 CURVE SMOOTH",
"798 700.333 OFFCURVE",
"756.667 565 OFFCURVE",
"674 369 CURVE SMOOTH",
"656 326.333 OFFCURVE",
"643.333 305 OFFCURVE",
"636 305 CURVE SMOOTH",
"628.667 305 OFFCURVE",
"615.667 325.667 OFFCURVE",
"597 367 CURVE SMOOTH",
"508.333 566.333 OFFCURVE",
"464 708.667 OFFCURVE",
"464 794 CURVE SMOOTH",
"464 831.939 OFFCURVE",
"494 879.2 OFFCURVE",
"494 910.5 CURVE SMOOTH",
"494 961.373 OFFCURVE",
"439.374 965 OFFCURVE",
"338 965 CURVE SMOOTH",
"289 964 LINE SMOOTH",
"111.667 964 OFFCURVE",
"23 951.333 OFFCURVE",
"23 926 CURVE SMOOTH",
"23 907 LINE SMOOTH",
"23 878.395 OFFCURVE",
"148.063 775.881 OFFCURVE",
"175 725 CURVE",
"127.167 793.5 OFFCURVE",
"157 759 OFFCURVE",
"175 725 CURVE SMOOTH",
"193 691 OFFCURVE",
"241.333 576.667 OFFCURVE",
"320 382 CURVE SMOOTH",
"398.667 187.333 OFFCURVE",
"450.333 72 OFFCURVE",
"475 36 CURVE SMOOTH",
"499.667 0 OFFCURVE",
"534.667 -18 OFFCURVE",
"580 -18 CURVE",
"499.667 0 OFFCURVE",
"534.667 -18 OFFCURVE",
"580 -18 CURVE SMOOTH",
"625.333 -18 OFFCURVE",
"713.333 117.333 OFFCURVE",
"844 388 CURVE",
"929.333 596 OFFCURVE",
"972.333 700.667 OFFCURVE",
"973 702 CURVE SMOOTH",
"993 742 OFFCURVE",
"1022.667 779.833 OFFCURVE",
"1062 815.5 CURVE SMOOTH",
"1101.333 851.167 OFFCURVE",
"1121 881.667 OFFCURVE",
"1121 907 CURVE SMOOTH",
"1121 945 OFFCURVE",
"1074.667 964 OFFCURVE",
"982 964 CURVE SMOOTH",
"831.333 964 OFFCURVE",
"756 948.333 OFFCURVE",
"756 917 CURVE SMOOTH"
);
}
);
width = 1151;
}
);
note = uni0076;
unicode = 0076;
},
{
color = 10;
glyphname = w;
layers = (
{
layerId = "92A672BF-229C-4BEC-8D25-4DDBB2A38145";
paths = (
{
closed = 1;
nodes = (
"1342 948 OFFCURVE",
"1292 925 OFFCURVE",
"1292 879 CURVE",
"1316 774 LINE",
"1316 635.333 OFFCURVE",
"1203.333 304 OFFCURVE",
"1146 304 CURVE SMOOTH",
"1123.333 304 OFFCURVE",
"1101 333.333 OFFCURVE",
"1079 392 CURVE SMOOTH",
"1013 567.333 OFFCURVE",
"980 680.333 OFFCURVE",
"980 731 CURVE SMOOTH",
"981 761 LINE",
"983 791 LINE",
"983 827 OFFCURVE",
"974.667 854.667 OFFCURVE",
"958 874 CURVE SMOOTH",
"925.333 912.667 OFFCURVE",
"884.167 932 OFFCURVE",
"834.5 932 CURVE SMOOTH",
"784.833 932 OFFCURVE",
"745.833 920.5 OFFCURVE",
"717.5 897.5 CURVE SMOOTH",
"689.167 874.5 OFFCURVE",
"675 855.333 OFFCURVE",
"675 840 CURVE SMOOTH",
"675 824.667 OFFCURVE",
"682.667 770.667 OFFCURVE",
"698 678 CURVE",
"698 548.667 OFFCURVE",
"609 292 OFFCURVE",
"565 292 CURVE SMOOTH",
"510.333 292 OFFCURVE",
"386 637 OFFCURVE",
"386 793 CURVE",
"389 822 LINE",
"390 848 LINE",
"390 887.333 OFFCURVE",
"379 914.333 OFFCURVE",
"357 929 CURVE SMOOTH",
"335 943.667 OFFCURVE",
"283.5 951 OFFCURVE",
"202.5 951 CURVE",
"300.183 966.878 OFFCURVE",
"81 960.961 OFFCURVE",
"81 894 CURVE SMOOTH",
"81 883.333 OFFCURVE",
"92 860.667 OFFCURVE",
"114 826 CURVE SMOOTH",
"188.667 706.667 OFFCURVE",
"262.333 528.667 OFFCURVE",
"335 292 CURVE SMOOTH",
"355 226.667 OFFCURVE",
"374.333 174 OFFCURVE",
"393 134 CURVE SMOOTH",
"425.667 63.333 OFFCURVE",
"461 28 OFFCURVE",
"499 28 CURVE SMOOTH",
"527 28 OFFCURVE",
"555.333 54 OFFCURVE",
"584 106 CURVE SMOOTH",
"596.667 129.333 OFFCURVE",
"635.167 216.167 OFFCURVE",
"699.5 366.5 CURVE SMOOTH",
"763.833 516.833 OFFCURVE",
"799.333 592 OFFCURVE",
"806 592 CURVE SMOOTH",
"836.296 592 OFFCURVE",
"988.705 170.193 OFFCURVE",
"1028 98 CURVE",
"958.5 246.167 OFFCURVE",
"999.333 150.667 OFFCURVE",
"1028 98 CURVE SMOOTH",
"1056.667 45.333 OFFCURVE",
"1084.667 19 OFFCURVE",
"1112 19 CURVE SMOOTH",
"1152 19 OFFCURVE",
"1184.167 40.333 OFFCURVE",
"1208.5 83 CURVE SMOOTH",
"1232.833 125.667 OFFCURVE",
"1272.167 230.667 OFFCURVE",
"1326.5 398 CURVE SMOOTH",
"1435.167 732.667 OFFCURVE",
"1436.333 731.333 OFFCURVE",
"1535 898 CURVE",
"1535 915 LINE SMOOTH",
"1535 937 OFFCURVE",
"1504 948 OFFCURVE",
"1442 948 CURVE SMOOTH"
);
}
);
width = 1611;
},
{
layerId = "5CBF0BAD-1756-4F16-9711-93DC239D102B";
paths = (
{
closed = 1;
nodes = (
"764 948 OFFCURVE",
"692 909 OFFCURVE",
"692 777 CURVE",
"694 743 LINE",
"695 710 LINE SMOOTH",
"695 638 OFFCURVE",
"683.667 569.333 OFFCURVE",
"661 504 CURVE SMOOTH",
"638.333 438.667 OFFCURVE",
"616 406 OFFCURVE",
"594 406 CURVE SMOOTH",
"566.667 406 OFFCURVE",
"537.667 455 OFFCURVE",
"507 553 CURVE SMOOTH",
"499.667 577 OFFCURVE",
"488.833 634.167 OFFCURVE",
"474.5 724.5 CURVE SMOOTH",
"460.167 814.833 OFFCURVE",
"448.667 867.333 OFFCURVE",
"440 882 CURVE SMOOTH",
"410.667 932.667 OFFCURVE",
"346 958 OFFCURVE",
"246 958 CURVE SMOOTH",
"169 958 LINE SMOOTH",
"89 958 OFFCURVE",
"52 922.333 OFFCURVE",
"52 877 CURVE SMOOTH",
"52 874.188 OFFCURVE",
"163.546 706.166 OFFCURVE",
"183 662 CURVE SMOOTH",
"220.591 576.659 OFFCURVE",
"373.881 146.559 OFFCURVE",
"398 101 CURVE SMOOTH",
"434 33.667 OFFCURVE",
"475 0 OFFCURVE",
"521 0 CURVE SMOOTH",
"567 0 OFFCURVE",
"602 21 OFFCURVE",
"626 63 CURVE SMOOTH",
"640 87.667 OFFCURVE",
"676.167 171.833 OFFCURVE",
"734.5 315.5 CURVE SMOOTH",
"792.833 459.167 OFFCURVE",
"826.333 531 OFFCURVE",
"835 531 CURVE SMOOTH",
"838.333 531 OFFCURVE",
"869 459.667 OFFCURVE",
"927 317 CURVE SMOOTH",
"985 174.333 OFFCURVE",
"1019 93.333 OFFCURVE",
"1029 74 CURVE SMOOTH",
"1056.333 22 OFFCURVE",
"1088 -4 OFFCURVE",
"1124 -4 CURVE SMOOTH",
"1182.667 -4 OFFCURVE",
"1227.667 26.667 OFFCURVE",
"1259 88 CURVE SMOOTH",
"1271 110.667 OFFCURVE",
"1411.667 506 OFFCURVE",
"1441 598 CURVE SMOOTH",
"1470.333 690 OFFCURVE",
"1476 727.333 OFFCURVE",
"1592 894 CURVE",
"1592 1009.9 OFFCURVE",
"1285 991.4 OFFCURVE",
"1285 859 CURVE SMOOTH",
"1285 810 LINE",
"1291 782 LINE",
"1292 750 LINE SMOOTH",
"1292 594 OFFCURVE",
"1212 392 OFFCURVE",
"1168 392 CURVE SMOOTH",
"1156.667 392 OFFCURVE",
"1144 407 OFFCURVE",
"1130 437 CURVE SMOOTH",
"1075.333 555 OFFCURVE",
"1048 659 OFFCURVE",
"1048 749 CURVE SMOOTH",
"1048 881.667 OFFCURVE",
"992 948 OFFCURVE",
"880 948 CURVE SMOOTH"
);
}
);
width = 1651;
}
);
note = uni0077;
unicode = 0077;
},
{
color = 10;
glyphname = x;
layers = (
{
layerId = "92A672BF-229C-4BEC-8D25-4DDBB2A38145";
paths = (
{
closed = 1;
nodes = (
"72 894.333 OFFCURVE",
"90.333 878.667 OFFCURVE",
"127 858 CURVE SMOOTH",
"163.667 837.333 OFFCURVE",
"197 809.333 OFFCURVE",
"227 774 CURVE SMOOTH",
"362.333 614.667 OFFCURVE",
"430 513.5 OFFCURVE",
"430 470.5 CURVE SMOOTH",
"430 427.5 OFFCURVE",
"358.667 326 OFFCURVE",
"216 166 CURVE SMOOTH",
"190 136.667 OFFCURVE",
"156.667 112 OFFCURVE",
"116 92 CURVE SMOOTH",
"75.333 72 OFFCURVE",
"55 53.333 OFFCURVE",
"55 36 CURVE SMOOTH",
"55 8.667 OFFCURVE",
"111.667 -5 OFFCURVE",
"225 -5 CURVE SMOOTH",
"256 -5 LINE SMOOTH",
"334.667 -5 OFFCURVE",
"374 8 OFFCURVE",
"374 34 CURVE SMOOTH",
"374 35.333 OFFCURVE",
"368.167 44.667 OFFCURVE",
"356.5 62 CURVE SMOOTH",
"344.833 79.333 OFFCURVE",
"339 91 OFFCURVE",
"339 97 CURVE SMOOTH",
"339 167.667 OFFCURVE",
"484.333 344 OFFCURVE",
"519 344 CURVE SMOOTH",
"533.667 344 OFFCURVE",
"690 132.333 OFFCURVE",
"690 91 CURVE SMOOTH",
"690 83 OFFCURVE",
"684.333 72.667 OFFCURVE",
"673 60 CURVE SMOOTH",
"661.667 47.333 OFFCURVE",
"656 39.333 OFFCURVE",
"656 36 CURVE SMOOTH",
"656 13.333 OFFCURVE",
"700.333 2 OFFCURVE",
"789 2 CURVE SMOOTH",
"964.333 2 OFFCURVE",
"1052 14.667 OFFCURVE",
"1052 40 CURVE SMOOTH",
"1052 50.667 OFFCURVE",
"1033 67.333 OFFCURVE",
"995 90 CURVE SMOOTH",
"957 112.667 OFFCURVE",
"924 140.667 OFFCURVE",
"896 174 CURVE SMOOTH",
"746.667 349.333 OFFCURVE",
"672 457.5 OFFCURVE",
"672 498.5 CURVE SMOOTH",
"672 539.5 OFFCURVE",
"735.667 633 OFFCURVE",
"863 779 CURVE SMOOTH",
"888.333 808.333 OFFCURVE",
"922.5 832.667 OFFCURVE",
"965.5 852 CURVE SMOOTH",
"1008.5 871.333 OFFCURVE",
"1030 889.667 OFFCURVE",
"1030 907 CURVE SMOOTH",
"1030 935.667 OFFCURVE",
"978.833 950 OFFCURVE",
"876.5 950 CURVE SMOOTH",
"774.167 950 OFFCURVE",
"723 937.333 OFFCURVE",
"723 912 CURVE SMOOTH",
"723 905.333 OFFCURVE",
"728.167 894.667 OFFCURVE",
"738.5 880 CURVE SMOOTH",
"748.833 865.333 OFFCURVE",
"754 854.667 OFFCURVE",
"754 848 CURVE SMOOTH",
"754 817.333 OFFCURVE",
"723 763.667 OFFCURVE",
"661 687 CURVE SMOOTH",
"628.333 647 OFFCURVE",
"603 627 OFFCURVE",
"585 627 CURVE SMOOTH",
"571.667 627 OFFCURVE",
"429 814 OFFCURVE",
"429 858 CURVE SMOOTH",
"429 866 OFFCURVE",
"433.667 876.167 OFFCURVE",
"443 888.5 CURVE SMOOTH",
"452.333 900.833 OFFCURVE",
"457 910.667 OFFCURVE",
"457 918 CURVE SMOOTH",
"457 940.667 OFFCURVE",
"434 952 OFFCURVE",
"388 952 CURVE SMOOTH",
"326 952 LINE SMOOTH",
"156.667 952 OFFCURVE",
"72 936.333 OFFCURVE",
"72 905 CURVE SMOOTH"
);
}
);
width = 1105;
},
{
layerId = "5CBF0BAD-1756-4F16-9711-93DC239D102B";
paths = (
{
closed = 1;
nodes = (
"408 160 LINE",
"408 198 OFFCURVE",
"431.333 244.667 OFFCURVE",
"478 300 CURVE SMOOTH",
"498 324 OFFCURVE",
"517.333 336 OFFCURVE",
"536 336 CURVE SMOOTH",
"557.333 336 OFFCURVE",
"655 204 OFFCURVE",
"655 132 CURVE SMOOTH",
"655 128 OFFCURVE",
"653.333 114.333 OFFCURVE",
"650 91 CURVE",
"648 69 LINE",
"648 41.667 OFFCURVE",
"654.5 23.5 OFFCURVE",
"667.5 14.5 CURVE SMOOTH",
"680.5 5.5 OFFCURVE",
"715 1 OFFCURVE",
"771 1 CURVE SMOOTH",
"834 1 LINE SMOOTH",
"1020.667 1 OFFCURVE",
"1114 14.333 OFFCURVE",
"1114 41 CURVE SMOOTH",
"1114 67 LINE SMOOTH",
"1114 85.667 OFFCURVE",
"1090.667 109.833 OFFCURVE",
"1044 139.5 CURVE SMOOTH",
"997.333 169.167 OFFCURVE",
"955.333 208 OFFCURVE",
"918 256 CURVE SMOOTH",
"798.667 408.667 OFFCURVE",
"739 492.333 OFFCURVE",
"739 507 CURVE SMOOTH",
"739 542.333 OFFCURVE",
"779.333 607.333 OFFCURVE",
"860 702 CURVE SMOOTH",
"904.667 754.667 OFFCURVE",
"952 795 OFFCURVE",
"1002 823 CURVE SMOOTH",
"1052 851 OFFCURVE",
"1077 879.667 OFFCURVE",
"1077 909 CURVE SMOOTH",
"1077 947 OFFCURVE",
"995.667 966 OFFCURVE",
"833 966 CURVE SMOOTH",
"753.667 966 OFFCURVE",
"714 947.667 OFFCURVE",
"714 911 CURVE SMOOTH",
"714 905 OFFCURVE",
"718 892.5 OFFCURVE",
"726 873.5 CURVE SMOOTH",
"734 854.5 OFFCURVE",
"738 840.333 OFFCURVE",
"738 831 CURVE SMOOTH",
"738 789.667 OFFCURVE",
"716.333 745 OFFCURVE",
"673 697 CURVE SMOOTH",
"649.667 671 OFFCURVE",
"632 658 OFFCURVE",
"620 658 CURVE SMOOTH",
"608 658 OFFCURVE",
"594 669 OFFCURVE",
"578 691 CURVE SMOOTH",
"530 755.667 OFFCURVE",
"506 803.333 OFFCURVE",
"506 834 CURVE SMOOTH",
"506 843.333 OFFCURVE",
"508 857 OFFCURVE",
"512 875 CURVE SMOOTH",
"517 895 LINE",
"517 948.333 OFFCURVE",
"501.333 969 OFFCURVE",
"424 969 CURVE SMOOTH",
"174.667 969 OFFCURVE",
"50 954 OFFCURVE",
"50 924 CURVE SMOOTH",
"50 888.667 OFFCURVE",
"80.667 851.333 OFFCURVE",
"142 812 CURVE SMOOTH",
"178.667 788.667 OFFCURVE",
"215 755 OFFCURVE",
"251 711 CURVE SMOOTH",
"358.333 579.667 OFFCURVE",
"412 495.667 OFFCURVE",
"412 459 CURVE SMOOTH",
"412 436.333 OFFCURVE",
"347.667 354.667 OFFCURVE",
"219 214 CURVE SMOOTH",
"205 198.667 OFFCURVE",
"166 169.667 OFFCURVE",
"102 127 CURVE SMOOTH",
"64.667 102.333 OFFCURVE",
"46 75.333 OFFCURVE",
"46 46 CURVE SMOOTH",
"46 16.667 OFFCURVE",
"99.833 2 OFFCURVE",
"207.5 2 CURVE SMOOTH",
"315.167 2 OFFCURVE",
"379.167 5 OFFCURVE",
"399.5 11 CURVE SMOOTH",
"419.833 17 OFFCURVE",
"430 30.667 OFFCURVE",
"430 52 CURVE"
);
}
);
width = 1155;
}
);
note = uni0078;
unicode = 0078;
},
{
color = 10;
glyphname = y;
layers = (
{
layerId = "92A672BF-229C-4BEC-8D25-4DDBB2A38145";
paths = (
{
closed = 1;
nodes = (
"89 850.332 OFFCURVE",
"182.615 738.088 OFFCURVE",
"202 697.5 CURVE SMOOTH",
"221.511 656.648 OFFCURVE",
"269.598 541.049 OFFCURVE",
"311 451 CURVE SMOOTH",
"436.333 181.667 OFFCURVE",
"499 31.333 OFFCURVE",
"499 0 CURVE SMOOTH",
"499 -128 OFFCURVE",
"405.667 -302 OFFCURVE",
"323 -302 CURVE",
"206 -287 LINE",
"162 -287 OFFCURVE",
"140 -312 OFFCURVE",
"140 -362 CURVE SMOOTH",
"140 -395.333 OFFCURVE",
"192.667 -438 OFFCURVE",
"266 -438 CURVE SMOOTH",
"363.333 -438 OFFCURVE",
"462 -349.333 OFFCURVE",
"562 -172 CURVE SMOOTH",
"616.667 -76 OFFCURVE",
"682 75.667 OFFCURVE",
"758 283 CURVE SMOOTH",
"789.075 366.901 OFFCURVE",
"902.822 693.926 OFFCURVE",
"933.5 759 CURVE SMOOTH",
"952.654 799.629 OFFCURVE",
"1042 888.84 OFFCURVE",
"1042 915 CURVE SMOOTH",
"1042 942.333 OFFCURVE",
"1001.667 956 OFFCURVE",
"921 956 CURVE SMOOTH",
"857 956 LINE SMOOTH",
"778.333 956 OFFCURVE",
"739 946.667 OFFCURVE",
"739 928 CURVE SMOOTH",
"739 918 OFFCURVE",
"750.167 900.667 OFFCURVE",
"772.5 876 CURVE SMOOTH",
"794.833 851.333 OFFCURVE",
"806 824.167 OFFCURVE",
"806 794.5 CURVE SMOOTH",
"806 764.833 OFFCURVE",
"789.333 697.5 OFFCURVE",
"756 592.5 CURVE SMOOTH",
"722.667 487.5 OFFCURVE",
"671.333 371 OFFCURVE",
"602 243 CURVE",
"588 243 OFFCURVE",
"571 268 OFFCURVE",
"551 318 CURVE SMOOTH",
"433 615.333 OFFCURVE",
"374 786.333 OFFCURVE",
"374 831 CURVE SMOOTH",
"374 839.667 OFFCURVE",
"378.667 852.667 OFFCURVE",
"388 870 CURVE SMOOTH",
"397.333 887.333 OFFCURVE",
"402 899.333 OFFCURVE",
"402 906 CURVE SMOOTH",
"402 929.333 OFFCURVE",
"372.667 941 OFFCURVE",
"314 941 CURVE SMOOTH",
"164 941 OFFCURVE",
"89 920 OFFCURVE",
"89 878 CURVE SMOOTH"
);
}
);
width = 1104;
},
{
layerId = "5CBF0BAD-1756-4F16-9711-93DC239D102B";
paths = (
{
closed = 1;
nodes = (
"941 966 LINE SMOOTH",
"853 966 OFFCURVE",
"801.333 958.833 OFFCURVE",
"786 944.5 CURVE SMOOTH",
"770.667 930.167 OFFCURVE",
"763 915.5 OFFCURVE",
"763 900.5 CURVE SMOOTH",
"763 869.452 OFFCURVE",
"796 829.298 OFFCURVE",
"796 794 CURVE SMOOTH",
"796 718.667 OFFCURVE",
"786.333 653.333 OFFCURVE",
"767 598 CURVE SMOOTH",
"700.333 406.667 OFFCURVE",
"656.333 311 OFFCURVE",
"635 311 CURVE SMOOTH",
"629 311 OFFCURVE",
"614 334 OFFCURVE",
"590 380 CURVE SMOOTH",
"566 426 OFFCURVE",
"537.667 501.667 OFFCURVE",
"505 607 CURVE SMOOTH",
"472.333 712.333 OFFCURVE",
"456 774.167 OFFCURVE",
"456 792.5 CURVE SMOOTH",
"456 810.833 OFFCURVE",
"465 845 OFFCURVE",
"483 895 CURVE",
"483 927.667 OFFCURVE",
"471.5 947.5 OFFCURVE",
"448.5 954.5 CURVE SMOOTH",
"425.5 961.5 OFFCURVE",
"384 965 OFFCURVE",
"324 965 CURVE SMOOTH",
"138 965 OFFCURVE",
"45 948.333 OFFCURVE",
"45 915 CURVE SMOOTH",
"45 881.667 OFFCURVE",
"64.833 843 OFFCURVE",
"104.5 799 CURVE SMOOTH",
"144.167 755 OFFCURVE",
"169.333 722.333 OFFCURVE",
"180 701 CURVE SMOOTH",
"190.667 679.667 OFFCURVE",
"277.667 483 OFFCURVE",
"441 111 CURVE SMOOTH",
"488.557 2.299 OFFCURVE",
"493.453 -92.216 OFFCURVE",
"417 -174.5 CURVE SMOOTH",
"377.667 -216.833 OFFCURVE",
"327 -238 OFFCURVE",
"265 -238 CURVE SMOOTH",
"189 -238 OFFCURVE",
"139 -283.667 OFFCURVE",
"139 -345 CURVE SMOOTH",
"139 -406.333 OFFCURVE",
"227.333 -452 OFFCURVE",
"306 -452 CURVE SMOOTH",
"410 -452 OFFCURVE",
"492.667 -402.667 OFFCURVE",
"554 -304 CURVE SMOOTH",
"654.453 -139.996 OFFCURVE",
"915.052 557.162 OFFCURVE",
"988.5 710.5 CURVE SMOOTH",
"1017.146 770.306 OFFCURVE",
"1108 865.188 OFFCURVE",
"1108 895 CURVE SMOOTH",
"1108 942.333 OFFCURVE",
"1062.667 966 OFFCURVE",
"972 966 CURVE SMOOTH"
);
}
);
width = 1152;
}
);
note = uni0079;
unicode = 0079;
},
{
color = 10;
glyphname = z;
layers = (
{
layerId = "92A672BF-229C-4BEC-8D25-4DDBB2A38145";
paths = (
{
closed = 1;
nodes = (
"275 3 LINE",
"303 4 LINE",
"359 5 LINE",
"443 5 LINE",
"461.667 4.333 OFFCURVE",
"480.333 4 OFFCURVE",
"499 4 CURVE SMOOTH",
"693 -1 LINE SMOOTH",
"711.667 -1 OFFCURVE",
"730 -1.333 OFFCURVE",
"748 -2 CURVE SMOOTH",
"775 -3 LINE",
"802 -3 LINE SMOOTH",
"841.333 -3 OFFCURVE",
"866.333 10 OFFCURVE",
"877 36 CURVE SMOOTH",
"892.333 74 OFFCURVE",
"900 125 OFFCURVE",
"900 189 CURVE SMOOTH",
"900 215 LINE SMOOTH",
"900 250.333 OFFCURVE",
"887.333 268 OFFCURVE",
"862 268 CURVE SMOOTH",
"840.165 268 OFFCURVE",
"756.59 139.633 OFFCURVE",
"713.5 117 CURVE SMOOTH",
"662.552 90.239 OFFCURVE",
"343 78.442 OFFCURVE",
"343 104 CURVE SMOOTH",
"343 124 OFFCURVE",
"430.667 256.167 OFFCURVE",
"606 500.5 CURVE SMOOTH",
"781.333 744.833 OFFCURVE",
"869 882 OFFCURVE",
"869 912 CURVE SMOOTH",
"869 938 OFFCURVE",
"848 951 OFFCURVE",
"806 951 CURVE SMOOTH",
"764 951 OFFCURVE",
"715 950 OFFCURVE",
"659 948 CURVE",
"547 948 LINE",
"434 950 LINE SMOOTH",
"415.333 950 OFFCURVE",
"396.667 950.333 OFFCURVE",
"378 951 CURVE SMOOTH",
"350 952 LINE",
"212 955 LINE",
"186 957 LINE",
"160 957 OFFCURVE",
"142 948.667 OFFCURVE",
"132 932 CURVE SMOOTH",
"115.333 904 OFFCURVE",
"107 858 OFFCURVE",
"107 794 CURVE SMOOTH",
"107 730 OFFCURVE",
"119.333 698 OFFCURVE",
"144 698 CURVE SMOOTH",
"169.727 698 OFFCURVE",
"248.082 820.552 OFFCURVE",
"291 841.5 CURVE SMOOTH",
"343.056 866.908 OFFCURVE",
"623 872.755 OFFCURVE",
"623 838 CURVE SMOOTH",
"623 621.366 OFFCURVE",
"97 284.432 OFFCURVE",
"97 43 CURVE",
"184.667 207.333 OFFCURVE",
"97 70.333 OFFCURVE",
"97 43 CURVE SMOOTH",
"97 15.667 OFFCURVE",
"128.333 2 OFFCURVE",
"191 2 CURVE SMOOTH"
);
}
);
width = 983;
},
{
layerId = "5CBF0BAD-1756-4F16-9711-93DC239D102B";
paths = (
{
closed = 1;
nodes = (
"258.667 963 OFFCURVE",
"241 964 OFFCURVE",
"207 966 CURVE SMOOTH",
"182 967 LINE",
"60.103 967 OFFCURVE",
"42.248 682 OFFCURVE",
"139 682 CURVE SMOOTH",
"194.948 682 OFFCURVE",
"263.409 780.326 OFFCURVE",
"332 807 CURVE",
"261.833 768.667 OFFCURVE",
"296 793 OFFCURVE",
"332 807 CURVE SMOOTH",
"368 821 OFFCURVE",
"444.667 821.667 OFFCURVE",
"562 809 CURVE",
"562 739.319 OFFCURVE",
"196.666 299.617 OFFCURVE",
"126 191 CURVE",
"243.667 358.833 OFFCURVE",
"162 246.333 OFFCURVE",
"126 191 CURVE SMOOTH",
"90 135.667 OFFCURVE",
"72 88.667 OFFCURVE",
"72 50 CURVE SMOOTH",
"72 16 OFFCURVE",
"102 -1 OFFCURVE",
"162 -1 CURVE SMOOTH",
"797 -1 LINE SMOOTH",
"845 -1 OFFCURVE",
"875.667 6.667 OFFCURVE",
"889 22 CURVE SMOOTH",
"911 47.333 OFFCURVE",
"922 115.667 OFFCURVE",
"922 227 CURVE SMOOTH",
"922 252 LINE SMOOTH",
"922 286.667 OFFCURVE",
"907.667 304 OFFCURVE",
"879 304 CURVE SMOOTH",
"835.991 304 OFFCURVE",
"730.737 182.831 OFFCURVE",
"666.5 158 CURVE SMOOTH",
"626.833 142.667 OFFCURVE",
"574.333 135 OFFCURVE",
"509 135 CURVE SMOOTH",
"443.667 135 OFFCURVE",
"411 141.333 OFFCURVE",
"411 154 CURVE SMOOTH",
"411 166.667 OFFCURVE",
"475.333 260.5 OFFCURVE",
"604 435.5 CURVE",
"411 209.289 OFFCURVE",
"801.65 708.344 OFFCURVE",
"895 916 CURVE",
"895 942.667 OFFCURVE",
"876.333 958 OFFCURVE",
"839 962 CURVE SMOOTH",
"832.333 962.667 OFFCURVE",
"740.333 963 OFFCURVE",
"563 963 CURVE SMOOTH",
"260 963 LINE SMOOTH"
);
}
);
width = 996;
}
);
note = uni007A;
unicode = 007A;
},
{
color = 11;
glyphname = zero;
layers = (
{
layerId = "92A672BF-229C-4BEC-8D25-4DDBB2A38145";
paths = (
{
closed = 1;
nodes = (
"910 -19 OFFCURVE",
"1087 289 OFFCURVE",
"1087 644 CURVE SMOOTH",
"1087 999 OFFCURVE",
"923 1277 OFFCURVE",
"580 1277 CURVE SMOOTH",
"282 1277 OFFCURVE",
"97 972 OFFCURVE",
"97 636 CURVE SMOOTH",
"97 233 OFFCURVE",
"279 -19 OFFCURVE",
"599 -19 CURVE SMOOTH"
);
},
{
closed = 1;
nodes = (
"416.333 75 OFFCURVE",
"299 287 OFFCURVE",
"299 583 CURVE SMOOTH",
"299 975 OFFCURVE",
"392 1184 OFFCURVE",
"590 1184 CURVE SMOOTH",
"770 1184 OFFCURVE",
"870 970 OFFCURVE",
"870 582 CURVE SMOOTH",
"870 340 OFFCURVE",
"792 75 OFFCURVE",
"587 75 CURVE SMOOTH"
);
}
);
width = 1204;
},
{
layerId = "5CBF0BAD-1756-4F16-9711-93DC239D102B";
paths = (
{
closed = 1;
nodes = (
"896 -33 OFFCURVE",
"1105 259 OFFCURVE",
"1105 678 CURVE SMOOTH",
"1105 1055 OFFCURVE",
"930 1347 OFFCURVE",
"573 1347 CURVE SMOOTH",
"227 1347 OFFCURVE",
"87 990 OFFCURVE",
"87 617 CURVE SMOOTH",
"87 231 OFFCURVE",
"288 -33 OFFCURVE",
"608 -33 CURVE SMOOTH"
);
},
{
closed = 1;
nodes = (
"424 112 OFFCURVE",
"357 396 OFFCURVE",
"357 629 CURVE SMOOTH",
"357 1005 OFFCURVE",
"420 1206 OFFCURVE",
"565 1206 CURVE SMOOTH",
"748 1206 OFFCURVE",
"797 936 OFFCURVE",
"797 687 CURVE SMOOTH",
"797 305 OFFCURVE",
"736 110 OFFCURVE",
"588 110 CURVE SMOOTH"
);
}
);
width = 1204;
}
);
note = uni0030;
unicode = 0030;
},
{
color = 11;
glyphname = one;
layers = (
{
layerId = "92A672BF-229C-4BEC-8D25-4DDBB2A38145";
paths = (
{
closed = 1;
nodes = (
"693 -1 OFFCURVE",
"723 1 OFFCURVE",
"723 44 CURVE SMOOTH",
"723 84 OFFCURVE",
"625 136 OFFCURVE",
"575.5 211.5 CURVE SMOOTH",
"556 242 OFFCURVE",
"559 379.333 OFFCURVE",
"559 608 CURVE SMOOTH",
"562 835 OFFCURVE",
"585 1081 OFFCURVE",
"583 1151 CURVE SMOOTH",
"581 1230 OFFCURVE",
"562.333 1266 OFFCURVE",
"521 1266 CURVE SMOOTH",
"419 1266 OFFCURVE",
"145 1157 OFFCURVE",
"145 1104 CURVE SMOOTH",
"145 1081 OFFCURVE",
"179 1070 OFFCURVE",
"247 1070 CURVE SMOOTH",
"303 1070 OFFCURVE",
"331 1054 OFFCURVE",
"344 981.5 CURVE SMOOTH",
"350.667 945.167 OFFCURVE",
"354 819.833 OFFCURVE",
"354 605.5 CURVE SMOOTH",
"354 391.167 OFFCURVE",
"350 261 OFFCURVE",
"273 150 CURVE SMOOTH",
"236 97 OFFCURVE",
"176 79 OFFCURVE",
"176 45 CURVE SMOOTH",
"176 15 OFFCURVE",
"264.333 0 OFFCURVE",
"441 0 CURVE SMOOTH"
);
}
);
width = 854;
},
{
layerId = "5CBF0BAD-1756-4F16-9711-93DC239D102B";
paths = (
{
closed = 1;
nodes = (
"656 0 OFFCURVE",
"799 -14 OFFCURVE",
"799 57 CURVE SMOOTH",
"799 158 OFFCURVE",
"670 155 OFFCURVE",
"637 260 CURVE SMOOTH",
"629.667 283.333 OFFCURVE",
"626 418 OFFCURVE",
"626 664 CURVE SMOOTH",
"626 874 OFFCURVE",
"626 817 OFFCURVE",
"633 1137 CURVE SMOOTH",
"633 1278 OFFCURVE",
"648 1343 OFFCURVE",
"563 1343 CURVE SMOOTH",
"493 1343 OFFCURVE",
"375 1302.667 OFFCURVE",
"209 1222 CURVE SMOOTH",
"160.333 1198.667 OFFCURVE",
"136 1170.333 OFFCURVE",
"136 1137 CURVE SMOOTH",
"136 1120 OFFCURVE",
"175 1107 OFFCURVE",
"218 1093 CURVE SMOOTH",
"265 1077 OFFCURVE",
"317 1060 OFFCURVE",
"327.5 1036 CURVE SMOOTH",
"370.147 940.788 OFFCURVE",
"365.217 351.706 OFFCURVE",
"337 260 CURVE SMOOTH",
"325.116 220.782 OFFCURVE",
"170 83.703 OFFCURVE",
"170 65 CURVE SMOOTH",
"170 0 OFFCURVE",
"184 -1 OFFCURVE",
"481 0 CURVE SMOOTH"
);
}
);
width = 923;
}
);
note = uni0031;
unicode = 0031;
},
{
color = 11;
glyphname = two;
layers = (
{
layerId = "92A672BF-229C-4BEC-8D25-4DDBB2A38145";
paths = (
{
closed = 1;
nodes = (
"952 -9 OFFCURVE",
"985 65 OFFCURVE",
"985 217 CURVE SMOOTH",
"985 259 OFFCURVE",
"972.667 280 OFFCURVE",
"948 280 CURVE SMOOTH",
"941.699 280 OFFCURVE",
"818.374 178.81 OFFCURVE",
"786.5 167.5 CURVE SMOOTH",
"754 156 OFFCURVE",
"636 149 OFFCURVE",
"532 151 CURVE SMOOTH",
"438 153 OFFCURVE",
"356 163 OFFCURVE",
"356 184 CURVE SMOOTH",
"356 216 OFFCURVE",
"421 286.5 OFFCURVE",
"551 395.5 CURVE SMOOTH",
"770 579 OFFCURVE",
"931 732 OFFCURVE",
"931 939.5 CURVE SMOOTH",
"931 1154 OFFCURVE",
"804 1265 OFFCURVE",
"562 1265 CURVE SMOOTH",
"347 1265 OFFCURVE",
"142 1152 OFFCURVE",
"142 1004 CURVE SMOOTH",
"142 936.667 OFFCURVE",
"159 903 OFFCURVE",
"193 903 CURVE SMOOTH",
"306 903 OFFCURVE",
"327 1159 OFFCURVE",
"514 1159 CURVE SMOOTH",
"634 1159 OFFCURVE",
"727 1057 OFFCURVE",
"727 933 CURVE SMOOTH",
"727 738 OFFCURVE",
"597 597 OFFCURVE",
"412 419.5 CURVE SMOOTH",
"188 205 OFFCURVE",
"138 152 OFFCURVE",
"138 65 CURVE SMOOTH",
"138 39 OFFCURVE",
"159 23 OFFCURVE",
"197 11 CURVE SMOOTH",
"255 -7 OFFCURVE",
"532 21 OFFCURVE",
"836 -1 CURVE SMOOTH"
);
}
);
width = 1104;
},
{
layerId = "5CBF0BAD-1756-4F16-9711-93DC239D102B";
paths = (
{
closed = 1;
nodes = (
"325 8 OFFCURVE",
"408 3 OFFCURVE",
"756 0 CURVE SMOOTH",
"979 -2 OFFCURVE",
"1020 22 OFFCURVE",
"1020 250 CURVE SMOOTH",
"1020 308.667 OFFCURVE",
"1003 338 OFFCURVE",
"969 338 CURVE SMOOTH",
"934 338 OFFCURVE",
"803 237 OFFCURVE",
"747 225 CURVE SMOOTH",
"706 216 OFFCURVE",
"644 212 OFFCURVE",
"560 212 CURVE SMOOTH",
"476 212 OFFCURVE",
"434 220.333 OFFCURVE",
"434 237 CURVE SMOOTH",
"434 253.667 OFFCURVE",
"487 324 OFFCURVE",
"616 432.5 CURVE SMOOTH",
"756 550 OFFCURVE",
"976 661 OFFCURVE",
"976 969 CURVE SMOOTH",
"976 1198 OFFCURVE",
"825 1345 OFFCURVE",
"600 1345 CURVE SMOOTH",
"336 1345 OFFCURVE",
"127 1211 OFFCURVE",
"127 1045 CURVE SMOOTH",
"127 990.333 OFFCURVE",
"155 937 OFFCURVE",
"207 937 CURVE SMOOTH",
"290.105 937 OFFCURVE",
"383.317 1167 OFFCURVE",
"493 1167 CURVE SMOOTH",
"618.333 1167 OFFCURVE",
"685 1082 OFFCURVE",
"685 974 CURVE SMOOTH",
"685 777 OFFCURVE",
"547 623 OFFCURVE",
"359 422.5 CURVE SMOOTH",
"218 271 OFFCURVE",
"131 201 OFFCURVE",
"128 107 CURVE SMOOTH",
"127 47 OFFCURVE",
"164 2 OFFCURVE",
"203 2 CURVE"
);
}
);
width = 1123;
}
);
note = uni0032;
unicode = 0032;
},
{
color = 11;
glyphname = three;
layers = (
{
layerId = "92A672BF-229C-4BEC-8D25-4DDBB2A38145";
paths = (
{
closed = 1;
nodes = (
"725 -96 OFFCURVE",
"954 62 OFFCURVE",
"954 313 CURVE SMOOTH",
"954 556 OFFCURVE",
"676 638 OFFCURVE",
"676 668 CURVE SMOOTH",
"676 689 OFFCURVE",
"876 820 OFFCURVE",
"876 991 CURVE SMOOTH",
"876 1177 OFFCURVE",
"761.333 1270 OFFCURVE",
"532 1270 CURVE SMOOTH",
"312 1270 OFFCURVE",
"153 1178.833 OFFCURVE",
"153 1067.5 CURVE SMOOTH",
"153 1011.833 OFFCURVE",
"173.667 984 OFFCURVE",
"215 984 CURVE SMOOTH",
"309 984 OFFCURVE",
"367 1153 OFFCURVE",
"518 1153 CURVE SMOOTH",
"561.333 1153 OFFCURVE",
"680 1096 OFFCURVE",
"680 983 CURVE SMOOTH",
"680 859 OFFCURVE",
"614 759.333 OFFCURVE",
"482 694 CURVE SMOOTH",
"420.667 663.333 OFFCURVE",
"389.667 639.333 OFFCURVE",
"389 622 CURVE SMOOTH",
"389 604.667 OFFCURVE",
"424 587.333 OFFCURVE",
"494 570 CURVE SMOOTH",
"644 530 OFFCURVE",
"735 451 OFFCURVE",
"741 293 CURVE SMOOTH",
"745 146 OFFCURVE",
"651 23 OFFCURVE",
"500 16 CURVE SMOOTH",
"361 11 OFFCURVE",
"293 163 OFFCURVE",
"185 163 CURVE SMOOTH",
"137 163 OFFCURVE",
"113 138.5 OFFCURVE",
"113 89.5 CURVE SMOOTH",
"113 -21 OFFCURVE",
"251 -96 OFFCURVE",
"471 -96 CURVE SMOOTH"
);
}
);
width = 1081;
},
{
layerId = "5CBF0BAD-1756-4F16-9711-93DC239D102B";
paths = (
{
closed = 1;
nodes = (
"785 -52 OFFCURVE",
"996 134.333 OFFCURVE",
"996 385 CURVE SMOOTH",
"996 640 OFFCURVE",
"731 705 OFFCURVE",
"731 735 CURVE SMOOTH",
"731 749 OFFCURVE",
"915 921 OFFCURVE",
"915 1080.5 CURVE SMOOTH",
"915 1276 OFFCURVE",
"771 1348 OFFCURVE",
"550 1348 CURVE SMOOTH",
"367 1350 OFFCURVE",
"150 1278 OFFCURVE",
"144 1117 CURVE SMOOTH",
"142 1071 OFFCURVE",
"166 1036 OFFCURVE",
"214 1036 CURVE SMOOTH",
"299 1036 OFFCURVE",
"382 1165 OFFCURVE",
"490 1165 CURVE SMOOTH",
"590 1165 OFFCURVE",
"640 1114 OFFCURVE",
"640 1012 CURVE SMOOTH",
"640 910 OFFCURVE",
"579 829 OFFCURVE",
"456 768 CURVE SMOOTH",
"399 740 OFFCURVE",
"370 701 OFFCURVE",
"370 684 CURVE SMOOTH",
"370 647 OFFCURVE",
"406 628 OFFCURVE",
"431 616 CURVE SMOOTH",
"641 520 OFFCURVE",
"716 514 OFFCURVE",
"716 360 CURVE SMOOTH",
"716 234 OFFCURVE",
"632 119 OFFCURVE",
"501.5 119 CURVE SMOOTH",
"401.246 119 OFFCURVE",
"264.628 249 OFFCURVE",
"204 249 CURVE SMOOTH",
"172.667 249 OFFCURVE",
"116 220 OFFCURVE",
"116 162 CURVE SMOOTH",
"116 15 OFFCURVE",
"309 -52 OFFCURVE",
"481 -52 CURVE SMOOTH"
);
}
);
width = 1103;
}
);
note = uni0033;
unicode = 0033;
},
{
color = 11;
glyphname = four;
layers = (
{
layerId = "92A672BF-229C-4BEC-8D25-4DDBB2A38145";
paths = (
{
closed = 1;
nodes = (
"791.667 -77 OFFCURVE",
"895 -30 OFFCURVE",
"895 26 CURVE SMOOTH",
"895 74 OFFCURVE",
"856 96 OFFCURVE",
"856 140 CURVE SMOOTH",
"856 190 OFFCURVE",
"871 238.333 OFFCURVE",
"901 285 CURVE SMOOTH",
"923 320 OFFCURVE",
"984 337 OFFCURVE",
"984 375 CURVE SMOOTH",
"984 422 OFFCURVE",
"861 460 OFFCURVE",
"840 525 CURVE SMOOTH",
"821.333 583 OFFCURVE",
"812 705.333 OFFCURVE",
"812 892 CURVE SMOOTH",
"812 1106 OFFCURVE",
"831 1252 OFFCURVE",
"754 1252 CURVE SMOOTH",
"706.667 1252 OFFCURVE",
"648.667 1206.667 OFFCURVE",
"580 1116 CURVE SMOOTH",
"359 824 OFFCURVE",
"218 632 OFFCURVE",
"143 512 CURVE SMOOTH",
"96 436 OFFCURVE",
"75 388 OFFCURVE",
"75 361 CURVE SMOOTH",
"75 301 OFFCURVE",
"192 298 OFFCURVE",
"312 296 CURVE SMOOTH",
"489 294 OFFCURVE",
"587 294 OFFCURVE",
"587 160 CURVE SMOOTH",
"587 100.578 OFFCURVE",
"521 19.059 OFFCURVE",
"521 -14 CURVE SMOOTH",
"521 -51 OFFCURVE",
"578 -77 OFFCURVE",
"669 -77 CURVE SMOOTH"
);
},
{
closed = 1;
nodes = (
"380 410 OFFCURVE",
"218 409 OFFCURVE",
"202 421 CURVE SMOOTH",
"183 436 OFFCURVE",
"606 1011 OFFCURVE",
"622 1011 CURVE SMOOTH",
"642 1011 OFFCURVE",
"634 892 OFFCURVE",
"604 489 CURVE SMOOTH",
"601 444 OFFCURVE",
"582 419 OFFCURVE",
"449 413 CURVE SMOOTH"
);
}
);
width = 1127;
},
{
layerId = "5CBF0BAD-1756-4F16-9711-93DC239D102B";
paths = (
{
closed = 1;
nodes = (
"830 -43 OFFCURVE",
"956 -25 OFFCURVE",
"956 38 CURVE SMOOTH",
"958 89 OFFCURVE",
"910 164 OFFCURVE",
"910 203 CURVE SMOOTH",
"910 258 OFFCURVE",
"924 305 OFFCURVE",
"951 342 CURVE SMOOTH",
"981 384 OFFCURVE",
"1024 361 OFFCURVE",
"1024 410 CURVE SMOOTH",
"1024 512 OFFCURVE",
"901 518 OFFCURVE",
"883 593 CURVE SMOOTH",
"873.667 628.333 OFFCURVE",
"869 740 OFFCURVE",
"869 928 CURVE SMOOTH",
"869 1163 OFFCURVE",
"888 1324 OFFCURVE",
"798 1324 CURVE SMOOTH",
"722 1324 OFFCURVE",
"654 1287 OFFCURVE",
"595 1213 CURVE SMOOTH",
"499 1094 OFFCURVE",
"345 881 OFFCURVE",
"133 575 CURVE SMOOTH",
"88 510 OFFCURVE",
"66 458 OFFCURVE",
"66 419 CURVE SMOOTH",
"66 326 OFFCURVE",
"188 317 OFFCURVE",
"322 317 CURVE SMOOTH",
"456 317 OFFCURVE",
"559 315 OFFCURVE",
"559 212 CURVE SMOOTH",
"559 136 OFFCURVE",
"508 64 OFFCURVE",
"511 16 CURVE SMOOTH",
"513 -38 OFFCURVE",
"568 -43 OFFCURVE",
"748 -43 CURVE SMOOTH"
);
},
{
closed = 1;
nodes = (
"355 480 OFFCURVE",
"253 481 OFFCURVE",
"253 491 CURVE SMOOTH",
"253 522 OFFCURVE",
"580 1001 OFFCURVE",
"597 1009 CURVE SMOOTH",
"611 1015 OFFCURVE",
"612 983 OFFCURVE",
"607 646 CURVE SMOOTH",
"605 512 OFFCURVE",
"583 482 OFFCURVE",
"464 481 CURVE SMOOTH"
);
}
);
width = 1141;
}
);
note = uni0034;
unicode = 0034;
},
{
color = 11;
glyphname = five;
layers = (
{
layerId = "92A672BF-229C-4BEC-8D25-4DDBB2A38145";
paths = (
{
closed = 1;
nodes = (
"737 -86 OFFCURVE",
"940 90 OFFCURVE",
"940 367 CURVE SMOOTH",
"940 600.333 OFFCURVE",
"738 769 OFFCURVE",
"450 769 CURVE SMOOTH",
"347 769 OFFCURVE",
"308 780 OFFCURVE",
"308 862 CURVE SMOOTH",
"308 1020 OFFCURVE",
"332 1096 OFFCURVE",
"468 1096 CURVE SMOOTH",
"731 1091 LINE SMOOTH",
"858 1091 OFFCURVE",
"914 1096 OFFCURVE",
"914 1214 CURVE SMOOTH",
"914 1255.333 OFFCURVE",
"896.667 1276 OFFCURVE",
"862 1276 CURVE SMOOTH",
"693 1247 OFFCURVE",
"658 1251 OFFCURVE",
"461 1251 CURVE SMOOTH",
"284 1251 OFFCURVE",
"218 1199 OFFCURVE",
"208 1012 CURVE SMOOTH",
"203 922 OFFCURVE",
"218 642 OFFCURVE",
"318 642 CURVE SMOOTH",
"433 642 LINE SMOOTH",
"603 642 OFFCURVE",
"735 541.833 OFFCURVE",
"735 350.5 CURVE SMOOTH",
"735 191 OFFCURVE",
"700 64 OFFCURVE",
"478 66 CURVE SMOOTH",
"356 67 OFFCURVE",
"272 167 OFFCURVE",
"200 167 CURVE SMOOTH",
"147 167 OFFCURVE",
"118 139 OFFCURVE",
"114 102 CURVE SMOOTH",
"101 -8 OFFCURVE",
"241 -86 OFFCURVE",
"465 -86 CURVE SMOOTH"
);
}
);
width = 1081;
},
{
layerId = "5CBF0BAD-1756-4F16-9711-93DC239D102B";
paths = (
{
closed = 1;
nodes = (
"750 -50 OFFCURVE",
"983 122 OFFCURVE",
"983 399 CURVE SMOOTH",
"983 720 OFFCURVE",
"776 858 OFFCURVE",
"433 841 CURVE SMOOTH",
"390.333 841 OFFCURVE",
"357 891 OFFCURVE",
"357 943 CURVE SMOOTH",
"357 1096.333 OFFCURVE",
"402.333 1125 OFFCURVE",
"533 1125 CURVE SMOOTH",
"753 1118 LINE SMOOTH",
"873 1118 OFFCURVE",
"933 1172 OFFCURVE",
"933 1280 CURVE SMOOTH",
"933 1330 OFFCURVE",
"906 1354 OFFCURVE",
"853 1355 CURVE SMOOTH",
"827 1356 OFFCURVE",
"411 1329 OFFCURVE",
"352 1329 CURVE SMOOTH",
"202 1329 OFFCURVE",
"176 1112 OFFCURVE",
"176 850 CURVE SMOOTH",
"176 724.667 OFFCURVE",
"210.333 662 OFFCURVE",
"279 662 CURVE SMOOTH",
"377 664 LINE SMOOTH",
"595.667 664 OFFCURVE",
"707 558 OFFCURVE",
"707 366 CURVE SMOOTH",
"707 228.667 OFFCURVE",
"620.333 116 OFFCURVE",
"471 116 CURVE SMOOTH",
"381.535 116 OFFCURVE",
"256.784 239 OFFCURVE",
"193.5 239 CURVE SMOOTH",
"131.5 239 OFFCURVE",
"114 202.667 OFFCURVE",
"114 140 CURVE SMOOTH",
"114 30.667 OFFCURVE",
"293.833 -50 OFFCURVE",
"454.5 -50 CURVE SMOOTH"
);
}
);
width = 1094;
}
);
note = uni0035;
unicode = 0035;
},
{
color = 11;
glyphname = six;
layers = (
{
layerId = "92A672BF-229C-4BEC-8D25-4DDBB2A38145";
paths = (
{
closed = 1;
nodes = (
"828 -23 OFFCURVE",
"1018 153 OFFCURVE",
"1018 406 CURVE SMOOTH",
"1018 631 OFFCURVE",
"854 818 OFFCURVE",
"636.5 818 CURVE SMOOTH",
"589 818 OFFCURVE",
"554 806 OFFCURVE",
"469 806 CURVE SMOOTH",
"397.667 806 OFFCURVE",
"362 832.667 OFFCURVE",
"362 886 CURVE SMOOTH",
"362 1034 OFFCURVE",
"540 1193 OFFCURVE",
"699 1193 CURVE SMOOTH",
"825 1186 OFFCURVE",
"930 1173 OFFCURVE",
"930 1254 CURVE SMOOTH",
"930 1304 OFFCURVE",
"867.667 1329 OFFCURVE",
"743 1329 CURVE SMOOTH",
"373 1329 OFFCURVE",
"100 983 OFFCURVE",
"100 588 CURVE SMOOTH",
"100 180 OFFCURVE",
"261 -23 OFFCURVE",
"582 -23 CURVE SMOOTH"
);
},
{
closed = 1;
nodes = (
"409 71 OFFCURVE",
"308 213 OFFCURVE",
"308 449 CURVE SMOOTH",
"308 641 OFFCURVE",
"380 743 OFFCURVE",
"542 743 CURVE SMOOTH",
"726 743 OFFCURVE",
"820 626 OFFCURVE",
"820 417 CURVE SMOOTH",
"820 206 OFFCURVE",
"730 71 OFFCURVE",
"592 71 CURVE SMOOTH"
);
}
);
width = 1144;
},
{
layerId = "5CBF0BAD-1756-4F16-9711-93DC239D102B";
paths = (
{
closed = 1;
nodes = (
"842 -25 OFFCURVE",
"1044 160 OFFCURVE",
"1044 415 CURVE SMOOTH",
"1044 669 OFFCURVE",
"878 842 OFFCURVE",
"643 842 CURVE SMOOTH",
"607 839 OFFCURVE",
"571 837 OFFCURVE",
"535 834 CURVE SMOOTH",
"482 834 OFFCURVE",
"424 853 OFFCURVE",
"427 904 CURVE SMOOTH",
"438 1030 OFFCURVE",
"581 1150 OFFCURVE",
"724 1163 CURVE SMOOTH",
"858 1175 OFFCURVE",
"925 1203.667 OFFCURVE",
"925 1249 CURVE SMOOTH",
"925 1306.333 OFFCURVE",
"880.333 1335 OFFCURVE",
"791 1335 CURVE SMOOTH",
"370 1335 OFFCURVE",
"85 1004 OFFCURVE",
"85 528 CURVE SMOOTH",
"85 235 OFFCURVE",
"266 -25 OFFCURVE",
"554 -25 CURVE SMOOTH"
);
},
{
closed = 1;
nodes = (
"453 115 OFFCURVE",
"369 261 OFFCURVE",
"368 486 CURVE SMOOTH",
"368 644.667 OFFCURVE",
"446.333 713 OFFCURVE",
"565 713 CURVE SMOOTH",
"708 713 OFFCURVE",
"777 578 OFFCURVE",
"777 427 CURVE SMOOTH",
"777 211 OFFCURVE",
"714 115 OFFCURVE",
"572 115 CURVE SMOOTH"
);
}
);
width = 1135;
}
);
note = uni0036;
unicode = 0036;
},
{
color = 11;
glyphname = seven;
layers = (
{
layerId = "92A672BF-229C-4BEC-8D25-4DDBB2A38145";
paths = (
{
closed = 1;
nodes = (
"445 -99 OFFCURVE",
"484 -84 OFFCURVE",
"510 -21 CURVE SMOOTH",
"519.333 0.333 OFFCURVE",
"535.5 59.167 OFFCURVE",
"558.5 155.5 CURVE SMOOTH",
"588 278 OFFCURVE",
"953 1124 OFFCURVE",
"953 1189 CURVE SMOOTH",
"953 1248 OFFCURVE",
"909 1257 OFFCURVE",
"828 1257 CURVE SMOOTH",
"768 1256 OFFCURVE",
"539 1254 OFFCURVE",
"523 1254 CURVE SMOOTH",
"414 1258 OFFCURVE",
"305 1261 OFFCURVE",
"196 1265 CURVE SMOOTH",
"99 1265 OFFCURVE",
"92 1221 OFFCURVE",
"92 1080 CURVE SMOOTH",
"92 1038 OFFCURVE",
"92 980 OFFCURVE",
"118 980 CURVE SMOOTH",
"153 980 OFFCURVE",
"219 1061 OFFCURVE",
"273 1088 CURVE SMOOTH",
"295 1099 OFFCURVE",
"409 1104 OFFCURVE",
"519 1105 CURVE SMOOTH",
"613 1105 OFFCURVE",
"704 1101 OFFCURVE",
"734 1094 CURVE SMOOTH",
"761 1087 OFFCURVE",
"774 1070 OFFCURVE",
"774 1043 CURVE SMOOTH",
"774 1008 OFFCURVE",
"304 38 OFFCURVE",
"304 -43 CURVE SMOOTH",
"304 -80.333 OFFCURVE",
"326.333 -99 OFFCURVE",
"371 -99 CURVE SMOOTH"
);
}
);
width = 1042;
},
{
layerId = "5CBF0BAD-1756-4F16-9711-93DC239D102B";
paths = (
{
closed = 1;
nodes = (
"487.667 -49 OFFCURVE",
"539 -22.333 OFFCURVE",
"561 31 CURVE SMOOTH",
"575 63.667 OFFCURVE",
"590.5 117.667 OFFCURVE",
"607.5 193 CURVE SMOOTH",
"626 276 OFFCURVE",
"997 1179 OFFCURVE",
"997 1265 CURVE SMOOTH",
"997 1292 OFFCURVE",
"985 1321 OFFCURVE",
"955 1321 CURVE SMOOTH",
"878 1322 OFFCURVE",
"624 1312 OFFCURVE",
"604 1314 CURVE SMOOTH",
"356 1315 OFFCURVE",
"342 1328 OFFCURVE",
"246 1328 CURVE SMOOTH",
"96 1328 OFFCURVE",
"91 1268 OFFCURVE",
"91 1084 CURVE SMOOTH",
"91 1013 OFFCURVE",
"101 980 OFFCURVE",
"148 980 CURVE SMOOTH",
"217 980 OFFCURVE",
"278 1079 OFFCURVE",
"343 1101 CURVE SMOOTH",
"395 1118.333 OFFCURVE",
"473.833 1127 OFFCURVE",
"579.5 1127 CURVE SMOOTH",
"642 1127 OFFCURVE",
"686 1122 OFFCURVE",
"711 1111 CURVE SMOOTH",
"729 1103 OFFCURVE",
"738 1093 OFFCURVE",
"738 1080 CURVE SMOOTH",
"738 1033 OFFCURVE",
"285 136 OFFCURVE",
"285 30 CURVE SMOOTH",
"285 -31.333 OFFCURVE",
"319 -49 OFFCURVE",
"407 -49 CURVE SMOOTH"
);
}
);
width = 1077;
}
);
note = uni0037;
unicode = 0037;
},
{
color = 11;
glyphname = eight;
layers = (
{
layerId = "92A672BF-229C-4BEC-8D25-4DDBB2A38145";
paths = (
{
closed = 1;
nodes = (
"808 -24 OFFCURVE",
"996 126 OFFCURVE",
"996 344 CURVE SMOOTH",
"996 544 OFFCURVE",
"746 700 OFFCURVE",
"746 724 CURVE SMOOTH",
"746 749 OFFCURVE",
"950 886 OFFCURVE",
"946 1075 CURVE SMOOTH",
"943 1232 OFFCURVE",
"791 1366 OFFCURVE",
"568 1366 CURVE SMOOTH",
"310 1366 OFFCURVE",
"144 1227 OFFCURVE",
"144 1018 CURVE SMOOTH",
"144 933 OFFCURVE",
"332 732 OFFCURVE",
"332 699 CURVE SMOOTH",
"332 685 OFFCURVE",
"91 510 OFFCURVE",
"91 342 CURVE SMOOTH",
"91 105 OFFCURVE",
"282 -24 OFFCURVE",
"529 -24 CURVE SMOOTH"
);
},
{
closed = 1;
nodes = (
"380 75 OFFCURVE",
"270 191 OFFCURVE",
"270 389 CURVE SMOOTH",
"270 508 OFFCURVE",
"379 662 OFFCURVE",
"485 662 CURVE SMOOTH",
"629 662 OFFCURVE",
"817 475 OFFCURVE",
"817 317 CURVE SMOOTH",
"817 179 OFFCURVE",
"710 75 OFFCURVE",
"549 75 CURVE SMOOTH"
);
},
{
closed = 1;
nodes = (
"503 783 OFFCURVE",
"339 934 OFFCURVE",
"339 1058 CURVE SMOOTH",
"339 1216 OFFCURVE",
"404 1297 OFFCURVE",
"556 1297 CURVE SMOOTH",
"678.667 1297 OFFCURVE",
"781 1200 OFFCURVE",
"781 1056 CURVE SMOOTH",
"779 917 OFFCURVE",
"700 783 OFFCURVE",
"619 783 CURVE SMOOTH"
);
}
);
width = 1134;
},
{
layerId = "5CBF0BAD-1756-4F16-9711-93DC239D102B";
paths = (
{
closed = 1;
nodes = (
"815 -21 OFFCURVE",
"1016 129 OFFCURVE",
"1023 349 CURVE SMOOTH",
"1029 549 OFFCURVE",
"792 712 OFFCURVE",
"792 756 CURVE SMOOTH",
"792 781 OFFCURVE",
"967 806 OFFCURVE",
"967 1057 CURVE SMOOTH",
"967 1233 OFFCURVE",
"789 1369 OFFCURVE",
"581 1369 CURVE SMOOTH",
"327 1369 OFFCURVE",
"136 1234 OFFCURVE",
"136 1024.5 CURVE SMOOTH",
"136 859 OFFCURVE",
"279 809 OFFCURVE",
"279 712 CURVE SMOOTH",
"279 652 OFFCURVE",
"91 538 OFFCURVE",
"91 342 CURVE SMOOTH",
"91 123 OFFCURVE",
"296 -21 OFFCURVE",
"536 -21 CURVE SMOOTH"
);
},
{
closed = 1;
nodes = (
"473.667 118 OFFCURVE",
"340 243 OFFCURVE",
"340 383 CURVE SMOOTH",
"340 520 OFFCURVE",
"405 651 OFFCURVE",
"490 651 CURVE SMOOTH",
"603 651 OFFCURVE",
"784 467 OFFCURVE",
"784 344 CURVE SMOOTH",
"784 203 OFFCURVE",
"716 118 OFFCURVE",
"579 118 CURVE SMOOTH"
);
},
{
closed = 1;
nodes = (
"522 827 OFFCURVE",
"398 971 OFFCURVE",
"398 1085 CURVE SMOOTH",
"398 1198 OFFCURVE",
"460 1263 OFFCURVE",
"567 1263 CURVE SMOOTH",
"682 1263 OFFCURVE",
"751 1182 OFFCURVE",
"753 1027 CURVE SMOOTH",
"753 941 OFFCURVE",
"679 827 OFFCURVE",
"624 827 CURVE SMOOTH"
);
}
);
width = 1129;
}
);
note = uni0038;
unicode = 0038;
},
{
color = 11;
glyphname = nine;
layers = (
{
layerId = "92A672BF-229C-4BEC-8D25-4DDBB2A38145";
paths = (
{
closed = 1;
nodes = (
"759 -60 OFFCURVE",
"1008 283 OFFCURVE",
"1008 690 CURVE SMOOTH",
"1008 1042 OFFCURVE",
"867 1289 OFFCURVE",
"543 1289 CURVE SMOOTH",
"284 1289 OFFCURVE",
"93 1122 OFFCURVE",
"93 858 CURVE SMOOTH",
"93 640 OFFCURVE",
"256 449 OFFCURVE",
"464 449 CURVE SMOOTH",
"598 449 OFFCURVE",
"747 485 OFFCURVE",
"747 375 CURVE SMOOTH",
"747 237 OFFCURVE",
"543 93 OFFCURVE",
"404 93 CURVE SMOOTH",
"354 93 OFFCURVE",
"182 99 OFFCURVE",
"182 23 CURVE SMOOTH",
"182 -37 OFFCURVE",
"243 -60 OFFCURVE",
"378 -60 CURVE SMOOTH"
);
},
{
closed = 1;
nodes = (
"400.333 521 OFFCURVE",
"289 644 OFFCURVE",
"289 828 CURVE SMOOTH",
"289 1078 OFFCURVE",
"370 1193 OFFCURVE",
"547 1194 CURVE SMOOTH",
"702 1194 OFFCURVE",
"799 1040 OFFCURVE",
"800 772 CURVE SMOOTH",
"800 610 OFFCURVE",
"714 521 OFFCURVE",
"535 521 CURVE SMOOTH"
);
}
);
width = 1144;
},
{
layerId = "5CBF0BAD-1756-4F16-9711-93DC239D102B";
paths = (
{
closed = 1;
nodes = (
"761 -15 OFFCURVE",
"1034 341 OFFCURVE",
"1034 768 CURVE SMOOTH",
"1034 1091 OFFCURVE",
"866 1344 OFFCURVE",
"565 1344 CURVE SMOOTH",
"274 1344 OFFCURVE",
"79 1158 OFFCURVE",
"79 888 CURVE SMOOTH",
"79 655 OFFCURVE",
"249 475 OFFCURVE",
"476 475 CURVE SMOOTH",
"642 475 OFFCURVE",
"691 468 OFFCURVE",
"691 404.5 CURVE SMOOTH",
"691 284 OFFCURVE",
"528 175 OFFCURVE",
"381 153 CURVE SMOOTH",
"279 138 OFFCURVE",
"194 130 OFFCURVE",
"194 67 CURVE SMOOTH",
"194 7 OFFCURVE",
"246 -15 OFFCURVE",
"361 -15 CURVE SMOOTH"
);
},
{
closed = 1;
nodes = (
"431.667 605 OFFCURVE",
"345 726.333 OFFCURVE",
"345 901 CURVE SMOOTH",
"345 1093 OFFCURVE",
"412 1204 OFFCURVE",
"525 1204 CURVE SMOOTH",
"666 1204 OFFCURVE",
"751 1069 OFFCURVE",
"751 866 CURVE SMOOTH",
"751 667 OFFCURVE",
"699 606 OFFCURVE",
"541 605 CURVE SMOOTH"
);
}
);
width = 1131;
}
);
note = uni0039;
unicode = 0039;
},
{
glyphname = period;
layers = (
{
layerId = "92A672BF-229C-4BEC-8D25-4DDBB2A38145";
paths = (
{
closed = 1;
nodes = (
"326 -23 OFFCURVE",
"382 30 OFFCURVE",
"382 119 CURVE SMOOTH",
"382 187 OFFCURVE",
"315.667 236 OFFCURVE",
"265 236 CURVE SMOOTH",
"176 236 OFFCURVE",
"119 185 OFFCURVE",
"119 112 CURVE SMOOTH",
"118 34 OFFCURVE",
"168 -23 OFFCURVE",
"253 -23 CURVE SMOOTH"
);
}
);
width = 501;
},
{
layerId = "5CBF0BAD-1756-4F16-9711-93DC239D102B";
paths = (
{
closed = 1;
nodes = (
"384 -27 OFFCURVE",
"460 41 OFFCURVE",
"460 138 CURVE SMOOTH",
"460 223 OFFCURVE",
"391 291 OFFCURVE",
"286 291 CURVE SMOOTH",
"198 291 OFFCURVE",
"122 222 OFFCURVE",
"122 125 CURVE SMOOTH",
"122 40 OFFCURVE",
"190 -26 OFFCURVE",
"297 -27 CURVE SMOOTH"
);
}
);
width = 581;
}
);
note = uni002E;
unicode = 002E;
},
{
glyphname = comma;
layers = (
{
layerId = "92A672BF-229C-4BEC-8D25-4DDBB2A38145";
paths = (
{
closed = 1;
nodes = (
"395 176 OFFCURVE",
"349 238 OFFCURVE",
"266 238 CURVE SMOOTH",
"14 238 OFFCURVE",
"237 99 OFFCURVE",
"237 -63 CURVE SMOOTH",
"237 -112 OFFCURVE",
"117 -249 OFFCURVE",
"117 -261 CURVE SMOOTH",
"117 -282.333 OFFCURVE",
"127.667 -293 OFFCURVE",
"149 -293 CURVE SMOOTH",
"263 -293 OFFCURVE",
"395 -82 OFFCURVE",
"395 55 CURVE SMOOTH"
);
}
);
width = 511;
},
{
layerId = "5CBF0BAD-1756-4F16-9711-93DC239D102B";
paths = (
{
closed = 1;
nodes = (
"31 283 OFFCURVE",
"239 124 OFFCURVE",
"239 -58 CURVE SMOOTH",
"239 -188 OFFCURVE",
"128 -254 OFFCURVE",
"128 -284 CURVE SMOOTH",
"128 -311 OFFCURVE",
"145.333 -331 OFFCURVE",
"180 -331 CURVE SMOOTH",
"307 -331 OFFCURVE",
"465 -73 OFFCURVE",
"465 70 CURVE SMOOTH",
"465 219 OFFCURVE",
"427 282 OFFCURVE",
"308 282 CURVE SMOOTH"
);
}
);
width = 591;
}
);
note = uni002C;
unicode = 002C;
},
{
glyphname = colon;
layers = (
{
layerId = "92A672BF-229C-4BEC-8D25-4DDBB2A38145";
paths = (
{
closed = 1;
nodes = (
"346 678 OFFCURVE",
"402 722 OFFCURVE",
"402 805 CURVE SMOOTH",
"402 880 OFFCURVE",
"382 936 OFFCURVE",
"264 936 CURVE SMOOTH",
"194 936 OFFCURVE",
"138 877 OFFCURVE",
"138 817 CURVE SMOOTH",
"140 738 OFFCURVE",
"186 680 OFFCURVE",
"241 680 CURVE SMOOTH"
);
},
{
closed = 1;
nodes = (
"335 -2 OFFCURVE",
"399 8 OFFCURVE",
"399 120 CURVE SMOOTH",
"399 226 OFFCURVE",
"375 254 OFFCURVE",
"263 254 CURVE SMOOTH",
"174 254 OFFCURVE",
"136 197 OFFCURVE",
"137 95 CURVE SMOOTH",
"137 55 OFFCURVE",
"193.667 -2 OFFCURVE",
"235 -2 CURVE SMOOTH"
);
}
);
width = 533;
},
{
layerId = "5CBF0BAD-1756-4F16-9711-93DC239D102B";
paths = (
{
closed = 1;
nodes = (
"424 670 OFFCURVE",
"493 737 OFFCURVE",
"493 838 CURVE SMOOTH",
"493 914 OFFCURVE",
"424.667 985 OFFCURVE",
"338 985 CURVE SMOOTH",
"232 982 OFFCURVE",
"160 924 OFFCURVE",
"160 821 CURVE SMOOTH",
"160 737 OFFCURVE",
"227 670 OFFCURVE",
"332 670 CURVE SMOOTH"
);
},
{
closed = 1;
nodes = (
"419 -1 OFFCURVE",
"493 62 OFFCURVE",
"493 144 CURVE SMOOTH",
"493 245 OFFCURVE",
"428 312 OFFCURVE",
"338 312 CURVE SMOOTH",
"232 312 OFFCURVE",
"160 252 OFFCURVE",
"160 143 CURVE SMOOTH",
"160 68.333 OFFCURVE",
"228.333 -3 OFFCURVE",
"315 -3 CURVE SMOOTH"
);
}
);
width = 615;
}
);
note = uni003A;
unicode = 003A;
},
